<?xml version="1.0" encoding="UTF-8"?>
<svg width="192" height="192" viewBox="0 0 192 192" xmlns="http://www.w3.org/2000/svg"><rect width="192" height="192" fill="#FAF7F2"></rect><g><path d="M23.15966581518283 21.787136665593792 L69.41668536553682 23.021819859579658 L69.78841686931372 68.32523132677602 L24.09074100931478 67.39012120974905" stroke="none" stroke-width="0" fill="#B8860B"></path><path d="M21.165409828384508 21.66834420348915 C36.88860089385314 21.9271539802716, 54.798566852317315 24.599459840314836, 67.50602815815402 24.057664074268473 M22.05534033219777 22.62451376977426 C34.74389426792765 23.90343609149948, 47.97608682921265 23.359345241371123, 67.70669843646027 24.019334971702506 M69.63087600449798 24.517219174604516 C68.15730818978382 37.655293238163914, 65.86185603981255 53.18096971935128, 69.99215854912957 66.40862937492645 M66.8872262946023 22.825685687703587 C66.3650790958068 39.45914276237814, 68.2113035293196 55.033677406559256, 67.63852324858165 68.77940193041687 M67.35904308292557 65.81712437018957 C55.75868410888075 69.81104191475285, 46.20527041226379 66.80162620640516, 22.102892632377817 66.77181860327319 M68.7020988110315 67.24186579329569 C54.76113509717846 67.80309075843594, 42.74331223733923 68.7813016799213, 23.930307446718512 67.35758822455809 M21.06718925401709 67.9663485810265 C20.469507779867918 50.891927270229466, 22.709907886885 35.24315963895017, 25.05901338207287 21.83195611803021 M23.413868997789027 66.86497234113102 C23.302044160051825 58.79104168989897, 24.026440960797196 47.83554991806424, 23.928233964642253 23.430737391110608" stroke="#B8860B" stroke-width="2.5" fill="none"></path></g><g><path d="M73.68186958163132 22.975269251003798 C73.68186958163132 22.975269251003798, 73.68186958163132 22.975269251003798, 73.68186958163132 22.975269251003798 M73.68186958163132 22.975269251003798 C73.68186958163132 22.975269251003798, 73.68186958163132 22.975269251003798, 73.68186958163132 22.975269251003798 M75.10255065767623 30.991310045179624 C75.44618708357366 28.99012604498572, 76.68567413545587 27.99173808740617, 81.32376593924906 22.947280826510653 M73.72708040816069 31.751303171429914 C75.94384045585797 30.060109935547796, 77.9147516647754 26.548328102756688, 82.27358596916181 23.238099941882798 M72.31967912047975 42.66856087205631 C78.28799923225503 36.03250603722757, 83.09635948768698 33.99784321997667, 89.06702780756606 25.40552659392839 M73.1170735233132 41.16466123687663 C79.30356857393879 36.83586239486804, 82.51544814388589 30.050924211977875, 88.11609802639916 24.361134347982343 M73.03511882197462 52.057246944270375 C79.92839356212532 41.793525503094635, 83.75836214313121 34.50923803814033, 95.31761480608044 20.652837549761884 M74.35507451307066 50.359385412845754 C80.96620407780952 42.488337879119534, 87.11981957935325 33.67069364705672, 96.56078694830273 21.90193043429049 M72.58604064694293 60.44725851227356 C85.26322496263572 46.39274173963695, 93.26753411427148 38.546795136622926, 103.64035769086061 21.976938042201812 M74.56529475386179 60.49619695088712 C80.68947357451229 49.91039426211859, 90.54484333607918 38.868889911786276, 104.32325162686799 23.630104700224933 M73.99861150672878 69.7617671907862 C89.37615949889472 51.476059112076, 100.9708653658002 37.70596069192839, 111.58714386259675 23.93692618233571 M73.54771361274985 67.20180907341353 C90.21378319741356 50.53923896716745, 102.82941017792294 34.54358168585238, 114.00659191234486 24.052370851167336 M83.17639260145947 69.83674783721082 C89.98840269855465 60.75462236375714, 96.34538681133154 48.969195609323876, 120.63836956504271 25.514480790638004 M82.45579810948168 69.64361290316863 C89.8638640513079 59.04964305888699, 100.79263535201942 46.74415291635881, 118.31734385372008 25.177103763709326 M91.20664895334 68.29369446403417 C99.15510522069413 55.74036793455691, 108.68883025314048 46.54966645722267, 117.82357501277356 33.01394692313954 M90.0929399791358 68.83880834722208 C99.51496417931203 58.952208558875064, 108.69508894488149 48.23425406524438, 119.25652156146877 36.10522661325124 M99.17280812808471 68.22689681368631 C102.24408591009792 63.5781631120318, 110.82217144627772 56.557637760532465, 115.85874322552272 44.18250838007536 M97.55053571401297 68.11106653039525 C105.07119503716048 59.249623817780574, 111.87622373720981 50.556971101366415, 119.67721132968279 44.48280887653956 M105.46503586915523 69.94195216525287 C109.99354550763155 61.14524063156842, 115.51002467573761 56.36958676669166, 119.71000807134267 54.62953408124563 M105.27662763421937 67.96415555795579 C109.58920174386232 65.98936953155045, 110.87653970417581 61.33182853078384, 118.55626252892942 53.22733589484509 M113.36353442130472 68.32471648547155 C114.39791574628528 65.95315164257534, 116.19087516461758 64.76205089426246, 117.43960324651282 63.69744719345091 M113.99925747032057 68.770887635262 C114.88967698831638 67.04076673748068, 116.0474120852279 65.45197664573729, 118.59505096511175 63.516325838852765" stroke="none" stroke-width="0.75" fill="none"></path><path d="M72.29036739589986 20.870886751740496 C87.3587082801314 21.313796613720356, 98.21697515939869 25.03426254147175, 120.57652797159113 25.029140668152355 M74.94214145764859 22.410598807507558 C90.84398856127781 23.678255009789808, 107.03705342193503 22.81416956633043, 118.31171240315764 22.6283275533694 M120.57998059094922 24.754115490003176 C117.68018526487748 30.641422674439962, 117.61596364748388 42.45355583250274, 115.81720619726934 65.85941984177107 M117.8302811155271 21.97000463062589 C117.53030395297975 34.551616803851104, 119.8801279718857 45.99091676676873, 117.83761333792624 67.13524912242713 M116.5507495093581 67.65200258201378 C110.86414811771155 69.43951924995562, 101.06685557036484 67.55096085472626, 73.24519011768051 65.31743874195995 M117.82238307702039 68.65192989871713 C109.57326845544439 68.92341946423174, 99.06065933524857 67.05395365704632, 72.85186399680718 68.42818077280367 M71.18955803178211 67.33808182318161 C73.92725483110064 59.20018343184269, 71.42431342964444 45.9587711254627, 73.3341773796264 23.624000956859255 M74.94116686920948 67.35884261193311 C72.90781134104839 55.8277419626184, 73.58027363461414 43.90119838918945, 73.08962605609631 23.367167636312256" stroke="#D4CFC6" stroke-width="1.5" fill="none"></path></g><g><path d="M124.14469494628081 23.116505312719106 C124.14469494628081 23.116505312719106, 124.14469494628081 23.116505312719106, 124.14469494628081 23.116505312719106 M124.14469494628081 23.116505312719106 C124.14469494628081 23.116505312719106, 124.14469494628081 23.116505312719106, 124.14469494628081 23.116505312719106 M124.78749247765077 32.96780436930817 C126.91660671178198 29.441124310890277, 127.02047222389797 29.844755779778104, 131.7426294493028 23.592406063621887 M123.58759045753658 32.75580782617537 C128.07237519677454 28.489161615543672, 130.37109078744817 25.829930500852804, 132.18145369453006 24.056592532941014 M124.3186126798033 43.956132678648544 C126.57983594331614 38.12501366268349, 133.92287322611554 33.63555982900019, 140.48308782117294 22.880942861112086 M124.38308621168666 42.443354231908785 C128.03862053153318 36.44566258574382, 130.6696673360827 34.50991672420321, 140.91172048296292 22.18128711375537 M125.40371943666472 49.863979477654254 C129.10844940292523 41.617630171649964, 133.60523088288727 35.882292423932135, 147.16406460150864 21.767994739588378 M124.57709950774074 50.86682198224491 C129.76734015362328 43.95476089334785, 135.50980271232086 39.10135509848426, 148.6570662879596 22.40432867301782 M123.50863306082815 58.745689748405226 C132.95665732721582 45.945355947070645, 145.10235150102875 34.34345172683352, 157.28926159295114 25.167326500506377 M123.0493832805181 60.45375646690071 C134.2641735990509 48.37258074747913, 141.60012974351147 38.159450535189734, 155.50093155647028 22.181160678535974 M121.8492464455053 67.43385503955804 C136.05856386795696 55.19082106226306, 145.98978692325025 44.84791206888832, 164.17435045882064 24.355630473835376 M123.28068087838811 67.8353755450412 C132.97711802213718 59.43718065405189, 141.8807185036227 47.33564393333354, 165.00405070144706 24.339538865513674 M135.18007213617133 67.20656753176877 C147.15363650519174 52.162565728034636, 159.9179164863027 35.85242822078553, 172.42835310413645 23.007611398272815 M133.49107904241893 69.13553853304947 C142.74275224251747 56.38955592292504, 152.73200000574823 44.84974354978786, 169.6588123047194 23.532225937214346 M143.3006146965725 65.60149467889876 C149.30820118782322 54.17682823739769, 162.32592325164558 44.153225899148595, 172.85525991328387 33.381789848618034 M141.2795891643455 67.1937986716459 C146.72595337215395 60.92921579572251, 153.59093737937962 52.62446389492278, 170.0743103609994 33.55976586570404 M146.65925517226793 67.18434013387224 C155.23653893655825 60.39079861851391, 160.17356804775318 56.878898984435686, 170.4791961007431 40.4257254661145 M149.81976567126756 68.7439853712092 C156.40876737267408 60.42924487001114, 163.39107786307764 50.55369903708569, 170.36695497752618 43.203911043499104 M156.18147830805506 69.94052987988302 C162.2230105400492 64.56510273058842, 163.97841592756612 61.547349681411845, 173.0282396579168 49.78843868716377 M157.32927173269275 68.35831701851518 C163.12353742434905 63.29845461925325, 168.34541347499305 56.277103409350104, 169.51620126499034 51.99838390980348 M165.4130306768501 68.47168360100075 C166.92657117624123 65.3707285270871, 166.44004516656244 63.643121395278996, 171.14753618361115 61.20907556891447 M163.77575944255284 68.94094438907956 C166.20293330170583 66.28596508005943, 168.2922927867952 63.51416963412591, 170.18935403113485 61.56157867749608" stroke="none" stroke-width="0.75" fill="none"></path><path d="M125.56128419240879 25.39721558933814 C143.24282422394631 21.31144993939402, 157.36723166121092 23.080112288951458, 169.33248665881132 23.334812296304133 M124.11074073072776 21.765268381845267 C137.36487338641257 23.544679370403475, 148.07540394478198 22.69787739888236, 168.2574649206729 22.55880935354567 M167.0637264823767 23.618587631704894 C171.2400983854295 40.183931366195594, 166.86244068670985 60.56876432587063, 166.81911954557626 66.6385078589798 M169.28781374707057 23.04432622122242 C168.37470150327238 35.53409253750587, 169.814374917525 48.65087997113771, 169.52586625284403 67.22105719886376 M169.49405748654675 68.99807578717027 C155.77411861979454 67.23366661861876, 142.84972835034182 66.11211030183098, 123.90212310741894 69.2941516052823 M168.78332328193056 66.4697868493017 C158.68696275592802 66.8710629856589, 148.49988348389306 69.33149627333664, 122.97852613558159 68.32968293221388 M124.4995298233691 68.84595890015665 C125.15902633660161 53.20281686056578, 123.57903317625737 31.95985852971161, 122.39592070714028 21.37000576826777 M124.84193962475507 67.55259939121524 C124.54699458783979 56.266975305960244, 123.81564989298957 45.24757875052731, 123.13739504984744 24.195562189456638" stroke="#D4CFC6" stroke-width="1.5" fill="none"></path></g><g><path d="M23.335453324409347 73.28571982979108 C23.335453324409347 73.28571982979108, 23.335453324409347 73.28571982979108, 23.335453324409347 73.28571982979108 M23.335453324409347 73.28571982979108 C23.335453324409347 73.28571982979108, 23.335453324409347 73.28571982979108, 23.335453324409347 73.28571982979108 M24.424624176917074 83.73048044754516 C25.47093891577991 79.56857368690514, 28.980792041664603 76.59169419483739, 31.325120071502486 73.87774024740045 M23.54614991248975 83.22622016049077 C24.20867950077271 81.16753823865889, 27.45220299469839 78.18461752075113, 31.431481678442143 72.69995564970405 M24.193157831289355 92.90705105986096 C24.92352503734526 87.67404761615748, 32.83603148314704 84.9057181237305, 37.863832479024616 75.71275510267506 M22.298583904187936 90.54285970888395 C28.48726590648816 85.16398775971442, 34.93597931862307 76.8704077346793, 39.433210518902904 74.6858617420261 M20.929614873018636 102.74679415056544 C29.39577503290279 91.1514608718133, 38.94790733903045 78.46333248761547, 48.36274872197841 74.2538372240937 M23.918730664942636 101.61551675309815 C28.30485271247928 95.59087824513087, 32.70831354930904 89.25229963574483, 46.591574894891515 74.50928398155305 M24.781316802544524 112.00342357755824 C29.26193473798378 98.0519468940692, 40.87845677231357 89.52446825164562, 57.02776542845038 75.38469114643974 M22.634116701799865 110.1918599526096 C32.48557682267133 99.15970395001979, 43.24765521292645 89.75236469208586, 53.91347948988622 74.93069925653825 M24.59451166634176 116.13531748012242 C31.248326219903404 105.79746020771115, 40.85412726827651 98.6786314126558, 61.10435522216273 73.72709827903701 M24.956477373087758 119.40115003966297 C36.6154601063796 102.35318153587203, 49.65455395190636 88.59207518795995, 62.288484908143005 72.05518910520723 M31.879462520728907 121.35516571095154 C38.73024252819035 107.5032162579304, 51.91814671416204 99.39931607648508, 67.94503154518578 73.9493039139211 M31.09879323507348 118.69599808404013 C44.77193876983764 103.19774250641943, 59.75388807227746 84.92758624717416, 70.7125277703531 74.94917523190351 M41.52269871805446 118.63739827012583 C50.99069645068462 107.62536973575412, 60.122715038962475 94.4037125914193, 67.83950838670951 84.23153219787518 M39.523188306472576 118.69419192709447 C49.574124541628784 104.83458309475965, 61.45288692449256 92.1760544808026, 68.88371300119734 84.93065053148761 M46.51845658012707 120.33514940465959 C51.007766244713665 112.08598198453859, 60.94532114968093 107.27030997134496, 69.79246931335211 92.08655463247649 M48.21407406052976 119.57793171720417 C56.40955035215264 110.15821607339612, 64.44631580158588 99.86201629428432, 69.82014000511435 94.5041936776632 M56.34739750284589 116.10472211011374 C60.07619849364295 116.33428256377418, 59.825281251045 111.64801262069564, 68.12923127537995 104.77420086030878 M56.3469392585415 119.69901669299422 C58.366563349855475 113.38958997826256, 63.606732235214594 110.61545711421397, 68.0736987709718 103.5188882512198 M63.922649532347755 117.60524766171224 C64.59073680718615 116.02142561520489, 66.94596332578682 114.20196092044688, 68.37166541305437 112.90792462774398 M63.33883597237611 118.20323314007729 C65.0145678918213 116.69563248749029, 65.97493327934065 115.59543319226798, 69.50640803247931 112.4071827849905" stroke="none" stroke-width="0.75" fill="none"></path><path d="M21.47434605702934 72.23717030366265 C31.627889615977182 70.96740720237425, 42.8288250653204 74.00530369433764, 67.25852901599559 72.57414814231505 M21.908487295266518 73.44706290307911 C37.94276812533484 73.93978546933377, 51.3612406199892 72.93807876123235, 68.9789475670886 74.32638231724455 M69.21580810564204 71.92252433189118 C68.65223216095534 89.78035260467408, 68.34918666350025 101.93672723577592, 69.73209897063984 116.35453076665384 M67.07141176907896 74.79456982307812 C67.51341955415494 84.18899443923755, 66.86308703588534 92.37653214353973, 68.38638833352773 117.34779406026651 M69.6847831148729 120.50901329205202 C54.20758443403682 119.55232079474317, 41.69365359075914 118.72754132106074, 22.872390851972135 120.76836468436369 M66.85334860903008 117.14798335853065 C52.84546924967362 117.97550028247514, 38.78879275643486 117.84860223933825, 21.820082147373455 118.73494895984955 M22.79994017098118 120.27460152096995 C22.60045262000633 110.37261644012885, 24.475180471119955 100.19583565356055, 25.330290124323668 73.48256760117238 M23.683185350428968 118.56516490960936 C23.110044685937364 100.66362223360916, 21.76933325922782 84.68892010989313, 24.213849242967868 73.17879499108642" stroke="#D4CFC6" stroke-width="1.5" fill="none"></path></g><g><path d="M71.82117801556429 75.12143490128443 L116.03066547401197 73.82195867196458 L117.195073299036 118.9639003698456 L74.66014168995827 118.16662386147777" stroke="none" stroke-width="0" fill="#B8860B"></path><path d="M73.77933109515189 71.24697313608915 C87.0058128664176 72.92375124973655, 99.84419154880109 72.37752877153787, 119.51235500739925 74.7092646148817 M73.66998581807881 72.90156595058475 C89.80460797690401 72.72128422120694, 106.91551911718257 74.50960199980017, 117.49909663081928 73.10295122159599 M116.91396599830118 75.5762984587856 C117.6867801816656 84.7370895780625, 119.87964270396202 99.79169119043598, 117.10132485031801 119.6644549694272 M118.0660174180643 74.01873320908146 C118.10497416454437 89.65670948868821, 117.80179532283239 103.51874368925056, 118.49701331663657 117.72443398570441 M118.59465219981615 116.15036510802483 C109.6015180191409 118.54025197776782, 96.76369109901628 117.88346010230822, 72.9665787662314 119.63298850928936 M118.52248057268237 118.2845560479742 C105.12446091019683 119.12679959247906, 91.35622875914969 118.48793328595164, 73.35640755952191 118.08272202682166 M73.57339508058676 118.68391790728974 C73.99929481696843 100.11638883037268, 73.62739065311055 87.19782451764917, 72.54273960625117 73.48013550215246 M74.46860031011273 118.45915085060291 C73.01524808419036 105.90517374188826, 73.38179015702659 95.84652624360506, 73.03500120267469 73.2703518332765" stroke="#B8860B" stroke-width="2.5" fill="none"></path></g><g><path d="M124.26110405370834 73.56819195322173 C124.26110405370834 73.56819195322173, 124.26110405370834 73.56819195322173, 124.26110405370834 73.56819195322173 M124.26110405370834 73.56819195322173 C124.26110405370834 73.56819195322173, 124.26110405370834 73.56819195322173, 124.26110405370834 73.56819195322173 M124.54246759396399 81.2100151154965 C124.67060005278474 79.8983365099564, 127.56765514656179 76.97856162459586, 133.20809203577562 74.1931756148704 M123.80669192056918 82.74852797649312 C127.6083416247342 78.6571963707537, 130.26608014040602 76.22005718708306, 131.38684233099715 73.55339458286367 M122.58997703018848 89.74272408084808 C130.61033284647223 88.69867001466174, 133.2559356404102 81.15473414432381, 141.5771033888205 71.27784181004031 M123.0192029604241 91.46842896915688 C130.54043408622692 85.12448787968208, 135.64305633453225 79.29234508551264, 139.2807309027572 73.74158861342941 M126.50060921539608 101.51501418876785 C127.82824798989787 91.81599477753956, 137.39604662224497 89.47300119582837, 148.9044473063691 74.0763935405916 M122.96428881760905 101.17464542957508 C130.5668976106847 93.80909846307415, 134.58946160175952 88.14912351120091, 147.80514129973403 73.81353771993791 M121.45493687939779 108.00436171713223 C137.35499660930455 98.68037715814437, 145.96734845802095 87.6013997892604, 155.90436102924048 71.21987666766972 M123.02037590355633 109.83136574108399 C133.94050792219394 99.63938809923789, 144.26266315459827 88.26498198057102, 155.9230687396512 74.19747053192039 M125.86681765510878 119.84901424603238 C137.1391853232107 103.03057527817994, 149.79882000914867 85.75443447145157, 165.65176131472586 73.97398521458081 M124.35390249205584 118.11055316951712 C136.6917075823954 106.47320671395141, 145.42184756911627 95.74539034239024, 164.8442123490195 73.52666617296381 M131.78015068384204 119.8649016842478 C146.23768922899743 103.98004736557995, 158.4184493455539 88.60988772398385, 167.25643633064135 75.97456129164784 M132.52490966858798 119.82205022144204 C143.45378371542955 108.55298527540049, 151.7495812859535 96.62032308097511, 168.44448632495266 75.74463374435507 M139.97530795909634 118.83870655636873 C150.89436736559804 108.76749013109693, 161.57303016679515 96.21784580070744, 167.18901306449493 83.57546340852164 M141.40878858338073 118.22309703657676 C151.42450242421546 106.83686161104292, 163.98968310389495 92.40532699294116, 167.97157368066232 85.48276348114571 M147.68902439456218 118.49584582404788 C154.3112864131285 110.4020903296447, 164.05850749112744 98.9789521459834, 168.85747258682446 94.94699651765966 M147.78782781404803 119.52716101863487 C153.68778661655293 112.40641441556761, 158.62918850520913 106.82437804634006, 169.0147188844855 96.27291800210182 M155.05584297337205 116.431071916686 C159.13579213067553 114.58374643729879, 164.28731482604948 112.70395428853593, 167.8126425129754 104.8008211743315 M155.2980515224391 117.95005282396326 C159.66992132489023 114.47385233781552, 165.39080827507823 107.88533004143409, 168.41495513006655 105.14098293590455 M163.64281283079893 119.39299808888174 C166.6542371036787 117.85240824204412, 168.15342748795402 114.9758894961184, 168.24955629658052 114.17185758188329 M164.4294890542967 119.39344533328641 C165.5952329132037 117.66206512718917, 166.0754239505707 117.04649119654358, 168.54486991913024 114.00267217426457" stroke="none" stroke-width="0.75" fill="none"></path><path d="M122.88107151587603 74.23359716136352 C140.62740740163892 72.5721321917108, 159.44732542313452 72.88666570999041, 170.28759720261414 71.3434406574968 M123.713215740404 73.83539313398937 C139.89296121863183 73.93846229807617, 157.28915588613634 74.22529851015194, 169.17014529972408 73.98738890141259 M167.44896353869075 73.82620824927697 C169.7160530383857 89.94961528394833, 171.10701755595483 103.77315369278604, 169.3608101408977 119.52156275983587 M167.75059827041616 74.69264357266017 C169.48698406896736 83.67498891883277, 168.79817091294527 91.66952085270455, 168.38953164945605 118.60048072629388 M170.4362094704579 116.46234040846956 C150.40707054968487 116.15856738377725, 136.01075424508852 119.27378720545079, 123.15950522291891 118.86437913201924 M169.84554523488737 119.01145674608496 C155.43212627647097 119.19992431054825, 142.44226598915725 118.99856032108315, 122.90480908205731 118.90283717314519 M123.45501770067966 115.92980974175964 C122.39941691925367 104.1589926542445, 123.28647661678943 90.32359237227072, 126.54541812816026 72.6281664785782 M123.48735635307227 119.39868457169545 C122.75483782513798 105.44374876500693, 125.19250067911375 91.4989273962221, 125.177267937495 72.44233514913377" stroke="#D4CFC6" stroke-width="1.5" fill="none"></path></g><g><path d="M22.79580340284636 124.49211605051644 C22.79580340284636 124.49211605051644, 22.79580340284636 124.49211605051644, 22.79580340284636 124.49211605051644 M22.79580340284636 124.49211605051644 C22.79580340284636 124.49211605051644, 22.79580340284636 124.49211605051644, 22.79580340284636 124.49211605051644 M23.871294403809905 135.38907456247662 C26.359453508180522 130.7833350391849, 29.379303702788008 126.26164124172824, 30.908575589039415 125.22455448989571 M21.99849609943568 133.05765751980618 C24.38872699090412 131.59611516779435, 27.06907841504261 129.0126856080763, 31.664908414497727 123.72595009083096 M24.03125042758094 142.248834832361 C29.97320664947459 135.7951184212185, 35.22068722778609 128.1886941637397, 38.6123817493704 122.85777977236383 M24.19944346340005 142.12949333836423 C26.30826292054914 139.30568523451967, 31.64367257130411 133.21520488603886, 39.966775904088195 123.36700884289165 M25.11972983133887 150.50609070107637 C29.855663921657847 141.65655069472874, 42.19514450897706 131.72539090607063, 44.403960320886355 121.74551833294454 M22.4047621028862 151.2188331649116 C31.604579678372026 143.03839276872174, 37.450707457909026 135.83740261485758, 46.91688238413024 123.662991703542 M20.813122334493432 161.58934429513297 C33.358020629056746 149.40783759309556, 42.320707646948655 137.5524578701419, 52.860162133374445 121.93387457362617 M23.886823391291653 159.298255368201 C29.206716815442686 153.95674918028936, 35.32682079746017 147.11481970073007, 55.48512682701448 124.72910288533463 M25.43698578202419 169.28982181500103 C32.74186406029962 157.80254155827217, 46.639025800582765 144.87883536451983, 63.074384383162695 125.4135015079907 M23.75766572823498 168.10082324806942 C32.224320502267986 158.14778270166667, 39.584972379981714 149.34313750020755, 63.3364785791996 124.97959376086898 M29.559349944884033 170.98235688728363 C43.95718234955891 150.85207573534342, 59.19197588705975 135.22957511314038, 68.09838175676664 124.33448564365989 M32.605717824727016 169.36155957470893 C45.732334677826515 152.8022644877154, 57.91232579673742 139.7437751706204, 69.2326588818688 125.66840236299025 M40.99035409120694 170.32331103695407 C52.71086410424894 155.95386463936393, 59.15364671758756 145.7369562205094, 71.78418482844431 134.36750882136099 M39.70044220846257 168.17951575676003 C48.11033765358198 157.48383069830788, 57.72409521498024 146.5685973108606, 69.56061603214934 133.73069069078477 M47.0727643023413 169.7277252658298 C55.03903029677673 163.4877882504339, 58.72482114990707 155.84876995402948, 70.29262502059667 141.39567026092885 M47.48427028197177 168.67782983111744 C53.90136050392642 160.50304159701804, 63.803425310864675 151.08467411966242, 68.8267297641141 142.93125884736003 M57.42352234862193 169.5281429657066 C57.17322783507657 163.13513858642835, 66.18179285828836 159.55936076137678, 70.32249435872218 153.6725656710913 M54.24207577542777 168.76953486455545 C60.50510827090593 163.623032533401, 63.49806057218859 159.66049233355366, 70.39542241378399 152.28779489788437 M63.84966525062066 168.4721882466193 C66.03714810765642 166.8333859325352, 68.86348552242085 163.97645916012576, 70.00057441921992 163.13009380273564 M63.562916472934326 168.76766553102726 C65.5613559425043 167.30505483543882, 67.42656735636302 164.89031991342358, 69.25338773661683 162.36463736814528" stroke="none" stroke-width="0.75" fill="none"></path><path d="M23.16220103935887 126.70954703303921 C35.65530632242932 124.58160572774854, 43.28355834812171 125.84635691719089, 69.44468510049573 122.06651231769048 M22.406635693969893 125.4726742182851 C36.022787707282134 125.05846535465997, 51.66051621938973 124.2778893647279, 69.08001345114079 124.16255365709155 M68.87146770975238 122.51144026611989 C67.65809104760788 138.82529515285034, 68.99329979950613 151.60284993139646, 65.94363524105965 168.60225803708983 M67.6900494768018 123.54126149483757 C66.71244260650144 137.0325447280453, 68.84187116273439 150.13114887967794, 66.5731182820259 167.6793043789665 M68.63514387728051 168.18623573421277 C56.07173130723514 168.60784382214504, 44.56209419871885 171.07152445955464, 21.38799285948804 167.72388358978327 M66.5646366065524 168.53330863642623 C53.249129442714256 169.88412581434056, 35.69638671072721 170.13362797965146, 22.837874694764633 167.80006327882018 M24.452374756841305 166.55863426126137 C24.324408091722415 150.19990897939155, 24.31288484766936 133.83535855559913, 23.637428764177194 125.05116973513475 M21.791646879140256 168.37886875114506 C22.871837512874816 151.89378791307425, 22.882582187151527 138.23940204168636, 24.20305491881792 124.54151639952018" stroke="#D4CFC6" stroke-width="1.5" fill="none"></path></g><g><path d="M73.91468779648636 123.878642532009 C73.91468779648636 123.878642532009, 73.91468779648636 123.878642532009, 73.91468779648636 123.878642532009 M73.91468779648636 123.878642532009 C73.91468779648636 123.878642532009, 73.91468779648636 123.878642532009, 73.91468779648636 123.878642532009 M73.66962281086981 132.98765401344082 C76.27301648171985 130.45675180852814, 81.19683572827103 125.46257043899459, 82.95832963090753 125.56159842074084 M73.55829590864569 133.33452747245352 C76.01548980016646 129.84658785377178, 78.0877987824491 126.99717438323071, 81.35811749399492 124.15711799636038 M74.30639582859106 144.47526402225964 C78.62436377687563 140.48854852992108, 78.61901348296777 134.7424288467797, 87.10282074713805 122.04339653267711 M74.8015458210084 141.16453236849785 C75.71434297580005 139.72670613172872, 79.41941459309908 133.67726974800019, 90.2455610523935 123.88013513786694 M71.94560051289744 153.58002161443395 C79.4120309795263 144.41561553919044, 87.72791951717056 138.53776445373498, 97.16005395474686 124.34931151449344 M73.52735368259904 151.4046319035651 C82.73441806946609 142.5065353886443, 89.30714115181696 130.74737234306158, 97.39322006884083 125.14588727199482 M73.71259635801668 160.90800831486132 C83.35798873420383 151.11357342750276, 89.23002083384078 138.40345378663696, 107.17558465827119 126.4065463375067 M73.52872523052217 160.18343035076302 C80.25151830869135 153.01701624566516, 88.59253133731856 142.61731533197627, 105.98918606551783 125.834025137908 M74.08412002643446 169.60807360226477 C87.55355122521064 150.22612804606382, 102.54957433064237 137.36311938894423, 112.25540610662307 123.8905661133385 M72.99825222357832 168.90881625140798 C85.69839752279647 156.644272585773, 97.44487793589725 143.4413128421938, 113.06688549754104 124.88830083703611 M80.18520234817831 170.8088928788911 C93.90039112812389 158.48138767948282, 104.95302468109377 144.0258969990764, 119.07497126545822 128.1894233929847 M81.88082744612008 169.26145274940868 C93.00900996489594 157.3751773265411, 101.36337369930725 146.25674776948173, 118.17478447246624 128.2624838853723 M91.40846917565271 167.67198428331199 C96.22199245949022 160.390996015587, 102.20221796413941 154.82769949277312, 120.74102053227458 135.6325714823555 M88.62118094190006 169.41673791608588 C95.45949445369516 163.62813003858628, 102.80146903823439 156.21294516546064, 119.90212194898331 136.82639292988344 M100.06740530813619 171.34786739005662 C101.62587447308735 165.77439349691647, 108.5466874588754 160.25619146788543, 117.23380553426786 147.972997166761 M96.70711847290458 169.6549515824593 C104.49504702684852 159.90900928466573, 113.53784249040164 151.98395174584738, 119.01588504490334 144.8465661268935 M107.4451631202027 170.7373120418482 C109.66523894969515 165.9219812089106, 115.63875889077694 159.35732872826543, 118.70850113845167 155.32544559338913 M105.9411006323948 168.8610568129399 C108.96446850241719 165.60457486475778, 115.25210570399238 160.74748058037054, 118.84624160467416 153.87824907892838 M114.12078803673508 169.5389875890332 C115.82685512959222 167.78754237201196, 117.54476247562631 165.32760773650608, 119.36178772975147 163.74688498398967 M113.81009562523904 169.49086997656448 C114.83115020440046 168.20246391551177, 116.07827018065048 166.07540364794454, 118.23988364249104 163.83566816358237" stroke="none" stroke-width="0.75" fill="none"></path><path d="M71.04201870630322 123.97236398256914 C89.08804694168707 125.3787674113857, 103.97541029323044 123.75903335570575, 117.37923253750628 121.8204562153679 M73.63481841797255 123.84499372199295 C88.75147284746554 123.70331672286511, 101.905441082149 124.88415039734123, 119.17352323305394 123.45943242662788 M119.44730624940998 123.28802235268331 C119.84488768983503 139.2814720098114, 116.2441448101578 157.77431967507957, 118.78301551852005 168.57969701083508 M118.67102091938736 124.43684590932143 C119.03177984128324 139.1223152284833, 119.76003899618723 153.7664224934693, 119.49888694458011 167.78735931126872 M117.99067228077692 166.98738541254406 C101.07636894388945 168.3004994969435, 85.25787915984525 170.18070363764662, 75.10028149952501 169.92504130537205 M119.45074226027614 168.8099240445614 C100.3245743635126 167.62122652286087, 83.80244141701512 169.44339050102278, 73.286676107927 168.59391487458637 M74.58535333983203 171.09377091127246 C73.34791402551512 154.10873133930738, 71.21426419629964 144.57051339910936, 71.09099219775014 122.86987556736193 M72.83755339720163 170.09191263120263 C73.0233717685352 160.04851778366444, 74.95309157491099 148.63480293538709, 72.35942488432642 125.3986366778592" stroke="#D4CFC6" stroke-width="1.5" fill="none"></path></g><g><path d="M122.23373274393613 124.45246098585265 L166.73727903826332 124.78881199913958 L167.22389218221073 168.46681822125188 L123.82819666220955 170.49750796756382" stroke="none" stroke-width="0" fill="#B8860B"></path><path d="M125.58050474407058 124.74394865566903 C143.52616219251928 125.48008374458533, 158.22180394983178 124.13500789225338, 169.39354817177295 125.09236167559108 M124.42165515774744 123.49884092064244 C135.1388241941113 123.41198725784757, 144.69915794989637 123.22231132642499, 168.37520408484843 123.37014359869227 M169.86367721924478 123.84262526569673 C167.02534115112994 138.77298675935182, 168.98859191950078 149.69098857671258, 167.88028794785663 167.4127488360868 M169.0273278511736 124.1012486410649 C169.72790214126908 140.14605952169788, 168.4159846980774 157.0716147157743, 168.67147680762392 169.4939160728607 M169.82952608631044 169.5788341614077 C152.57412445147662 168.21117265549483, 140.83553595876248 168.07480435192016, 122.54987171313554 170.73086634704646 M169.04802568886086 169.9006861807883 C154.24984978208468 167.61547575487546, 141.25788493138077 167.68251607921803, 124.03351770124364 169.03492040471764 M122.83823639143665 168.7345529546236 C124.5609009351107 155.6947764767107, 123.24768853666964 140.08326931945152, 123.2824378504457 124.24480384656592 M125.3884626577941 169.7907906824801 C123.4986329053921 152.69545932582508, 123.62428585278853 137.74069118676613, 123.26600373252137 124.6201416835109" stroke="#B8860B" stroke-width="2.5" fill="none"></path></g></svg>