<?xml version="1.0" encoding="UTF-8"?>
<svg width="512" height="512" viewBox="0 0 512 512" xmlns="http://www.w3.org/2000/svg"><rect width="512" height="512" fill="#FAF7F2"></rect><g><path d="M61.68504436754795 63.11176313002172 L182.7300339466832 62.179796644530555 L182.47516819428216 180.97562109977304 L60.8352857145928 181.74396825631732" stroke="none" stroke-width="0" fill="#B8860B"></path><path d="M62.19586835986603 62.813180032556 C89.76865975696569 59.80301650916368, 119.8482729282738 61.087325176876305, 179.6546215108684 63.41524472325994 M62.188216699338106 62.44098063522143 C96.013191953089 60.42011968021065, 129.23283476187711 61.14495218029339, 180.5395834311947 61.366618620396636 M179.51481584570973 60.282246095304174 C182.0331090767104 87.70064920022938, 182.7220289445012 117.85403239605255, 179.20620043494353 179.26851700491372 M179.88016393562313 61.24618352755725 C178.20051433169294 105.29754099022576, 179.611734487775 147.75265219009341, 180.16672637705466 179.94728000538566 M183.1566219897794 181.16183917928768 C135.50154800882922 183.77057073716853, 89.60780283591879 182.64729655543502, 61.231817860998454 180.47108044686507 M179.88557533057758 181.16174117412191 C153.87654727822732 180.66030429973182, 129.4508912458976 179.6537863220987, 62.2474110421964 181.69383506345787 M59.68538605389226 178.75369376215758 C60.55093542930434 149.40392941097838, 58.98191288577977 121.90776190772208, 61.476580617001346 61.96771171974452 M62.10020908292324 180.29032835231558 C60.258773820815975 132.04417704336063, 62.15024742329147 84.45805409594637, 60.46586365953785 62.11844374145379" stroke="#B8860B" stroke-width="2.5" fill="none"></path></g><g><path d="M196.04761286502318 61.77052438949198 C196.04761286502318 61.77052438949198, 196.04761286502318 61.77052438949198, 196.04761286502318 61.77052438949198 M196.04761286502318 61.77052438949198 C196.04761286502318 61.77052438949198, 196.04761286502318 61.77052438949198, 196.04761286502318 61.77052438949198 M195.73587396675777 70.027390977413 C200.00225997321027 65.39781854387776, 201.2763476448634 63.82980122785681, 205.68545964747832 61.746021908507885 M196.46172036304043 70.44969072199477 C197.82658669283447 68.56970561615009, 200.43200169342444 66.02193694841917, 204.57951038694102 61.080148583140584 M195.59803251533657 77.79594965235346 C201.40489330033108 73.07672208747351, 203.03503365661263 71.08133787317097, 213.82373489872083 60.34273381779969 M197.55729645199025 79.2226965303903 C200.0245030369196 76.49456239497084, 204.60832454360371 69.90275539806437, 211.87887005397545 60.82394901458647 M198.67784485017037 87.47620056212736 C202.97747113153721 79.30236223900766, 210.22883240898474 76.56471977577337, 218.2103478537212 61.27343306351929 M196.83091517245597 88.84011040693605 C204.39383159323603 78.30278938901998, 211.61060284701747 69.64289515298998, 221.19704122866992 62.807562807075996 M196.4041889427857 96.24260581094451 C207.0024169700162 86.04026236769971, 215.56007762388427 73.2187525272765, 226.88826413455362 59.91192783318564 M197.09226648402839 97.53979728603959 C205.9958866388569 87.08468842541652, 214.83865240434707 76.9347192465623, 226.642216876563 62.921365989348 M195.6582902753238 104.71339427826025 C209.6903966295408 91.65698515935098, 223.3255658602018 73.48465859975691, 235.2760437284257 59.50504853180765 M197.63693302675884 106.25331004859456 C209.63705425637025 91.99317164979657, 224.36778200775632 73.81518926323258, 237.18704595416554 60.75350492043984 M197.51493245205452 116.47299398936816 C212.87591175918007 95.99736837087251, 227.34785834537914 78.34973549697862, 243.32056642150053 61.22867740579064 M195.9907154874406 116.25959311838467 C213.64110258415292 97.55397891826077, 228.20011702639604 79.20937615345026, 243.9378392999057 62.061928556510985 M195.66435991203565 127.40810399038969 C210.7656817576407 112.18698672365926, 220.68391353069472 97.00637664901791, 254.60837045222502 60.709872059043626 M195.91226339246646 125.59009357872034 C207.86395104638947 111.60936219918071, 219.35155230353908 98.25177811227256, 251.10609245506657 62.031027624847155 M196.04608784286074 132.90468284669555 C212.8533495895209 116.65558012247763, 226.0668409632883 96.50103462777894, 261.15631403546155 60.71500487146642 M196.8420236960142 135.4932485285186 C215.7243390856901 114.46931897511118, 234.99638295676442 92.26110362567856, 259.63095566244084 61.48775274935081 M194.52212095705505 144.87485606231564 C213.4019332012803 125.83110638703052, 227.36788030679148 104.80586936658412, 267.9208545539185 60.03156611876781 M196.53122185807496 144.69425649259097 C213.48278449405592 126.44973026682618, 227.35493882729588 107.419263730217, 266.4283042497066 60.46326583491472 M197.58699940169805 154.4148860715082 C214.29930983336837 133.4642981638901, 230.96269866051512 109.68495741502991, 278.7014178980514 62.847093227775595 M194.96111045960262 153.62572369296592 C225.07378204813375 122.28868383353336, 251.08298093732736 91.01208514039975, 276.74792925241974 61.63998484501757 M194.02151202013374 159.95355811366463 C230.15861555895546 121.99124064726661, 265.73352622889047 82.55825228724726, 281.83390198500626 60.701934884631896 M196.71434641295522 161.59058264258712 C222.24071933341267 132.24534789897422, 248.09569697123737 102.45910224202235, 284.7676604607675 61.4388656854548 M194.11616497773983 173.2342415047209 C222.11229099623588 137.04120975805026, 251.68122983442515 108.60354516488302, 291.47317645388 60.88972842806998 M195.67798462285865 171.25651497255419 C234.13244204154776 130.0186063048418, 270.112821631389 86.82731068702932, 291.936049151655 60.3630129364361 M194.0541864628542 180.2795661399822 C219.32184964209446 150.48348419252207, 243.84817514564622 127.44128709975712, 298.076385867463 59.579245683435005 M197.05052208431343 180.25353789353207 C233.6136065148389 139.15109480923707, 268.09293003153505 96.84109203608841, 299.0107568289136 61.59898300067591 M200.62995728425625 182.39140233764627 C228.18753351189417 156.63039698428213, 252.17659417148212 124.80009693111889, 306.7633705455577 62.71915247369351 M201.4930191097573 185.50515707982245 C224.05721283659665 160.28874251367083, 245.3012435982585 132.35904068031928, 306.510695450035 61.565761624439865 M210.90281517113644 181.95306392868 C245.7501334435515 141.9942726885468, 288.35754943920494 96.84904625154745, 316.41966048899974 63.27820099765241 M209.01390882376353 183.3442922804419 C235.07562681013255 156.53216723972892, 258.6510220871394 128.46924881870785, 316.65181116616117 60.97366855644812 M218.23132455289783 181.93456480097137 C236.96697973571563 159.16380548569575, 259.7576264025149 132.81827377357956, 321.01025602009025 66.11339311249972 M217.04387535400141 183.89121547202086 C243.9987699271916 157.26139158873676, 267.71709325258786 127.29687558318369, 319.4340936825501 65.85633758791246 M221.87505758270666 186.63550793325436 C254.43816578780599 149.9335383796418, 286.2092031935361 109.67539045553644, 321.2171291579612 76.80661681177368 M224.06518677181964 184.41714017533516 C260.2813431795056 144.50216254742227, 295.576166839245 106.03033698645267, 319.07312795713835 75.22947273923961 M233.65677658002193 186.38730067002754 C258.45535134057184 148.37452622365413, 291.2137432131848 117.83902661409543, 318.4082129845221 85.91864486736776 M231.39392767826274 185.03634457022082 C266.0957309594774 145.4615721658377, 298.04327383374346 106.67392594264277, 319.365007170105 84.70766025561649 M242.37475585995458 182.4460823259434 C262.0388113759483 160.4589320926695, 280.98829318692736 137.03526425650634, 320.4644908890743 91.84601931717503 M240.94955254026357 183.90778597997632 C259.6542876179516 161.92193949447636, 278.79504723640133 140.41760034413497, 319.2663603983575 91.89528753594362 M247.6416838772205 185.49570912533966 C262.9946873370496 164.57729052297216, 279.90722706075735 145.42691318412605, 317.7584710063388 103.08247593452991 M248.5249094789769 183.55630871150746 C268.0620008233001 161.7415381166928, 286.85013783189794 140.55929976783102, 320.4896360116043 102.885641877741 M255.30080024652182 184.2061134167672 C279.26378570215377 153.9870905633222, 306.3711197640386 127.84736929809561, 317.6556080932968 112.38613999725669 M256.74724414651206 184.50797879269646 C273.6058224397857 165.67586331171947, 290.64314923318295 144.11379677863982, 320.93095756467665 112.1497546757142 M262.10399713133415 185.91086737345503 C280.42246164614545 168.16392708712226, 296.02467965644956 149.30923261825174, 322.36326480955523 117.98743440166504 M262.94412374024637 185.61034043372993 C278.34846650106505 167.67736158096943, 293.77996021442226 150.21738185660158, 319.147725955214 121.52272083614326 M271.270092656444 187.0791353066989 C290.69660926263964 164.0109975437222, 308.70877392285206 141.46923000148314, 319.7500999516528 128.36666264762295 M271.3756611209365 185.61888743966128 C286.8293287252518 168.90645591018443, 302.40868862621016 150.21017090551814, 320.28745093956076 129.64332046717183 M278.1184026733471 186.20465781436627 C291.48835048366425 169.37713676970347, 305.23591812713465 156.46688943264897, 321.5799093676379 140.1939723507617 M280.9449115752207 184.22434537500038 C289.863254420921 172.2916201526921, 301.3081148699241 160.3515178460998, 319.56482213305054 137.15645433984884 M288.2304116149838 186.95442091569953 C298.8613055530399 169.9965972336858, 312.6867047053607 156.48440828241476, 322.672697050002 146.25303838618902 M288.0446382361613 183.3232855045252 C294.43274306517856 176.77550071137944, 302.9079665818387 165.76430931160297, 320.39039258123273 146.54634107997052 M297.84572850956033 183.22335598516125 C304.0956740648207 176.8258680110662, 309.0843008470172 170.07597455358083, 319.1041339026559 154.71602364853268 M295.7243842925142 183.89915635045168 C302.8332964484057 175.6230599643331, 310.82362424904477 167.4096509745154, 319.2141291144376 157.12335570639056 M305.7527676881364 183.38098824514927 C307.95866215213806 175.18452293858095, 315.98519097159885 171.205640812366, 319.119065384513 167.75697689163695 M305.04529467321146 185.15187468604265 C309.7363449171257 177.43367352166607, 313.1870885283846 173.498276282877, 320.0827754998228 165.39945312145798 M310.3596923790643 184.68546828974468 C313.25756779157354 182.1463103288126, 317.2807649043673 179.6350294944705, 318.74503719626244 174.87425145277024 M311.2521249619389 185.33581511927449 C314.32772892975373 182.76677355686462, 315.510938345521 179.81204711376108, 320.049173584982 175.336253520868" stroke="none" stroke-width="0.75" fill="none"></path><path d="M193.8484457111866 61.997288854548536 C233.33563834405462 58.94896444206634, 272.02107745322974 58.236486273040654, 317.17920989814945 61.03419185172935 M197.12806379732967 61.96026626471629 C224.0548169807009 60.3287675948958, 250.53787530228706 61.55907633885735, 316.18611587923067 62.3365590621541 M314.1343136467398 59.45725983589699 C317.5251362032471 90.43689940674255, 315.54385177961393 123.48342401510061, 315.62985887236925 178.5497860723284 M315.68372152432187 60.17418651991243 C317.0597704042584 101.10149350379291, 316.2630605853011 139.30658169809664, 316.30344636525405 180.31179946143592 M314.9899841282541 178.6463766852081 C288.55416262397756 183.91430694789622, 260.23642279829716 179.28286024000494, 197.30564450758342 181.60883586151908 M314.75320548528475 181.87373464928092 C274.51824668311565 180.5308971081644, 235.32234417602248 181.32946152311865, 195.85555442871365 179.88714007166698 M195.50052844244723 181.48224013507425 C197.3902482587071 150.70535868986846, 195.64021202218404 119.57677517337943, 197.72223048826993 62.037387618435076 M195.23216297396692 180.9407965893121 C195.78238314684518 151.18998388934128, 196.7513497573885 123.38155377776586, 195.40857434794071 60.8865831335616" stroke="#D4CFC6" stroke-width="1.5" fill="none"></path></g><g><path d="M331.2712061997456 61.392444307176675 C331.2712061997456 61.392444307176675, 331.2712061997456 61.392444307176675, 331.2712061997456 61.392444307176675 M331.2712061997456 61.392444307176675 C331.2712061997456 61.392444307176675, 331.2712061997456 61.392444307176675, 331.2712061997456 61.392444307176675 M331.57668905918695 70.15206393534595 C332.78699113092375 67.04498771669995, 337.0817961489006 66.19408270151341, 337.57246292902425 62.121646462683096 M331.36873890946384 70.48875158320003 C333.28197195561074 68.27696596501951, 336.4084215344456 65.26516588662054, 339.8545525870424 60.86957405661537 M329.26771770285995 80.66067169137905 C337.70169316713543 73.8880980478544, 341.21949512007535 65.40745078059237, 349.2484050339732 60.60162186708894 M331.8376753890894 79.4068494893758 C337.0428617618714 73.2486088655602, 342.0686309653806 66.33276171030153, 346.7909491836876 61.88729387410069 M332.6192532810048 90.90528051402478 C338.54297374107284 81.31779259816854, 347.85643715457377 70.62343376995187, 355.42047199733264 59.77636265338574 M330.85337800751535 88.14452687991879 C338.7690637913878 80.44989242762759, 343.08985691779566 74.05306200211936, 355.77358103432937 59.96245647586659 M330.58263901813524 100.9057178041918 C337.59772986549007 91.08057582348735, 344.2511291981747 81.97639108509134, 362.3310724246318 60.967797875963704 M331.4557723268985 97.05167030363137 C340.1742611992004 85.46637963184094, 351.3792270383393 74.24094255009146, 364.193311076121 62.00146137970999 M333.16234954182545 108.61842412741852 C341.023332252912 91.67397338588381, 352.44174196141427 80.6195081954421, 373.03374325922306 60.57528896728903 M329.7661427748094 106.27421252750814 C338.651272011361 98.04724859167956, 346.1986453514051 89.43531409957328, 372.03422076683484 60.81106054015201 M329.040702084433 113.57664651505077 C346.2682284092793 99.29695557681018, 355.07010233553365 84.57903311799244, 381.26042512533706 61.860515881074186 M331.5336110214457 115.95017125145924 C345.28872349600067 99.68742755695202, 359.3279186922896 83.40221143145281, 379.60817824947077 61.51019380285951 M331.7209772375791 123.42287737915369 C344.71189907763187 109.66876430996494, 358.2754633632929 92.60107526802383, 386.37899897433357 61.50324467219183 M330.3617587304968 125.44540619402515 C341.66355196438036 112.83877446868479, 354.3678693864742 98.55458824501501, 386.51758580792875 60.62985182045629 M329.6754415329489 135.7367793323498 C350.9232654526884 116.33518058687447, 363.6124628635949 97.00704650783776, 397.03187993793716 61.89298722220105 M330.59930699732075 134.23660906315052 C349.4230841011071 115.6375244128778, 365.4118361952806 96.18603948013484, 393.9222341346737 60.969778779675714 M329.44543915359367 141.3440993741511 C357.3616799009233 114.05112544482634, 383.2372291120828 84.25951698584782, 401.4583129215995 62.311473767573034 M331.12415228582694 143.9565377280956 C351.79827404284447 121.94530468603153, 373.74567434886274 98.62163623596217, 402.6421065429338 60.60531921824278 M332.0135181938275 153.58161225966782 C353.6679737260225 131.97250718068338, 374.5777592994652 104.82025927368622, 412.5659209093917 61.18389758405672 M331.27698940921397 153.2207536447775 C357.80673481639707 121.03343169904556, 386.4275926644578 90.17107344287331, 410.861730344406 61.2612706199438 M331.8546619931924 164.28344224150695 C353.22708073636767 138.6318128768584, 374.35966177808444 111.27324520649925, 420.6146912054562 62.832926973617816 M330.57493494233853 161.95759223588817 C352.35699068262994 137.48205781297477, 375.27929434435146 113.16931580298848, 419.6670999659872 60.78719655825424 M328.737036868447 169.78671507317134 C364.6779524710584 129.6125286841082, 400.3267072159521 93.42294588621408, 427.87216508997733 61.987220983662624 M332.44478605037966 170.7013168562496 C359.35308684937104 135.74122947660032, 390.04269147145317 100.16666613767431, 426.3161828556851 62.28573395500951 M332.3973431405338 180.90342782716135 C370.2913345909581 134.53928607858865, 412.9802480571066 86.2215702714399, 436.3728612804019 62.28731702473281 M332.02759058340865 179.82840660592728 C368.62121927253196 137.31010711214725, 405.15802081497196 95.06132257966273, 433.8296044043601 61.337887942253474 M334.39411613962017 182.7631128515692 C356.07878982861786 155.97944316313414, 383.33896937291036 129.9017020426262, 441.88473862634874 60.736994125079555 M335.2952747310189 184.12784902510165 C369.495613454655 142.4874632698322, 406.4010429511031 100.54261618863714, 442.32874841200197 61.99529273526398 M343.9330678848277 183.81306375637436 C368.6395953648531 154.75355434744597, 394.5127790403807 129.04676062911605, 450.10170938618006 60.94065827274138 M342.3880931200746 185.16412753292568 C373.936029656082 150.16615335850014, 405.1872897707874 113.44927385287463, 449.3946282553957 62.66640778240052 M351.78460811434115 187.01888456139073 C387.6276800588108 141.78547654079338, 424.28707449433716 101.8467528522048, 454.5094786293683 67.81953895250588 M351.62265074068887 183.8635012810059 C388.66876451827613 140.57577061184534, 425.68251677606077 99.19734002717718, 455.84887105432637 66.04910432604812 M360.68181750317734 182.15234360939118 C384.16840763976546 155.04292846213795, 406.9829551520639 131.71978380177927, 457.42236325890735 74.21170997731663 M360.35876278395506 185.33412622381005 C389.3361093323188 149.63916402720963, 419.99077853064534 115.4800642829966, 453.87487160770945 74.36219061188982 M368.9333776759877 185.07557950152582 C399.0280325159944 150.76470030266057, 425.4580855951609 112.48108315096735, 454.17085766732316 82.53401900228081 M367.55602432350736 184.29293473976136 C389.5853085143141 162.14174153123042, 409.006183250265 140.04136911695448, 454.1478598624683 84.11359216980127 M374.4706336183449 184.24742164163874 C406.00714566310137 150.36399065441847, 429.6106402335217 118.0165228581898, 452.9449632632986 94.75011326537098 M375.0439200361688 185.71545973947562 C405.7641044612585 149.75520361324507, 437.3208021680876 115.00621531732627, 455.04217300516063 91.31730534416864 M381.53328850716014 183.0471876373127 C408.5032818478046 159.5040347044445, 428.71420734278956 129.74539291882783, 456.7670580541471 101.2388558494134 M384.0416679643192 183.67869186567913 C408.4880643768098 154.45290370001936, 435.1014189364911 127.5798070454053, 454.8519813818344 100.35024530639467 M392.0452250486346 183.73179517784254 C407.8694361886626 165.62499643009866, 426.1901695608349 143.61359369679585, 453.12639360812045 110.70722791546604 M390.11748071029535 184.2677391888596 C404.280916775662 169.5128928541486, 418.7820583803131 153.59928863442562, 454.3763178491087 110.02706273633453 M399.07225512386964 183.93638224276953 C409.56586665864046 171.73665375874455, 421.18653058689915 157.21337213659308, 456.0510902807215 119.75555654840198 M399.5267320567691 183.08282489642824 C413.6810885166838 167.91880146926906, 430.5351196347684 148.74605883033595, 454.6471587275451 119.79839750464184 M404.79154416922006 185.22395074428607 C423.33298534819164 163.91324723219074, 446.14848487123584 140.5960309991669, 457.32728517389563 130.08566240058192 M407.9078897299278 183.0917841970026 C421.4926280783486 167.76467849167219, 436.2308655008446 149.11907863890897, 454.4749091941668 128.42011290177717 M413.0732826139053 185.6745429389743 C425.8536119749197 171.57086865031906, 434.1831523744273 165.2180848917774, 455.87162243461944 138.6264477756463 M414.55135234379577 183.4346625372583 C425.0962496183827 172.91523747928213, 435.80942896384454 158.552075897271, 455.21638491518013 137.54345626878745 M424.25649249491073 184.16928360712774 C431.34261545112173 172.19418290092304, 443.09100030398326 157.1173172533421, 454.2592817967548 146.88674974467298 M421.98808201713314 183.85410076692276 C435.5664374548823 171.30982793519757, 449.11459925726564 156.05517982259784, 455.3806099706554 148.17434662854174 M433.24016732117826 185.18417395655578 C439.0977954134625 175.22041864383996, 444.05285609109825 167.1016756487203, 456.8745450694289 156.14425449092354 M431.59730723363447 184.3132881911451 C438.92309771046723 174.26895243224217, 448.82660889536305 163.72501786708625, 455.98671284189106 156.5322973780761 M437.16315085778905 184.82272100179944 C441.2819359217059 181.07519493217794, 449.34406650740317 172.68461512500215, 453.87701193356236 165.0777350395158 M439.33041308695357 184.75427464304175 C445.01552552234017 177.78425225924684, 450.56665075507453 170.4349147355177, 454.04160204526937 167.20159545414216 M445.34919494368916 183.90440975857624 C448.440852018579 183.1703807203721, 449.9399075944748 181.17848465831162, 453.750813232201 174.81073698724825 M447.4239882885502 184.35038904255376 C449.1995720247538 181.74967020472351, 450.8057564001952 180.7509245668069, 455.5721112155527 175.32726324566627" stroke="none" stroke-width="0.75" fill="none"></path><path d="M328.95670868978453 59.7207341942687 C367.7671630116712 60.83255522716679, 406.4011518206769 59.823467654952296, 450.0274678992426 59.09702163465076 M332.12419089979255 62.32771148216006 C365.09047502606165 61.29023490581217, 398.0402061907292 61.228574773481185, 450.2125820299926 62.21956207202455 M451.5827877986464 58.86540516577886 C451.3935063084228 84.34422849818081, 452.3188228853765 112.64393824493615, 449.31172845639105 183.35957571844358 M449.6429810979439 61.35507301817786 C450.8327825188268 98.7932951105153, 450.7958210208005 133.25982543134322, 449.3193263261649 180.01470074933357 M448.38093971997404 183.40411204466193 C408.7557203844021 182.18974104527604, 369.71330042199367 177.46480765659433, 333.50804565747137 179.0779572980519 M450.32533103670613 181.27305077718003 C420.3351067540831 181.99121407421066, 392.7716978640163 181.1683527139339, 332.53261868911596 180.8311555948255 M331.5269166267611 183.06754044215873 C333.1996651669514 149.0176214476194, 333.1585941595817 111.8210079940103, 328.99868897673036 60.495564328352536 M331.6434710448098 180.39407285672286 C330.3632041608347 147.93843551263535, 329.86640867243955 117.0478125839599, 330.00378933787545 61.11138609699353" stroke="#D4CFC6" stroke-width="1.5" fill="none"></path></g><g><path d="M61.353130159770885 196.4348656530732 C61.353130159770885 196.4348656530732, 61.353130159770885 196.4348656530732, 61.353130159770885 196.4348656530732 M61.353130159770885 196.4348656530732 C61.353130159770885 196.4348656530732, 61.353130159770885 196.4348656530732, 61.353130159770885 196.4348656530732 M60.410397010082264 204.34290687938253 C64.79781255594796 203.47562983916072, 65.34489822203535 200.31724186446883, 69.81206704339967 195.46550115427624 M61.255502822182336 205.81337177022328 C63.479510270659524 203.50646805503388, 64.49946884752805 201.3652071265201, 69.15935376000087 196.59737930977008 M59.40288110024206 214.68924777476855 C63.68488429216417 206.63656424062705, 71.95762807272799 203.0738409154313, 76.81024201540014 196.89964090574793 M61.77004095470263 213.87683871189563 C66.14818423933004 209.15304890893717, 72.21454631788721 202.1624282232439, 78.76141989569298 195.84417565171668 M60.60233917627623 224.3593796608269 C66.67190460899337 216.66304603283547, 73.96025836889974 204.64695015991379, 83.51223598063278 196.2198196789336 M60.68536872440972 225.15918693720076 C67.29576951780473 216.0842353396805, 74.40181981123256 209.3810572691358, 84.52593112757604 195.79986164458728 M60.894034954345656 234.70154246691527 C70.75909277798176 225.02185077306373, 77.85916690495517 211.7115226730415, 94.50504480617985 198.04095925156903 M61.16786130591973 233.78916622463552 C70.25323845984991 224.50425100710925, 78.5342434448032 213.75559143677737, 93.95200194476152 195.8958168100235 M61.80024864904664 239.97419926164102 C71.738852281899 229.70843026150823, 87.4972565739974 214.1125473675988, 103.53134917577665 198.24167268760758 M60.50474829733298 241.5246824122683 C73.13082079516583 227.49307243340593, 85.64668273238895 214.41394715263758, 99.82617376603096 196.50167034229358 M61.01495324236596 249.3042658834051 C75.06070301043573 233.0903135870479, 89.9558781712004 213.69571582172148, 110.34251469098965 195.86627652552522 M61.92873787795316 250.74401818063004 C78.28229626771245 231.33018238606775, 93.22972277064474 213.90590576638522, 107.86049568241727 196.45536137387583 M61.92088073006786 259.8024631450171 C72.7029415375384 248.07209877886123, 87.19454938239288 232.18362381803271, 118.29565105156729 193.62082378119175 M62.22333369636055 260.6573423827954 C79.83619980468856 241.19936422566892, 95.69420427516712 220.7270058627674, 117.74096669204978 195.32907509165477 M59.23335780658687 269.9393930272292 C76.93748571424864 253.00623247801838, 90.3974308952809 236.49547643666057, 126.18281605799865 196.22292267745553 M61.40810867848061 269.29257559310184 C75.23565512399696 255.09232960862877, 89.70093187327195 237.49530801502263, 125.86454693913134 195.7605913146697 M60.6720315514701 280.0181029473112 C87.65180460849146 253.49308774066606, 108.93855208572006 225.47435460107425, 131.69973601506783 196.4624139808814 M61.92608598449965 277.4113946606782 C87.95893646101833 245.8743999606398, 116.05893546476322 214.7847430462371, 134.06506881860173 195.78287718952166 M62.40658937337012 289.01887755764227 C79.86154874578081 267.3597957376548, 98.72073766709687 242.93168441792204, 138.95407336783845 197.37003212009026 M60.68302211450298 288.2033402485426 C90.90249096721989 252.8141243952961, 123.29326215819783 216.95035834440017, 141.6761010754504 195.89812611954602 M61.3775101485811 299.0792525690254 C95.7375516503069 256.040382130279, 129.21234608659975 214.7493381009429, 151.29835442299608 195.31105725765806 M61.420586267804985 295.9714651066038 C82.92310491849273 270.74264953187856, 105.54390526983106 245.06541275293657, 148.37942727845055 194.6575725939506 M58.85531191316929 304.765273678294 C91.37091112869048 273.0571973702693, 118.06920482767073 238.78682977750418, 157.93197794107743 196.86790784883726 M60.803442911877596 306.48347851097844 C82.54149047452346 282.11724744207, 105.94737202502614 257.36017794453556, 157.53546485480987 195.29743757335527 M58.54541779049872 313.80887485209917 C91.00923043503117 280.2810072105228, 119.45609681723934 246.07886669272025, 166.79181125639232 198.1560363165599 M60.388444623910864 315.37895619870574 C91.55266409460758 278.837386517691, 125.37784989962455 241.88769268302556, 163.933846867687 195.212884722724 M67.01652852714287 315.1430592714486 C100.4878951169262 282.9574254541931, 128.48518055708396 245.07280670841504, 170.49032941620038 199.03481514176352 M68.40292166510517 317.1290330315504 C102.16941477433514 277.66089170778923, 134.9982033236334 237.21478000554742, 172.2590508689801 196.00711216058434 M78.30299246770171 317.49421001615605 C114.32754703456375 271.52145760026235, 154.3763330352043 229.2755390858667, 182.43470668626873 196.98720819199912 M76.28944275282723 316.7810207780862 C106.55987190708736 283.4543538242063, 134.61855237008913 249.76581662694966, 180.86500129297772 196.87913003077216 M87.14582196301704 313.8939444161701 C117.20090940597684 274.40421292289966, 151.95296548249132 238.43053896914606, 182.45991279301964 205.19907301037478 M83.57006336336575 316.79930247143835 C107.13233471336875 289.81540102883923, 130.87924535911645 260.95750776160827, 182.49035719127184 205.01391205046153 M93.50376307066487 314.32430594913734 C114.50191409933464 293.5290421752954, 135.3885357443555 266.70851718006264, 180.5672288506517 214.94245286307492 M91.71122605306482 317.370494993013 C121.92447395418873 283.53207791605433, 150.39192929161035 250.16440540637512, 182.53858556266553 214.3305790455998 M102.27591128730445 318.53420227666203 C127.62650586168928 285.4101063043338, 153.07291484767387 255.3110069913466, 179.50762204670855 220.89497426334233 M99.7299547410517 315.81028802496917 C121.70232267836593 289.8937265318958, 147.04624289470783 262.2309546235431, 182.12455730548785 221.6807888465245 M109.9866608768503 317.0752248571457 C129.66498885848765 292.937915627531, 146.48549897084948 271.80244817831186, 179.8133989706711 232.0459001860861 M109.33213171888241 315.5140844516072 C127.87697601796407 292.70114051242496, 144.8187519713552 272.6320819241895, 181.99126544645165 230.89922938332313 M115.06262858135231 315.8848223836431 C135.31987705287244 292.8862209444017, 156.54641580312807 269.2180866428819, 183.1194944846576 241.88123773126398 M116.23858616901661 315.85119477120696 C138.8853134852452 289.8820695774362, 162.67928910569333 262.5069292450316, 180.3655653113623 242.2184795699871 M121.85615094645397 315.28617124297693 C135.91082466395022 305.6918984784661, 147.57525573821135 288.2599452330082, 182.17931557408795 248.03993221166394 M125.3737885964945 315.0993256621075 C136.04083306418323 301.22334040578204, 145.40602666359243 288.7199050009827, 181.11707015308417 250.01302310732464 M132.4630753966719 315.78317003661147 C142.63323577282063 302.8702982553877, 159.3313229290755 288.5195665015298, 183.44209357426968 257.0573951418187 M131.4955317529689 316.4869968405458 C149.39399650699988 296.3106146744998, 169.36549575520198 274.93706616391614, 181.5403463726457 260.5627119112602 M137.58800738653173 314.4634979663392 C154.27653586879853 302.6497380405668, 164.66462726942072 289.35182617544604, 182.7744681753219 271.0962257678011 M139.49696673713495 316.5640795895591 C151.58588548559675 301.9433193525953, 164.04825402619295 288.4571979756027, 181.4713104501805 269.79785700981165 M147.8067567792357 316.1764204615312 C159.5864460451423 302.9231935821429, 168.010906321771 296.1527911786461, 181.61440354902024 277.4485049600459 M147.11484444243027 315.5949108797024 C154.09375967561388 308.319809849836, 163.0956162437898 297.64031112240843, 182.3320161203189 279.04483279639027 M153.78892264907267 315.55342272476827 C160.24570291272278 307.2569933814243, 168.4696511150806 301.6969454880849, 184.01277795612833 286.32866475924124 M156.47475326686381 316.0187700619008 C163.06590486939194 306.4172264591259, 170.98797089443275 297.8811190407463, 182.51011722693985 285.80962698125603 M162.33309852807628 315.4233581544014 C167.36052915663376 308.3542201175872, 171.8221148770902 305.43554638511034, 183.37214513621825 296.05163668384233 M163.11255365673705 315.8387001826085 C170.46426398033012 308.7882715867995, 177.01376204224627 301.7586507593556, 180.87151527548394 294.67848091796907 M170.05508852827694 315.0439020582168 C171.9947005391613 314.9082707943096, 175.7224232250846 311.35769144091165, 183.1144128010532 304.26055061370823 M172.17664425541872 317.22908047855924 C174.76845569067797 313.3230269051318, 177.31729833460108 310.93891923104326, 181.07241212386353 305.31007153722686 M179.60303764834583 316.16465045796326 C180.1208873967291 315.68379003336435, 180.4903446816938 314.92561915979127, 181.6505754283431 314.053050784965 M179.7914167574082 316.5855757635545 C180.0282763418641 315.70766053945607, 180.89114641793716 315.04114056027, 181.66507403092544 314.2840991915156" stroke="none" stroke-width="0.75" fill="none"></path><path d="M63.03153861969215 197.8371159594616 C101.22382287658263 193.40699654729767, 140.2309799233508 194.82667738589754, 180.897105127167 197.33899098144795 M60.493316015717966 196.60867270208763 C97.6097268252263 197.9455994055775, 132.22943236781572 196.68683975709055, 180.63785353436987 196.28181600546924 M179.77642462175345 194.8683794257289 C180.24527710666837 228.4699658846195, 183.78586946945018 257.5884968052791, 181.29950874929912 317.7521188016299 M179.4581209726844 195.47577602869555 C180.51648215551174 222.94070870784034, 180.3270950237911 246.84912508048356, 180.93989698660843 315.9576201608252 M180.46691470549132 316.08194929347343 C142.8118303346876 316.68049404177265, 103.54481828094595 317.2736983115875, 61.28554447779233 313.8716872096851 M181.18670558652047 316.1216785984161 C142.2225852444527 314.81587087967364, 102.24803243968961 314.8092386063466, 62.33695645186468 316.8239343268155 M61.6202666952562 315.8349418320595 C63.296840374753934 287.1344998164569, 61.84622122995608 254.98100609766655, 62.363387600486114 196.67122527114788 M62.40552727824004 316.03241413479157 C60.51009715130485 290.4037524632898, 59.47807441673489 266.4856337956491, 61.97028072133875 196.8181775325804" stroke="#D4CFC6" stroke-width="1.5" fill="none"></path></g><g><path d="M196.00326214746076 194.60771145901788 L314.6825024482415 194.62129501743345 L317.2444280006263 315.00332245853474 L198.3771191164006 314.70498646490904" stroke="none" stroke-width="0" fill="#B8860B"></path><path d="M197.15938104396704 194.23483512713824 C228.40582677821095 196.2166793461976, 262.2396086413266 195.0273826725689, 317.91849673421916 194.924129554373 M195.2030793549548 195.31333297387826 C223.71632898331626 196.51057698520006, 248.3264928794869 196.3672448946569, 315.9577048754617 195.25007818836062 M313.9115342502213 196.19464745218465 C317.137654359142 228.27263442700865, 316.0568803245822 265.8378802697551, 315.9274677602806 317.67673871732086 M314.79380262297013 196.90389129137608 C315.0325775418108 236.34296013670516, 314.56449129784085 278.0411939812058, 315.91485278296057 316.0135386201798 M314.52181001993586 315.3936045165093 C277.51154225175947 317.3960635446688, 240.68058258514702 316.16975290367975, 194.11012860547473 314.7247193711047 M316.4536688264275 316.5996545763802 C271.7304509129743 315.08424850148896, 226.49582103248824 314.32544824844587, 196.79714862174347 316.2331699949697 M196.6945422735405 313.32580336379317 C197.38335618677033 269.189289180452, 195.3400386868368 227.97542437393622, 198.02560029501572 195.9819688087719 M196.80937151997264 314.884168515857 C197.13376480645323 278.14659184447675, 198.13347385695172 242.51257384839255, 196.79813321577325 195.8009912557187" stroke="#B8860B" stroke-width="2.5" fill="none"></path></g><g><path d="M331.1442578002253 196.43341506866545 C331.1442578002253 196.43341506866545, 331.1442578002253 196.43341506866545, 331.1442578002253 196.43341506866545 M331.1442578002253 196.43341506866545 C331.1442578002253 196.43341506866545, 331.1442578002253 196.43341506866545, 331.1442578002253 196.43341506866545 M332.53637450493727 205.7262159035814 C334.5949497079771 200.95459058540672, 335.4536704927184 197.77870606971345, 339.44641065619993 195.55559170485319 M330.5054973438524 205.05521480431844 C333.47985177274876 202.58005552405558, 336.65663455894804 199.72438566647628, 339.6613229515243 196.5502762238026 M329.6231110315105 214.72947220043358 C334.44110325291285 209.85593525556726, 340.96283334305264 204.8432068478327, 346.6011933190446 193.375916686192 M332.27789840306406 215.6170423034139 C334.2387391415248 210.16225263939282, 338.3043114741718 205.34832773179153, 348.09198370901345 195.18966579557377 M330.01199231919526 225.9901988414701 C341.1095935698249 214.58901951617548, 350.0131175611969 202.20664533502963, 355.83679375083744 194.98789419196953 M331.5611254195694 223.6738462407028 C340.71326743998515 214.28254005256352, 348.0965168690956 204.9648285556165, 355.45945324568254 196.24983633968094 M331.40399378762555 232.1616098392534 C342.48475687301783 222.42523282498277, 348.3091435347941 214.0670468031376, 365.10473111929855 193.9538352147007 M332.1088137898141 232.03537845904614 C342.4262318690297 217.80411369468916, 356.47973764851247 204.1139895938587, 362.5933888352387 197.24213403754206 M331.2124046370846 241.05772662620492 C336.46824379186836 230.6792699644413, 349.2669748974172 223.17735188749057, 368.8160385025869 199.1190775560269 M331.7036869066772 240.56424883790143 C343.4086907357185 229.69884098249923, 355.87158723817436 215.52445849657306, 371.4502223432801 197.41647220235131 M331.80585110666516 251.33686391825844 C343.8905635012213 236.13270845460693, 354.46287950859784 221.07854088020622, 379.06210234817837 198.38407427089072 M331.8756621971576 252.2466344451198 C347.3189187850665 233.9768412055502, 362.2632425058386 215.8614759468518, 377.73709956350916 196.45034419179632 M329.6457140442699 259.2240355914098 C346.93682438403454 241.75397852511423, 365.91695561412433 217.61792800971205, 388.1918958370155 198.24262396311315 M331.8596857103741 261.2583672816353 C346.4171722513865 242.632500843068, 359.7800895373673 226.65552123291914, 385.8775240371221 195.89094974081354 M332.6171721203405 267.7557562481526 C350.9078060690131 250.4647555861202, 369.84922515827986 227.27136458602448, 396.103353756713 195.88900783621372 M331.93592704175285 269.071516855808 C346.74125770096737 251.45096616836165, 364.3300067034267 233.4281215276584, 393.9691434812739 195.909269686581 M328.80319430242065 276.9963493515328 C357.16063101821004 249.3346689760196, 383.77337532300686 216.2248340593365, 403.18567354877547 194.65267920484365 M331.46042256073554 278.6763820125055 C349.2136183983549 257.47473334001984, 366.88066462491236 237.89255621166436, 403.27899327243256 197.20728509358474 M330.7604115864238 290.46534568202003 C356.0451131221375 259.25435287584156, 375.30829258982243 235.35240647746951, 408.4632059501575 197.85418994429423 M332.4747614706774 288.4931506012698 C349.05707249690425 264.9422055850149, 370.39596937116175 243.84005643189224, 410.0168501733033 196.72780531957943 M331.47988359848154 297.8609763856317 C359.4847938393353 262.821830674143, 391.12790467784697 233.3919602798476, 417.23522491280204 196.53459302211715 M330.44072517399985 296.43322136285684 C351.9751920182188 272.02851999152, 373.5747150527297 247.36727695690362, 418.14754052127216 194.74718422067363 M330.2507794319814 303.7107041107851 C367.18827587607194 265.01644202790345, 407.120775120559 218.83964309093372, 425.78025256885485 194.21555361537798 M332.2341753055233 306.86520703977754 C365.90635136181527 265.36879667527467, 401.3305831006489 226.35606485977448, 427.37747186475235 195.9392376297071 M333.39774637799906 316.8881668402755 C360.5383749808994 282.41986203482287, 391.86414991282055 245.8289165474437, 433.2281619950929 197.0153210736284 M330.932712957504 315.1632533914998 C366.05513253723706 274.96799554813435, 402.26482826214254 235.48615471261996, 433.8781680436664 197.4939695823607 M333.37278255342954 318.04037796090466 C361.44757740954464 289.4781767862808, 383.99083661160444 263.91672468385497, 444.4934826361968 197.09220701142672 M335.59253753457625 319.0440173660525 C366.493672548958 285.99703537770046, 395.4993505999905 253.45583451418895, 443.61788424367853 197.23924768095733 M341.2987910277691 321.1450361215559 C383.00654064807463 275.3736636419383, 417.6864568936355 232.80385438264426, 452.4858450960136 198.26359592619755 M344.44968973175503 320.88903287795995 C372.2055842661796 287.9859007493362, 399.993257698158 254.90980812129146, 450.6683302795278 197.11145475445997 M349.74093258047674 318.62434835592035 C387.7441776173752 277.60898817255276, 421.3283286685828 237.17101367458758, 452.90687189472106 201.609122777026 M352.8064648637839 318.06264147843643 C380.51229536633986 286.80580117028796, 406.84057973359614 254.86425641580456, 453.83232246169723 201.15360015884207 M356.9938958526859 319.951842437683 C387.31368569716074 286.8172085054615, 420.6965782190376 253.50165341872324, 455.8045586132476 209.15359654820014 M360.63408853765594 318.3922536678465 C389.088772048022 288.80496266139596, 415.91431797971416 255.43446759430347, 454.8914507157072 210.0439672290364 M366.89333219776347 317.7266609617555 C385.4828686423884 295.4304010447969, 409.0692264104313 269.8542357880856, 457.54790543780643 216.16821882115258 M367.34877562033506 319.205573047997 C394.9289697214415 286.858459926264, 425.5806292834989 254.02077739934438, 456.00806165408665 219.48416520026774 M377.46263133652917 318.06526959334013 C394.19607867671914 296.2881861060747, 417.32838247037955 270.8110924585278, 456.3968439294756 226.9568029078194 M374.68461150390397 318.28510432528924 C395.59403648184747 294.3221603950781, 418.10318598139963 269.8321121794204, 455.2175097822462 228.53473096846062 M381.3498720382782 319.48201556029625 C404.23452543041344 295.4417843505324, 424.284366761555 271.56555800079985, 453.4317658057421 239.2948136208505 M383.48712617358836 320.3979973003634 C396.5832610559758 304.2672652062447, 411.6794106236992 287.2196276358731, 455.5299336663702 237.8062834157817 M393.17812210476455 319.4134359422607 C412.6770984289248 292.29782517223873, 436.9614898963202 269.75842404923424, 454.1554502082893 245.59506862526976 M392.0263948034256 319.1388081044019 C407.6836086544165 299.8777094735218, 426.9801728121552 278.8473647650225, 453.79368608447464 245.0596695603507 M400.4626596243479 320.4399944281078 C412.13004625852255 303.90252964794706, 423.9510767599527 290.45598402445125, 457.1841824843667 256.41886826739454 M399.81587285881704 318.9556189012106 C422.3968895414245 293.5913377012346, 443.615682001768 269.5598611629705, 455.88045168493744 256.1046634297043 M405.14055110015454 318.3661486650574 C416.94222906501 305.10548338531595, 430.9942352483804 292.8570662405981, 457.2220395916916 266.59784656658906 M406.5772746860517 320.21935982048063 C418.4364213004841 307.2718666440771, 429.23528651048406 295.15926186600115, 456.253665796146 263.3422634216261 M417.3506743603396 320.14193363342196 C423.12607005740455 308.10232710332645, 434.0674441084449 296.1726890151036, 455.2849621705688 275.151745587865 M415.3339972401816 319.1374782876319 C430.34282162253174 303.63551185055115, 442.87623933956274 288.1861991088301, 454.01249966859933 273.50263671593854 M421.8356973290645 318.4173447293151 C437.9867396178853 305.64534142353534, 450.58291128212625 292.2079272367709, 457.3407712898937 285.036935244289 M421.4538010432182 319.9594123781046 C435.5194686988891 305.32590386959646, 446.5390862895367 290.03690992152565, 455.45125448726714 282.2511348610468 M433.4130900256445 317.4918536229202 C438.1604119468534 311.43984947873435, 442.42711263072994 305.48091422001346, 452.71257398611084 292.53673730152394 M432.44647962302093 317.98286183061145 C437.39236504911713 310.57835674290686, 444.8158450719105 303.6028022410854, 453.5878591370687 291.5852209836626 M438.7248312072186 320.78573453664956 C444.0197368768557 312.7213175119747, 448.7241387297255 306.8242751855183, 452.7040130688219 301.29731502257175 M440.2564327295365 320.59020937633017 C445.0760480662999 313.6485141486083, 450.5832162183004 307.5785993608343, 455.4938209507954 300.2978064919904 M445.10317118917817 318.1300418648996 C450.0108621023587 317.3014484107729, 450.62691352600126 313.0425491809762, 454.294554134468 309.69613416625845 M447.46613659441135 319.0173178486712 C449.6723073510081 317.1974195100874, 452.1462277517047 313.6591860703587, 455.9600478429307 309.3856397572547" stroke="none" stroke-width="0.75" fill="none"></path><path d="M329.17140777761807 198.91128158246227 C358.08246233070184 196.98949529937124, 385.89139334043483 194.9707603693618, 448.9084244562122 193.72518586332222 M332.33516254053814 195.6858982452902 C368.5173651515792 194.01982621861427, 403.93229961067806 194.9498238517271, 450.0558242027822 195.38905167032325 M449.68991247870406 198.14333045932676 C450.83388652162586 225.31260526262773, 447.94111904201725 256.80198480669816, 448.5472509229729 317.6132093740487 M450.26271457595334 197.07837136668363 C451.2529315822125 243.1392220259222, 452.8044682486827 289.318278298064, 451.2116329435006 314.90707175283757 M450.97201121877976 317.94651473543433 C404.83560132214336 318.5681244377159, 355.49871605864826 316.84624587875754, 329.0599202123067 315.0563704516177 M449.81940771840266 315.5198038918983 C406.2351774696977 316.49462662477134, 365.0793753925126 315.34161249251684, 330.4807654815456 315.86309967064915 M333.6149145751563 313.38291162484404 C332.2997203163789 267.3779276034303, 333.84404357967276 225.69345543018275, 328.6575936261893 197.52318431385487 M330.43564090948695 314.36391945900135 C332.2013914977647 286.69427412556445, 331.8950629838127 254.74159657978672, 330.1970438408352 195.95831557393558" stroke="#D4CFC6" stroke-width="1.5" fill="none"></path></g><g><path d="M61.2261817602506 331.47583641456197 C61.2261817602506 331.47583641456197, 61.2261817602506 331.47583641456197, 61.2261817602506 331.47583641456197 M61.2261817602506 331.47583641456197 C61.2261817602506 331.47583641456197, 61.2261817602506 331.47583641456197, 61.2261817602506 331.47583641456197 M61.27030212621572 340.35325053506534 C64.72193634866788 336.08590487234784, 67.24655566592394 335.4824075960806, 70.53544757350556 330.81247569682324 M60.38849137205062 341.35562669371944 C64.60270359770634 336.76758766082133, 65.81703324236828 334.84457199684823, 69.93589022325651 330.59410163858 M63.186325310320754 348.6560099437653 C65.04128832192298 340.92179764735056, 72.40065604033875 338.0237203564174, 75.68984266508409 329.0452272288954 M62.99962142421003 349.1509841541129 C67.0848669922371 342.80166186881, 71.30414645485745 336.3225299477164, 78.15320074903849 331.07787294848634 M62.47974182587651 359.552816276358 C64.73835436329072 353.2648515156865, 74.95963846777231 347.353335605335, 83.82329513632229 332.8663355896059 M62.51382049871626 357.17599542864866 C69.86867141488732 348.9268937772975, 77.98764861415435 339.3618564667498, 85.11881557839101 332.1139324929085 M63.49030935030461 365.56634481235494 C71.15726457410125 358.4583254126262, 83.4500223243526 344.306848454569, 92.61991141819453 332.92995786552683 M60.798100554227155 368.5889067655178 C72.82024793555077 355.83730456653285, 84.11675320779388 340.5110084815909, 92.43499050463365 331.81260969727236 M61.76443358986979 376.43697294782197 C75.50593702870547 359.4550316677312, 87.77317292541348 344.420311860927, 102.88471916256513 331.1649404629124 M61.61879337570137 376.72225324927985 C74.29332095128245 361.55295035978105, 89.66260122225816 347.0998686474117, 101.04016330096964 331.0560534603168 M62.396218699589035 384.53931280942356 C80.63409087862385 364.7292266943695, 94.10358158056266 347.59377566686356, 110.16399025880882 330.6035832769239 M61.09805327034951 384.9999667300508 C77.67893581686752 367.99791571677616, 92.16595649944507 350.2157573610967, 109.55086687140358 332.01690664988297 M61.18306510494154 395.4586729144007 C76.82293483245944 376.579631836321, 90.33350331323427 361.33339030099324, 119.39773434787148 331.5259034264402 M60.621936611317146 395.81651266289987 C81.06870572794107 371.54230434417053, 102.27474811417859 345.53230513358005, 117.99270845794436 331.3411356185724 M62.38556734986383 404.88293754323416 C82.70135302076571 377.5764191418808, 104.76341778189801 352.7863271424013, 125.08168547223397 330.08619860461414 M60.18750894781571 404.2945651014264 C85.49143767092245 377.0179999037324, 110.7783951238826 347.1241441540544, 125.1935765084093 330.1702101586858 M60.07021720156986 411.6418684610119 C83.12738581835275 389.2933370554236, 104.29294298446189 365.6636854312461, 133.0952633087315 332.83178900057476 M61.25573269615603 413.6991845241223 C80.72771587973196 389.5767934634156, 102.76006757494768 364.7638423696912, 134.07140628702808 330.61191099655053 M63.645924262990874 424.9045655534062 C79.88367019592518 401.2782093900203, 96.90666147960943 381.59183168097303, 142.09755139773773 331.8865436982284 M61.457123945110546 422.71416213798153 C81.48157747202033 398.77217359960304, 102.41126501389259 372.7510922238745, 141.1550876919751 331.6174611400601 M61.58210033560752 431.07270793874864 C90.06308204961475 398.80639960984695, 122.16899442594585 363.39593243638035, 149.00960112333846 329.1117571435054 M61.12760542208387 431.14176961773194 C82.12579858436145 409.51434991504647, 101.02282929385335 388.0746356909227, 148.64933289514443 330.22739759454026 M61.584672243418645 440.609463384413 C91.09781567545923 402.4381406174614, 125.94957847561895 362.67934415407944, 158.16360376410591 331.1215511200302 M61.803265662752914 441.97857332265727 C92.4345132074857 407.0034162828522, 123.02962069356347 371.07916234291173, 158.14022312077785 330.8959305376909 M62.38823832276732 449.38430581829033 C97.77674535736013 413.3534966030618, 126.79208233698083 374.11339137916565, 163.92740049141386 331.3812740916372 M60.88021447920096 450.5267841904215 C94.92775929040155 410.762027675446, 130.52549231156223 372.3821729788204, 163.96848138509924 330.7311021767759 M70.47534155193657 452.20269417772226 C97.3762786867479 413.0466156760629, 127.28886008095131 383.1434786293464, 172.43438892269373 330.39794306605637 M69.63625645855822 450.9039570407082 C99.4087331651404 415.39739164172596, 130.88627423943456 379.68218517691975, 172.41332589280555 330.69224389811075 M79.15247193374888 452.37301058550736 C111.82064291257372 411.7688727658605, 144.70707217529457 372.7001134097253, 178.4824920061941 332.4468356733915 M76.24588835801609 451.9343075920059 C106.94441849800621 415.9552855888921, 136.94055179519754 382.99167762921127, 182.11256471524348 332.19210799382677 M84.18373813183788 452.378377544393 C123.60835060457273 408.1889309590124, 155.81623312771887 367.6008500418019, 183.82106829802333 338.3224329521411 M85.57236014389562 449.9048887498271 C118.83499275789183 412.2160365764941, 152.40885374697754 372.92179050976216, 182.51432971150678 340.61584778484547 M92.6905560581686 450.88290155955093 C119.78970726205853 424.0909546616061, 144.32437252960736 392.3708895898254, 180.5744565258646 350.703913789652 M91.56863654977296 451.4478185321753 C122.13945514792647 415.3972476099434, 151.12164906859934 380.3839421116611, 182.14560211683855 349.7170284887735 M99.01080966950448 453.9582105810017 C131.06752348190565 414.3670723356663, 161.76263171360964 380.870060465109, 179.39443647733313 358.9513952156842 M99.08777813077087 450.55314663495994 C122.9417000914361 422.9251783878647, 146.51796022403164 395.6917552260768, 181.8875258592937 356.77828524231404 M109.09892095142057 449.0863699036815 C132.6015490080372 421.79080511400684, 159.91358243857346 391.11128622762317, 179.89582908360282 367.61646007756104 M107.338814453891 451.03518651370683 C130.02868428836146 424.103123615176, 152.84057272996276 399.27252629863136, 181.6508514023926 367.8958923278372 M116.05223952801703 451.220493263875 C135.98957461184233 428.7075987034441, 155.01821142134582 403.6100502010401, 183.5496489391043 376.858491021588 M116.79175494514934 450.6115964965481 C136.35501204149583 427.977737773742, 157.61110512666957 404.18559844981627, 180.38554320837997 375.82013486212145 M121.68615607812964 450.4790961243545 C140.36000552393963 433.4351103925666, 153.53707257328674 416.7961298333807, 181.4975655186099 385.7096922636149 M123.36700691084384 450.8278256802376 C142.19588781328227 427.693889409881, 162.1718919462629 408.086269192903, 179.98483304873258 386.4930817230952 M132.70150707021827 452.7217658436399 C150.4980926823187 432.27090147324833, 162.9573107152021 413.8454318329431, 183.4017104336074 392.65942083683825 M130.9728839303268 450.4425249587114 C151.02311853219825 431.0422506236166, 168.84538544881875 410.3113880336551, 181.72403646235296 393.49325843931365 M137.9067045027411 452.52029819211253 C152.3908792532365 441.3580275656769, 162.80441852424516 425.5701142308183, 182.02061400577313 404.6596569441635 M140.62781515079163 450.91555229017075 C149.42267872984084 440.94874793170015, 158.1775811453687 429.3231591839756, 180.7758816737872 402.08070376503264 M148.24285732221063 449.6403478576416 C161.19084881299838 434.94140091288136, 172.80244397359652 418.14535311129805, 183.5082154324382 412.158888500196 M147.96614594012493 449.71891879091356 C161.1790239879646 436.6853517597778, 172.47764344380948 422.2506929980072, 182.62537739643275 412.6591125579769 M156.90597098551092 449.63516611161737 C164.26984476973024 443.2370697705023, 173.30108070681948 429.2930286923652, 183.1459402443628 419.2473744895474 M155.89364106818502 452.21457867637565 C163.82178914946036 442.3302477639507, 169.53114485477974 434.10657274771137, 182.9253799905243 421.1706485123022 M166.4863357478069 451.1202208522055 C169.33224069432194 442.9793489240865, 174.38607377857957 439.9201883104401, 179.80868752388238 431.93788997574586 M164.40458460853228 450.9747359601588 C168.3164744062785 445.18072080000235, 174.0172708257804 440.4185236112945, 181.0166764014514 431.65991316105175 M172.908255489112 453.2646799617383 C173.36910890213105 445.88702568545574, 176.89911294634982 443.0100615291709, 180.5022328156239 440.4761538824493 M170.75422990345723 451.67812990449687 C173.93990913437736 448.24273156563, 175.22041022742914 446.28130222115504, 180.6250512761833 440.01994578499284 M180.041117046889 450.8984592098686 C180.56238414202758 450.5584764683323, 181.06955560838728 450.1189356659035, 181.69873474798197 449.33270600132334 M180.09837132182304 450.7705275490318 C180.52093705510111 450.2186266269895, 181.15917879537756 449.788916252878, 181.33853569452674 449.3384366313037" stroke="none" stroke-width="0.75" fill="none"></path><path d="M64.03480114857908 331.9553156220626 C101.73801184495808 329.7636099167006, 144.91432992791636 333.2929512566769, 182.91740012288852 330.21482066179675 M60.1376917641294 332.36461174152794 C86.35557018952964 332.1060926871892, 112.01834380086055 332.6576252713326, 180.86833767169665 331.07244542071777 M181.59116207288238 331.71825076242845 C179.6558151581154 371.8842848635585, 178.06265274559098 413.45635053853846, 179.9559461230301 449.3749096748408 M181.7513423857736 330.36568792569955 C180.17407893084584 366.81670514314635, 179.57692184840175 400.5475117679914, 180.8860168544358 451.7058314762177 M178.79357782086421 451.76855341371703 C136.38704176954732 450.16184872088087, 94.06349390868328 447.46542438867243, 63.68012705836458 447.9631525967166 M179.54285149484895 451.41786995496597 C141.51663794900128 448.5221209859785, 101.7053439058872 448.0682162862044, 61.29458817038275 451.2785530474519 M61.85453625089474 451.850014775185 C63.42288942006377 407.9592801400335, 63.21910965095878 369.46738936040214, 63.48664403646819 328.7542603090195 M61.91462057978369 450.86794877914485 C60.09207343952284 411.4336301378491, 60.910681696981094 370.90536025244273, 60.765254206117234 331.45228434230535" stroke="#D4CFC6" stroke-width="1.5" fill="none"></path></g><g><path d="M196.4497750949731 331.0977563322467 C196.4497750949731 331.0977563322467, 196.4497750949731 331.0977563322467, 196.4497750949731 331.0977563322467 M196.4497750949731 331.0977563322467 C196.4497750949731 331.0977563322467, 196.4497750949731 331.0977563322467, 196.4497750949731 331.0977563322467 M196.39540092502634 341.0012886229177 C198.94230626494593 336.6858882163234, 202.6510217762689 334.14534289080905, 203.81187741336748 331.484174399077 M196.61966262628013 340.7829947546866 C198.89822613520857 337.55303624467564, 200.035683409247 335.7566119396315, 204.28111560050075 331.2895766808779 M193.9599731462171 349.66129745479634 C201.5179912836252 345.57463428886757, 202.5714353748874 338.56357904026834, 212.7270588235953 333.3409474774692 M196.83835211630412 348.9311087253948 C201.07155670804428 342.8810832046518, 207.09349364197527 338.49499975675326, 212.37960785174585 331.71041086304535 M195.7226977833416 360.0128354481546 C203.6321035510101 347.18012594942206, 212.76630846448666 339.7201051895088, 219.9682201841231 329.12309592105686 M196.2435779310952 358.8422946437925 C203.04813035719616 349.9823393108377, 211.5148679719712 340.15938169720357, 219.27679875668997 332.3307129536104 M195.77916401623884 370.43945437515293 C207.18226077841496 353.70134640518035, 214.0219093649469 343.10425716324823, 229.48398087008252 330.379772735054 M196.37870843229553 369.0544294737741 C204.59365389932378 358.0710196833602, 211.51705734477122 350.24240602924993, 229.65928666472098 331.55410244491173 M195.9777250454948 377.4309896954802 C208.3931979961705 368.5097635665292, 218.41336016552737 357.17210411171175, 235.3078412596466 329.9015978241 M196.75941852863235 376.48662149462 C205.1436632196194 366.1308693804683, 216.10798479594015 352.7041752681042, 235.90186463634265 331.84119411817136 M194.1378636643549 384.0374515931645 C209.91846308616323 367.6803491310212, 226.12612068840392 351.3492880037746, 243.49516430482632 331.401613085932 M196.16507557479673 386.1493160774607 C214.84004708362332 365.98851505928735, 231.27599841717335 345.09747279354985, 243.0922062463231 332.43324040608655 M198.48166575458433 393.3037702892557 C211.33504447428558 378.80046781601254, 226.26932239521008 360.14720880087816, 251.69961077063886 329.9431374407038 M196.93559008228146 393.8197503955 C213.7322083674266 375.812748413144, 230.87230210157352 353.6519980996912, 252.85115151690908 331.72258715113406 M196.53916599162076 401.54207429896746 C217.7508291015194 380.794602893186, 243.76522266080013 350.4551460799905, 262.02621254679843 332.0647404804824 M197.15214117447024 404.3819589374421 C210.02969662724772 387.68301025009765, 223.28260009620868 371.97339919976497, 261.03264764967537 331.3773968013595 M198.03918424152224 411.5951427609952 C219.29499066153303 384.51952375427663, 245.2907439454066 356.20148949799807, 268.1283134276708 329.5263940984186 M197.65557596412557 413.5704553556465 C224.7121282167745 380.40246014931955, 251.54743057158976 350.49297796724363, 269.2345162718675 330.6236832145833 M194.24057097074225 423.4781062347023 C224.62538893157247 392.4063556739508, 251.71649171107416 358.09902064714686, 275.6296152616954 328.8643448426235 M196.58557708083444 422.88370476253345 C213.6910361143517 402.9108706260285, 230.34303963315978 383.9775286983628, 275.3378991421842 332.34111518110876 M198.31858379296145 432.0542828760805 C226.5693125318342 399.7802184057831, 252.0822616354256 367.28144201907884, 282.78962629116774 328.97874931271616 M197.01136056021147 431.64482115638356 C224.04719966520497 402.1643749591042, 249.58054497751235 369.33696961057575, 284.0044525375292 330.64171707109074 M193.8208199225186 439.0807621944956 C225.26210010344994 410.43219200603073, 251.96131611123624 378.7489804371302, 291.8217668746822 330.37325434318217 M197.18583512225277 441.37037803412755 C223.42642934571828 407.21289750108167, 253.75661387596114 374.2934856724189, 291.4350684783785 332.1444378619188 M198.0106195940621 450.17225206306495 C225.1285434805189 419.0775930725196, 251.07485624284368 388.75880786777253, 299.16417851330226 329.28336228096464 M196.32404593285492 450.16917037616844 C230.08461503396816 413.93257613752684, 262.26118417576316 374.76577324642705, 299.49809322365724 330.96141030856717 M201.63663352813694 453.6319829827143 C229.7987594928857 418.9437948363558, 255.64535783985622 388.8799699389169, 308.8906158417789 328.7685991335064 M199.69304869109453 455.4247088695059 C231.3031049428535 419.2357270825487, 265.18405002356656 381.7113686665916, 307.1761959567698 332.07473421354877 M211.07197981054952 455.7227652488023 C248.02298564396486 409.5994337190584, 290.43454387057983 363.66106287025013, 314.0031728272321 331.7466009813702 M209.36118438006255 453.9375188630733 C242.09372719502318 419.28945748645157, 274.3339243840842 382.7071046713243, 314.90353271459304 330.0281606163367 M215.50461939479402 453.76321616551934 C254.43535399585744 411.84639548343716, 295.48071258982316 366.66828032000575, 321.9418766447993 337.5044486829606 M217.50793214534858 453.6114724275167 C249.92858744339696 414.9055492077484, 283.2844388439136 377.9389075714001, 319.66222118675563 336.1575031814366 M224.90954638617023 452.44915757952856 C243.33275868555634 427.7334470217154, 268.91306901240046 402.0677510881073, 317.4306643501065 342.93075286077584 M224.57134923068256 453.79018549442776 C252.29469031288394 420.27010472747094, 278.2794740538522 389.60801030600305, 320.127795498291 345.3665424941925 M230.15599050573226 454.61325629616596 C252.4625057320219 432.90121543806157, 271.8418976163032 406.75968085613044, 320.4242789693382 353.9623276584843 M232.33499516587145 455.3168429743733 C262.89589482059324 417.7511751638731, 294.7668792014957 381.90897354250075, 319.183038222986 353.1800432227581 M238.45599672465022 452.02637059353026 C270.11884305434955 421.6581265573461, 303.21999079300286 382.9786222538349, 321.92253492053294 362.93753960070643 M240.80325000266308 454.2230886407187 C269.5758962174869 421.7038796974667, 300.27238758548776 385.5378511019992, 318.92867182463857 363.55251284502117 M249.34263657850164 454.6885539448876 C274.72224309360803 423.91918923244987, 305.35144367847283 392.45715689889306, 317.9525418711168 373.5515539776592 M246.99729820763534 453.07373909558976 C266.1109598849499 435.33283307857704, 284.6474656346593 412.8174806629806, 320.5235967499199 372.2616144902168 M257.626207540705 453.2928681217033 C271.13437998404754 434.0763205639803, 290.2099613846111 418.1541670949151, 318.48337592354727 382.5589426167552 M255.16290264466113 455.73913653150123 C272.86749275714203 435.48502582104794, 288.25430362632954 416.2025386845627, 321.0147969541225 380.99665022619814 M261.79490266853475 454.8577835117467 C284.2706413336618 431.7083606535802, 305.365787669997 404.47739493878055, 322.68592464977223 391.97400026480705 M262.7233423058286 455.5054570423053 C285.4976724851521 431.73136238143445, 307.95178897033526 406.91489934706334, 320.6253184478922 390.9690087555095 M274.3307548831219 452.141284229746 C288.8654937740293 434.4892426877995, 299.72314617838566 418.5377951055896, 318.6224049606927 400.3551267890001 M271.43024818051475 453.51330429685527 C287.8457738853023 437.7326417797589, 300.0945356542919 421.3272834449327, 321.1614896089171 398.57556570085393 M282.1541590838933 456.16952153139897 C295.00753807624005 440.98813665785957, 307.49687669207833 422.03641620446757, 321.8081838654289 407.6276633681159 M278.8835296824804 453.1609709549633 C293.9808325753013 438.1892801040727, 306.19488772796905 424.8576794501213, 321.3423206190727 407.5908677282085 M286.0941739509544 455.251129681107 C295.96849203291356 449.45225093524294, 298.92223948560564 436.9817510740919, 321.66866539058145 417.7723268481841 M287.220371503113 455.4790604133442 C297.96914466722944 440.72705144602435, 310.7457140569283 428.9175902220436, 320.4257717343811 417.34898199881894 M295.1715315853859 452.8503734452729 C304.15624313507163 450.9093263002113, 309.1712776379072 440.62624093314156, 320.427938322207 425.57271277248947 M294.8060973570315 455.3590553074146 C302.9533843275894 445.43636350519324, 311.5375442810155 435.46729355954454, 318.99872573767084 426.1138790125722 M306.597544009099 455.11101305727055 C307.40044695210224 451.19214855479885, 310.8924144695043 448.15518154843016, 318.9492470999819 437.8039168485842 M305.12999549554524 453.0118054767912 C308.5998870045222 449.089758296707, 314.0529219651847 443.6114605693712, 318.8274681479344 434.77677806068266 M311.2334833544598 453.2283214176215 C313.77732630183027 452.5304069170935, 315.6717573526734 451.80094264000775, 321.30779673424394 444.03333534471716 M312.29072519570343 453.4672621704061 C314.7718595488028 451.42415121874905, 317.64087165341346 448.17526772488674, 319.33734480105255 445.5090072402686" stroke="none" stroke-width="0.75" fill="none"></path><path d="M194.81936325286227 330.4984814556629 C238.17777781923724 331.19563568767035, 284.2536360102626 329.43224632493025, 313.21879941075514 332.62760577367214 M196.05094035326837 332.31892857760937 C234.74600341317307 330.23347216685397, 270.5485431096991 330.1563691738619, 315.6519314113431 332.1360493226114 M315.25029539840403 330.4712936589741 C312.1801125362736 371.8320566158831, 312.8327812244408 412.3142984924926, 316.1130573631836 447.96158565141417 M316.45468092596536 330.212951018801 C315.10377014575374 358.26154374135973, 315.14672773738675 385.1562943697076, 315.01610397254063 451.50534650089736 M317.27090391586665 451.37071838013316 C271.7131258970066 447.4221455510666, 231.45725222608164 449.0803449163255, 197.97471758882185 448.24862012351446 M316.95376980720073 451.21818979746257 C284.04180957983675 450.6851873099451, 250.52431097977598 450.7068315709846, 197.38302321813836 450.934575011497 M195.8281939057139 452.72301877972643 C198.841404050191 421.4763784216754, 196.4707247603601 395.4103635214878, 198.3524282696841 332.11655170465417 M196.60329600430066 451.59746255791066 C197.29210616976633 422.4672877140989, 197.0978445576963 396.9753008582895, 196.8892011481637 330.1660821132924" stroke="#D4CFC6" stroke-width="1.5" fill="none"></path></g><g><path d="M329.1578915177276 329.29765268239936 L452.7301373421944 330.0847963579514 L448.32596324233253 452.1344878455225 L328.85113792975886 450.11633250401786" stroke="none" stroke-width="0" fill="#B8860B"></path><path d="M330.56158999432955 328.956713149018 C368.00332012931364 330.5775698705, 408.99639448232614 332.24755057301195, 448.3512317358134 332.5159012141448 M331.4122427632626 330.4308304892367 C366.29751690446284 333.5297824569242, 400.40027826203317 331.9076439045552, 449.63530553828684 330.47512457524897 M451.8259663055919 332.2209741071753 C449.54857758637723 374.4874667475256, 449.95145563606314 413.22741416374316, 451.8911252675471 450.9588402614133 M450.61551567355895 330.63178268554424 C450.2752676306939 369.8863167337951, 451.1175788899384 408.1930307404459, 450.32404106877766 450.40130418953936 M448.62331454290006 448.70756795716966 C413.59235645169804 449.46067792621085, 374.4135212362876 451.7144617710316, 332.93301509767633 451.67188612851265 M451.3259642955828 450.53329571456874 C417.29280621387215 450.05305194601755, 381.2064793250776 449.81555214326124, 330.36321647649595 450.32278383245955 M328.88923497275044 452.568293919167 C328.9711675022452 404.3879330348505, 329.3621096709808 356.3076106913109, 331.8684198285018 329.5137584461655 M330.60150590227386 451.5063707641871 C333.68043999580175 418.3162397188861, 332.8314967167544 384.69460664565014, 330.4955916017729 330.7122869466376" stroke="#B8860B" stroke-width="2.5" fill="none"></path></g></svg>