<?xml version="1.0" encoding="UTF-8"?>
<svg width="1200" height="630" viewBox="0 0 1200 630" xmlns="http://www.w3.org/2000/svg"><rect width="1200" height="630" fill="#FAF7F2"></rect><g><path d="M82.1589431570047 193.2214655786383 L151.06304963041202 192.6830903095365 L153.35476894925324 267.94435669156616 L81.32949614555135 268.33860672877285" stroke="none" stroke-width="0" fill="#B8860B"></path><path d="M79.2195455052206 197.25869017550835 C97.04005773369045 194.59091581951233, 118.35417294347683 193.0552455523869, 153.79043888204265 196.0885124491079 M80.83984200967893 195.89637169426751 C96.49948692222573 194.81149877025678, 111.48707437833264 194.55779783982416, 154.07189824321756 194.7605031204779 M154.55198271668974 196.5815176741549 C154.476503255959 215.72262107953355, 152.81346309286664 236.01862037319714, 154.46533930668411 267.73372510713375 M154.17772537117813 194.26420707711748 C155.06142430911652 210.6802587945974, 153.0933873103509 227.89305833495354, 154.4833702129507 267.1939498660468 M154.37197889658114 268.79676480330784 C136.45750986318524 266.5196280099685, 117.71867398857142 265.80400410179556, 79.7276212054382 268.4611998214744 M152.9800478499937 268.3320393845665 C136.00305780083002 268.86517822502395, 119.32942968974422 269.57737201701167, 80.50529744222955 267.33490344658236 M79.06381313702212 268.96483944011874 C79.02483996712076 248.30794027769792, 77.8191172884851 227.88480279451716, 82.00059379498836 192.94766698884186 M78.98471647102077 267.26745962516503 C78.7834939443312 242.1640326867166, 79.9110883814849 216.18818269998215, 79.5675201936845 195.3286560757233" stroke="#B8860B" stroke-width="2.5" fill="none"></path></g><g><path d="M163.34124545442148 194.99089814586608 C163.34124545442148 194.99089814586608, 163.34124545442148 194.99089814586608, 163.34124545442148 194.99089814586608 M163.34124545442148 194.99089814586608 C163.34124545442148 194.99089814586608, 163.34124545442148 194.99089814586608, 163.34124545442148 194.99089814586608 M161.82463463273817 202.83043630757305 C164.1273983228362 203.0902194582625, 167.932848167889 199.28596444251582, 171.5781565354858 195.49256463436475 M163.0038087260645 204.595762239965 C165.87622156863534 201.44880109894328, 168.19522983725705 198.8926473256378, 170.93270293635274 194.46771286427676 M163.34131848686545 214.35585341300356 C167.4699914956081 210.82128499190443, 171.4756096095527 205.0206265354053, 177.28653900140606 194.12518953414582 M162.86994058750307 214.61730405684855 C168.34902845616534 206.9408051146012, 176.15296310247302 200.26797510084813, 179.1575343812693 195.22377218946477 M165.59973722555 224.85846757818882 C172.9645024597344 210.0894641095657, 181.22900703978593 200.72487246844375, 186.00747620388657 195.63044192199106 M164.1889472533087 223.6754426427357 C169.13842325189538 214.3014449061501, 178.38407317033037 206.94009649804352, 186.5498734158203 195.13799386676914 M165.24278826075505 230.47365449213373 C172.4227332116419 219.40783605587598, 184.43993745753693 208.89530113951298, 193.48112278705852 192.99831103606695 M162.13729476693115 231.43555698563452 C175.71193153597937 218.10602406439733, 188.11710807261213 201.87533359234018, 196.51086218983195 196.04048082597564 M161.82247718866358 243.3366994309675 C172.75242311029524 230.51079920475422, 183.48284811237912 219.58673931914348, 203.25667016832142 195.0652957606183 M163.44412896569688 239.90437676492505 C177.86440325617406 222.59395091333738, 194.9752513822943 204.15496224491903, 202.09083761727672 194.07675569480475 M162.09958248457752 249.3186783072898 C176.99533983173723 234.33812799180245, 188.77755433473314 217.78961928683424, 208.39107603594678 197.74885908960928 M164.84937658770457 249.49346564919293 C175.67993104129894 235.48160510926314, 188.8698668843754 221.1499436730324, 210.460893918009 195.15859990042057 M165.6083892253149 259.3823556592627 C182.88077090219892 238.39442574329442, 200.13139746939072 213.66517660158425, 218.67706346138016 195.22973344324237 M163.1115416168894 257.7879952313019 C182.31548145606166 236.17016528045335, 201.4680514464 214.60860681342882, 217.4770020650962 194.55753924317222 M164.591831222136 270.045385865762 C175.32740120783635 252.66247086357845, 191.46008022226042 235.7254669720456, 227.93051422042868 197.13410806858911 M162.61844033017056 267.2868715253556 C186.6899422259977 242.19030988857997, 208.96634143339887 216.19127971519907, 226.19238640816778 195.2108556018141 M169.28433889348887 269.8829490899837 C194.08326434393868 240.39806734953328, 221.96468437032058 207.10781443609457, 233.13305358265012 192.35493961368903 M170.06885225595406 268.8622169329511 C189.2431362728462 246.5284952456467, 209.67751161578457 226.50938708933106, 234.16452010101327 195.83161187319655 M180.1591193795361 268.57349298712825 C199.41394461092293 243.33793768056142, 221.62129735362933 218.73278658614865, 236.04977066495007 202.6823841866478 M178.09915046281634 267.9025146645787 C202.08764933219868 243.6707301828229, 223.27768055165262 219.7071095083293, 238.07172189857457 201.3394923779517 M187.18296860521687 267.3677422088836 C206.53828179897542 244.38660392691187, 223.65774074827206 223.98431844202503, 237.0332934559461 209.9237988980846 M185.6093617387033 268.77850258777374 C206.12790471030115 247.7170133549348, 224.81865332309968 224.47587462662162, 236.3205444813654 210.9214969561072 M197.13300224658664 268.3893524415706 C209.10457187732857 251.47986328813, 224.98932788360162 235.35976698003384, 235.75573946092152 218.82857917149397 M194.4262662543006 268.58176715221214 C205.27134544999447 254.9834013715371, 217.3159199789852 243.69691379056195, 237.43104457430215 220.69304297045736 M200.29164923367915 266.9665321409822 C212.92567326061055 258.928843555101, 219.2625785523903 251.54506032454714, 235.0491342766927 228.09475524814442 M203.79449433931435 269.01930007542916 C214.42400674101634 253.82592082279484, 226.7987858416814 240.45955515709412, 236.02468225112943 227.7520617643248 M210.6003998298847 271.2416081998207 C215.88165736473502 262.8242758787707, 225.12149570268826 253.8922057359894, 237.85878545082264 240.09770696790255 M209.82454075727262 269.3168610602264 C219.81297634082026 258.3205203315783, 228.96342761586183 249.07869311872136, 237.9038642983164 237.09440401518512 M218.40006540552528 271.63257749105674 C225.4763904705924 260.78607998265545, 233.03879521428524 253.4322338123964, 238.43215508456024 246.79453321302913 M217.20537209089758 268.1097781220705 C226.35571295953366 261.1745232918632, 231.70567304504237 251.38287873914408, 236.8258285334846 246.05838864878007 M227.30458222383373 269.18183012784493 C227.5265505213927 266.88478227783446, 235.40982189478424 259.18058720474556, 238.30431309103622 255.85632492880538 M225.98163412037343 269.0817023892413 C228.05720690959242 265.4323249641218, 231.01047717050406 264.3816801858764, 236.03452935626126 256.4385263264823 M233.98833314444096 268.80326586612244 C235.18459701343303 268.03000848710593, 236.3119426925592 266.50170657034425, 237.46476676589683 265.3609943792531 M234.1792127992957 268.73854465368777 C235.20569660200462 267.76243798660767, 235.74453497131668 266.7181938493302, 237.30025210172616 265.8573665702003" stroke="none" stroke-width="0.75" fill="none"></path><path d="M161.04570194726014 193.2606600937072 C191.87544903280028 192.62622392111564, 219.03544957538423 194.74248292803242, 237.64857621631123 194.71333648883797 M162.19757764099893 195.8583389504288 C179.83039851381034 195.25812191131934, 197.99184566481395 194.34104128761575, 237.223466435407 195.8181230985052 M235.4310335502406 194.30780243092462 C237.15405694918778 211.82567481461342, 235.78181985916837 233.1754828066145, 234.27568091451994 270.0652462447329 M236.70728551021176 195.1410121645383 C235.81025850102657 216.57353451308472, 235.43718479521462 237.07997926150503, 235.81372586343866 268.74804757592324 M234.21869967459193 269.82475718155786 C211.8101829577804 268.2696204105548, 187.47545605764418 266.4755829364411, 161.3407629060463 268.3785855036226 M236.96806569798272 268.0954111574864 C212.04441341326674 268.2545452616227, 188.23941633269476 268.6005037485668, 163.03919651105892 268.9834745637045 M161.0145896246784 267.88881190539985 C164.04244729459154 245.64862510683383, 161.06633378295786 224.26202243186592, 162.46398498623728 194.67266249390846 M164.57437367886567 267.3775455351436 C164.8318667306684 240.6586638550054, 164.05524074398843 212.3238234865297, 162.91016105935347 195.70474649966792" stroke="#D4CFC6" stroke-width="1.5" fill="none"></path></g><g><path d="M246.89003792223545 194.7430407645124 C246.89003792223545 194.7430407645124, 246.89003792223545 194.7430407645124, 246.89003792223545 194.7430407645124 M246.89003792223545 194.7430407645124 C246.89003792223545 194.7430407645124, 246.89003792223545 194.7430407645124, 246.89003792223545 194.7430407645124 M246.9446687979775 205.08342650884276 C250.91722211763087 201.94574910346842, 252.6562788375564 197.2147299313319, 255.11671203032975 195.91021207857307 M247.21621216022137 203.97128438495008 C249.28214310493607 200.03121511753648, 253.54579308126435 196.44628005382384, 254.20229285516334 194.5980866610992 M248.748323014499 212.2275113961324 C253.60000509601787 204.2314031237283, 258.7311839452568 198.80815951866418, 263.3187470144517 197.41699380881695 M247.000463237056 214.04778178564476 C252.20087237051555 209.36871778750412, 253.70934090798897 203.24447261354072, 263.7042934502178 194.2538372867971 M249.00607645588806 221.65066479972486 C256.724003898382 208.9175422363351, 263.0093848676429 202.81647767162082, 268.5166028493308 194.17053618477266 M246.67294810525422 221.22842551655225 C253.21039439990636 216.99903140423666, 257.77522060310264 210.10715934984088, 269.6042521523482 195.05884600369194 M244.60635336306916 231.79393062168702 C253.01773189029635 224.48490448803528, 261.56698829835636 214.19186535121347, 276.97975017260427 193.1225117470037 M246.9067998864353 231.52957295353306 C257.3458163468912 220.939111385075, 266.5157507042115 210.41804846800187, 278.2499432048869 193.47376974525636 M247.43493654410452 238.7010259579884 C259.54801792756956 224.48136217120677, 274.188133984153 207.58005578249433, 283.9948062642992 194.20527445413086 M245.9344399336963 240.7344119085417 C255.6446345638873 229.3290511961391, 263.7418269953777 219.49095982486972, 286.41841284145926 195.28565979812208 M248.90338847105508 252.440825812409 C262.1832532261563 230.7911806753433, 281.5015798461232 212.89005366862597, 292.0584252939786 197.23340834200738 M245.70920492953368 250.15856820596565 C260.45379519177624 233.16321555334318, 276.6393666966768 215.58043970366776, 293.15188167634363 194.40727254912858 M246.12670742062974 259.6990894596906 C266.50208921763146 233.4610555929559, 287.29545783092595 214.6736834828804, 302.8926638467272 195.93706756240485 M245.41248046568248 258.1061135626697 C262.60108452365864 241.40321587464595, 279.0149621261124 221.74800080564162, 301.8188032754219 194.4613098879069 M245.5029822011036 270.1639277670873 C266.60465088417584 247.8586817248811, 281.3651310346912 229.52801329401177, 311.7503317145795 195.84621600081957 M246.87484157370397 267.21541861866643 C269.0097937497848 241.30714339717053, 289.47752361063147 217.19881177485374, 310.67400833684667 195.8492045210712 M256.1262246901861 270.99336478066016 C269.87768987733443 252.98978537484976, 279.0737667773899 235.45471701652104, 317.3861325676579 192.1852953218471 M254.97945754320307 268.64339987291874 C269.8245368249979 248.43881606008082, 287.0856717310945 230.5242130581652, 319.2432574148611 195.5723551902623 M264.2205708219651 269.0494960127902 C274.23651209858326 256.4566410854454, 288.09588456554866 242.66131552498445, 319.0486790714151 201.50388646890246 M263.01871647887094 267.6343659773239 C280.88840998173913 245.80032704010952, 300.4129217654218 222.4895519331093, 320.5761646840656 202.58833887879246 M268.05767559135154 269.5954230926152 C280.4234865156205 257.5157993498022, 288.64745216573345 243.4812056408954, 321.38282799968397 210.82400612871396 M270.2863003637938 269.6070222592506 C284.40941944993483 250.7495927502751, 302.5410479806276 232.21390422832476, 320.8004748488325 210.85824251805755 M276.2788991930915 270.4847978679052 C287.3744789129526 258.4337869128395, 298.94185796085407 244.86934852548228, 319.36675712610406 221.26651803427313 M277.27634879481406 268.3511397878686 C287.78209614371406 256.6709858661216, 298.3291260143768 245.51530535236074, 320.92572555093335 219.25565406606867 M288.2505219300663 266.21561049716826 C294.658485820382 261.4013631062516, 298.9787214798057 251.54920268718126, 317.80463093180236 228.66933249814602 M285.79523987077323 267.78813772676244 C292.6326427289338 261.28913817580246, 301.15296178049255 251.4414470482163, 320.29773759136833 228.63714323725625 M292.9754724410316 271.24455923709445 C299.59625007850013 260.28261519539507, 306.3410450196557 256.13360956007676, 321.3892022267836 237.24632628040354 M294.037713389048 269.48123494094574 C301.3552721444319 260.5149985943981, 308.1672300591384 252.01734029786144, 321.3755989787637 236.86922343187928 M303.57087417382337 269.56497859721543 C308.69783534318765 260.8557937518715, 318.26380802608077 250.0228018282222, 318.861890082174 244.7201228361646 M302.5365328918552 268.56311149053016 C306.0175011484726 265.2180398996123, 308.97983895326036 259.33210217253463, 320.28098369685904 245.75503768523123 M307.8517932222685 268.5638767119186 C314.6890340611551 264.47667486200345, 316.84912423891694 258.64312815059213, 319.1743747661505 255.48045124361602 M309.80197031471926 269.89120869158575 C312.65268804809716 264.1987518871895, 317.1622075214196 261.8748042927856, 320.39710722293194 255.32613507023007 M317.9202219263348 268.6643555068801 C317.9912109638696 268.4710826716907, 319.0363183003994 267.0106850807262, 320.3258086893872 265.95025860625293 M317.4308890879138 269.09317597098027 C318.2425443668115 268.2727107731256, 318.9839465566285 267.6066344387433, 320.34813878545833 265.3219039396436" stroke="none" stroke-width="0.75" fill="none"></path><path d="M244.4936235973797 194.23779140721183 C264.22620778280077 192.79760618381027, 275.21742817875025 193.28801310264518, 319.82018600733534 194.54492563199872 M245.57139043891553 194.57026934896575 C269.72649470296335 195.3388994150566, 292.7988843828558 194.67801450404718, 321.05328082835865 195.5431290375391 M319.5017238082815 194.88672917389522 C322.2901633761482 213.0683716894258, 320.7809267497563 228.38468714691268, 321.3486344024769 267.6066707261904 M319.99555272082944 195.29252837490452 C319.99241099696997 220.98106873079922, 319.37318143103374 245.58301722795414, 319.9571771096943 269.55421561873885 M321.6653674445487 270.709236610937 C297.8574049859978 266.2029540253713, 272.8238791443789 267.55605099471137, 247.06456141549526 270.8981510929757 M320.8692573001477 268.6067344784886 C304.4368763511611 267.1329165651398, 289.1291325169817 267.9951736338729, 246.55155627700813 268.18128076044786 M246.9905004315427 267.11401619271925 C245.06529994369515 249.4270251584844, 249.51205350635357 230.9309292305728, 247.59624961868076 195.6836558259742 M246.58087134264062 268.5543839796458 C247.09421404600673 252.0494912873424, 247.66643603379114 237.14255117008884, 247.28387661702718 194.29352668054793" stroke="#D4CFC6" stroke-width="1.5" fill="none"></path></g><g><path d="M79.7219036911043 278.65324654125163 C79.7219036911043 278.65324654125163, 79.7219036911043 278.65324654125163, 79.7219036911043 278.65324654125163 M79.7219036911043 278.65324654125163 C79.7219036911043 278.65324654125163, 79.7219036911043 278.65324654125163, 79.7219036911043 278.65324654125163 M80.05223884570589 287.23407810936845 C82.16086498600626 284.5870935490307, 85.45139369183532 282.0806962411169, 88.70639153042589 277.58706093638307 M80.37790318765353 287.4265345491219 C82.8212769356087 283.47237538607465, 86.10176194024015 279.6787986662719, 88.78921968326412 278.36746618807143 M78.50880525774225 297.7528478348279 C84.11118980599954 293.1104857155355, 88.76677975630056 287.6413060395838, 96.15976134288857 278.8541723213737 M79.11382307460899 295.9923822190835 C82.95195478248533 292.9885742756132, 86.04000452794433 289.21371772940034, 95.41721612535082 277.94766546551523 M79.5318369256522 306.95243903595633 C85.68835254447018 300.417596913023, 93.02730373364612 291.0654499566002, 103.49053948291773 280.2544016586327 M79.42800562322935 304.7571743310215 C85.45254530923113 298.2946041403048, 92.4633299392818 290.59403277304835, 104.43839101936675 278.4242036920697 M82.10910896476486 317.0622365178863 C90.13249949262665 302.50139897970405, 99.89004161941098 294.11880481488134, 111.77095526984293 280.7954975556328 M80.99283178420517 314.7594448616315 C91.3649492009426 303.1070233732357, 101.11268035438538 289.94595743526156, 112.63322655970508 278.42200849522436 M82.12801756192366 321.7836929273854 C92.16473601546575 306.2141442418228, 108.98333285477233 291.2041838085661, 118.21178279448607 278.837790904665 M80.26724773342872 322.7816074504448 C92.66490433839581 310.7295609806506, 103.32197607797977 295.8988087767733, 119.63655013980178 277.1222657788176 M81.62099634551342 334.3912463991635 C90.35366707385919 321.2114983285048, 102.4806236814123 308.6610916104436, 126.62704819884264 276.253079891973 M78.9370319715742 334.1204763019207 C91.36575269882385 318.7398855715665, 104.10936009718507 307.33856622486013, 127.02459324370659 277.7365249307856 M77.54055436877483 340.93819449927196 C93.7355473747057 324.8188806805272, 109.78193026094479 303.75572282867665, 136.76226502605036 278.6725249635749 M79.43040934974373 343.0945381046145 C92.28604676913793 328.32353221048214, 105.22177370419679 313.50417320166633, 134.97589262537707 276.9896044228614 M81.87806620949212 349.51494293153104 C99.56202904312354 326.5003474153509, 121.99341380931044 300.33196258018825, 143.9081180296457 278.69065787394374 M80.1781663028459 350.8299235336482 C100.55052884810178 329.12754323639774, 118.80367550013426 304.9355554975487, 144.65433309880834 278.47864593144595 M84.65053849537442 350.08465760643327 C104.43145321315302 334.08437029565823, 115.3264293044095 320.7885566636522, 153.3579777643199 280.2520588997511 M86.81440345256648 352.36983240056026 C104.05471754697437 331.8904823381521, 121.91652627760283 312.4551563431748, 152.0037751147066 277.36917036804607 M92.98440956224172 353.7069685209456 C108.79644554614843 338.5992938204335, 120.75508745608825 318.15443810525034, 154.2579032314934 286.4268905063835 M95.84112356804852 352.13943251622334 C116.83450318026682 326.1433225206432, 140.15448670559763 300.09716436793656, 154.62252247346484 284.68364609527026 M102.29654487847083 350.2576755497969 C122.106153549088 330.8696491490073, 138.62733315535095 312.615960533691, 154.63404930129633 292.0117991009613 M104.47654494241195 351.76304297092275 C113.02602123037003 339.4277301311274, 124.49599005631688 326.32053012911854, 152.66670941636804 294.2992817726868 M112.69624638026413 353.1912101923167 C124.97715269807648 337.91834909194625, 137.52104609517343 325.08026679741073, 153.59487177182984 304.9577067770865 M110.01383483935577 352.5757088762225 C123.963576950085 336.6998334723371, 137.83534092698343 322.71023265691196, 153.93232104604036 302.4434508502173 M121.3998943862188 353.19840992750824 C131.28218141571114 338.3331654488581, 144.76995760954492 326.9755414935285, 155.32609954341856 312.0183479898286 M118.6592438885655 353.6366210840185 C132.78873678480085 336.60594034603264, 144.72884420207498 321.72554750231916, 152.6697748714675 311.97625079060845 M125.74761165540055 352.3469483213986 C136.02321429010573 338.91242013385755, 147.4536512053621 329.15437808240705, 152.80002750486082 320.0141398471934 M127.08357608497951 352.62100926495435 C131.8825098212344 346.21303336933005, 138.7955119217072 338.6401693940475, 152.76180700849696 320.65989701135095 M133.8974778750716 350.0236250658325 C140.19354035802306 347.66102964131704, 146.16710066615772 338.5671091057775, 152.64898849166613 332.80436548092985 M135.6214164732037 352.80083769925045 C142.08977582084654 344.6359790258134, 146.98751247467465 338.63421092440916, 153.50547166523867 331.6508743686231 M141.29995434515442 351.8475175337865 C147.58881883781717 348.741323827745, 150.7368697836827 341.40161564472606, 152.66101051443974 338.708859027824 M142.26133436676352 352.0626714064942 C146.33349054943437 349.3855202303505, 149.79946825694287 344.71561679414003, 153.95592950951524 339.92859500960793 M150.5770910802139 353.00066965607886 C151.25673435359522 351.1440072649844, 152.75331236781338 349.24959369851564, 154.6221314054447 348.8961096303264 M150.6476049320459 352.6249646281981 C151.87297281280306 351.1370305912206, 152.61287485040114 350.1357922744002, 153.77220886442393 348.47537318255286" stroke="none" stroke-width="0.75" fill="none"></path><path d="M82.4639558446176 279.808652048786 C109.81566925822705 277.7378586725624, 139.39060635022497 278.82724198707075, 152.6538640937939 280.30436185046966 M81.04099602543775 278.2119526693296 C107.27822059199066 277.1475699709496, 134.49653297888344 278.7951276483789, 153.90197191047258 279.34649586672106 M152.04307507573728 279.198349902632 C154.11864306922146 302.27305892645614, 153.51960904800808 327.60254143452073, 154.9708728731695 352.2889401258398 M154.04660321192281 278.4522352337723 C153.97898793312973 294.83010778224383, 153.864183083169 313.0912261785708, 152.3963152640706 352.41645614357645 M155.420575518017 350.94499593154563 C135.41359767915714 353.8819794658093, 123.67740584422981 350.1821525625396, 77.736224484291 350.08070769649737 M152.88117133418902 352.62438468008764 C136.32984259731515 350.42570829585014, 117.90993080972504 350.39589096001475, 78.894804240913 352.6798155357088 M80.04716515688125 353.9209486569789 C79.0271578426531 328.18477344504623, 81.36428752531974 302.84219560101667, 77.54530653709061 278.5492251813439 M80.63239136608806 351.5505541865713 C80.33003784687298 335.03262248539664, 81.83555151324055 317.974111564863, 78.81551360617856 277.16557408207535" stroke="#D4CFC6" stroke-width="1.5" fill="none"></path></g><g><path d="M162.45359870897911 276.5457171406299 L237.5896374647833 277.63552423739435 L238.28889066895553 353.7265919846653 L161.9776391076618 352.1111289815607" stroke="none" stroke-width="0" fill="#B8860B"></path><path d="M164.97036473168848 276.81560785219386 C188.8118233586847 280.2735190662201, 210.60555114648207 280.1197049094956, 235.58797716894625 279.3245268367074 M164.37320143350635 278.3349115506133 C188.3170682428905 278.12154586885, 213.94569667330515 279.74206071852143, 236.4141700051323 278.2933076292107 M235.42509682998954 279.0980772793648 C237.01183485863066 292.5813556895703, 236.2139747685214 308.5892081539389, 236.91039930317777 352.7086250354032 M237.5974795118496 279.22361983899583 C235.91526785543306 303.83018950509694, 235.2526870757756 327.45024583734966, 236.8187513808404 352.84676411324494 M238.4432139367502 350.96515258704073 C206.71909461010023 350.35669685312433, 182.61531761247926 353.0599412919752, 162.3786763725839 353.0431197800501 M237.73093990463886 351.48071952666197 C221.11256429136654 351.7836907911912, 207.06232062767114 352.8325418504922, 163.6728979413623 351.00462848006987 M165.1016951982612 349.86400286674194 C165.08814703143005 328.3384456118286, 163.5790733116581 303.9679212963136, 162.62168732503682 280.58882708739293 M162.74440729219518 351.19810907332527 C161.68143391470082 337.2152158467043, 163.06510583514657 320.8584748465239, 163.84389273459473 278.15479652406594" stroke="#B8860B" stroke-width="2.5" fill="none"></path></g><g><path d="M246.81948862673227 278.1575317785443 C246.81948862673227 278.1575317785443, 246.81948862673227 278.1575317785443, 246.81948862673227 278.1575317785443 M246.81948862673227 278.1575317785443 C246.81948862673227 278.1575317785443, 246.81948862673227 278.1575317785443, 246.81948862673227 278.1575317785443 M246.67181523148673 286.82999549622764 C250.6053802126109 282.38002583286357, 254.02169906673785 279.4189186757843, 255.23537047188083 277.6596179677673 M246.08342768780875 287.05188646559714 C249.7834222109941 284.8072622831146, 252.62991771040484 281.35198454293493, 254.69548629495048 277.98478258783393 M248.95769073591342 298.564995987878 C252.54435571249024 288.97657272313097, 255.98452254753659 284.097520886635, 262.5984380320418 279.81609515794946 M247.25384911688363 297.03427888161895 C253.50680652099285 291.00631993746447, 256.75449071221067 282.76362600031865, 263.34097022675684 277.33017342403207 M244.9473072805579 305.6872158325484 C252.16285693452508 295.96039719753605, 261.45125955416336 292.4091151358106, 268.79260205572325 277.8072665489994 M246.68758645357076 306.352042799693 C253.30948558003922 296.97958329985914, 262.4948859341179 287.6462386706121, 270.9115835498221 279.696263104184 M248.76820476794077 317.2955566248198 C254.890897161587 302.57686302385235, 262.84132579494286 296.3586675502875, 279.1800440653478 276.8007169167814 M247.68713209580886 315.25384535948604 C253.51789180482504 307.81586625491207, 259.3339479724854 299.5684709108408, 279.9990713439054 277.2610015341081 M246.94535399054598 323.3974512215884 C258.2743125964474 310.4941076479146, 271.22743230092044 298.00243608028455, 286.22155176916925 280.58686269701053 M247.46864225945313 325.2633477986005 C257.2182010443379 311.25231268357413, 267.70916585965284 300.6567151357847, 286.5277694050759 278.37450804608153 M245.18429204128367 331.02088465401204 C260.89282672992357 312.52572958396365, 277.8594695958724 296.0498767374602, 293.26671668926275 276.23255479701527 M245.4061433517758 334.19139075462294 C264.56193806935363 312.6044494459823, 282.7287459756184 292.6133548320755, 294.05126321241937 277.1213040701966 M246.27007821873076 342.6550884609347 C263.38374142520723 322.466448730231, 286.92006970527854 299.2821163738359, 299.8913655488065 276.4373754196986 M247.15412113574325 343.8965070926749 C263.7424364089803 320.8195299413721, 282.4407769777977 297.9933859987753, 303.3337440407529 279.01986728203696 M246.68177756510303 349.6482745990056 C260.1335903763594 335.6347825560268, 275.89394766063634 316.9227466391358, 308.5418785138415 279.90022601854486 M246.49379978689873 349.9658045315743 C263.5245603854992 330.8900105213512, 283.2440064383526 308.9396904341408, 310.63200322131473 279.47981738264065 M252.09514108742937 350.0369447531816 C280.21059558528503 324.52441550097643, 304.6586299584569 294.6829005333266, 318.4343679858946 279.3482511249162 M254.18528285528146 352.2137411043569 C277.62531035667485 323.77504239203, 304.3315457647668 296.1351313819049, 319.6169040015228 277.482242571388 M263.54540732478773 350.42164010580206 C273.3352808365642 341.2069579169281, 285.05602695675975 326.13022515872274, 319.52729471653504 285.61427343587997 M261.04291307691403 353.22622797151735 C273.3140259144792 338.14370686859513, 285.8841937769368 326.13458157125854, 320.7800190217135 284.53168972856685 M268.5238836515957 354.10503025900243 C281.06029949480893 336.97856340331697, 295.64989285294274 319.22452627601234, 319.98523826295724 292.09919913517325 M268.6060150395935 351.3768225281311 C283.03259764818836 335.14418362084683, 298.6275336655688 319.0704595163303, 320.2636867559938 294.6355970169698 M276.7839572598108 352.4230161257031 C293.9330366029857 332.03510620093715, 310.18054492071934 318.51563285476993, 319.1242725329609 302.031153004807 M277.5890246635711 353.3713616072879 C291.01578758182933 336.2208493122478, 306.61923108161983 319.0195907638113, 321.0567671891712 304.35557186472397 M287.4896840435551 351.8603103719716 C299.89348296874687 334.9041028234362, 310.44209105228686 323.20519436315465, 322.6761386080463 311.21193105651906 M285.363445739446 351.54600669186993 C295.7073349536516 342.4518405155053, 302.23268771886154 333.2432142401676, 321.24950044873134 311.63174071452494 M294.2813299410621 350.570757767485 C302.0975974174307 339.7406288182751, 314.56484993542085 330.07486011389597, 318.6463194925936 321.89667960512236 M293.3580253206546 352.51334227500615 C304.5716917518005 340.002473362424, 314.90049901890995 326.8778392518714, 321.6217638238267 321.6261015170778 M301.2911017599485 351.0426751469462 C304.9610253705066 348.45487633285774, 312.2783152209121 337.79419908787054, 322.2856150010851 327.9323326348858 M302.5909079462788 351.3458246274107 C307.1197293736897 346.52416592023053, 313.74293337496545 338.6211438371508, 320.21674195461196 330.8111678812412 M308.29195587684194 352.1055168652567 C313.5411841119068 346.2996322492239, 318.8215376250179 342.1703363843196, 322.04499278479716 340.3379888761242 M309.45756229248684 353.0773486370602 C314.8215660520221 348.6122378569216, 318.8492582175608 343.13108444259785, 320.3080611269198 338.64932549252376 M317.2044096026456 352.53639004669066 C317.561683240975 351.543486150948, 318.9540713509219 350.57790475621744, 320.77861220234166 348.7714644071401 M317.08584999127396 352.89183641316845 C317.8315208398742 352.09572757242313, 318.7445101545653 350.9096152958059, 320.77882357160684 349.0344089424855" stroke="none" stroke-width="0.75" fill="none"></path><path d="M244.7538676547058 276.6162768210037 C269.41221643567627 276.50670073843327, 288.99664118296823 276.8156142744808, 317.99773761738595 278.7865560850023 M247.58349545966294 279.55289996938933 C273.1139683725653 276.79269895993133, 301.2530343626031 276.74268575282366, 318.7153408487244 278.65467700578586 M319.0923274789683 276.321443930952 C321.89443339682794 297.63911624191445, 321.4212026316244 314.31284866621326, 317.49150093298056 350.6362168985467 M320.96523172788943 278.2983481263614 C320.7765763789187 296.6436880527526, 320.8910911915977 314.38541192627565, 319.71465140334334 351.6019527800534 M321.7660314755001 351.97740007708165 C292.7253377954015 351.4682204964308, 266.7018246160711 351.94189326963755, 246.45069335732396 350.5522820246906 M319.6289425314611 352.6903397962238 C298.85692683111165 352.4558673937602, 276.8305932803123 352.11859323478694, 246.75812405619922 351.6767496526283 M244.19103759537205 353.7563323360123 C246.85345550816822 327.4997157633847, 247.97742343285776 308.9939082626718, 245.30044106243398 278.51486385320845 M245.4186698376016 351.4921444401892 C245.45076682356788 329.65854788181196, 247.2759061909936 305.78420932140847, 247.68000927574627 277.5775330905297" stroke="#D4CFC6" stroke-width="1.5" fill="none"></path></g><g><path d="M80.30741342459166 361.3130279750608 C80.30741342459166 361.3130279750608, 80.30741342459166 361.3130279750608, 80.30741342459166 361.3130279750608 M80.30741342459166 361.3130279750608 C80.30741342459166 361.3130279750608, 80.30741342459166 361.3130279750608, 80.30741342459166 361.3130279750608 M80.25434791988273 371.2388030765682 C81.72506384483383 367.44570698024114, 84.18494074522198 365.48426158657077, 87.47830349891723 361.3058114020642 M81.01821373349327 369.8661144619471 C82.25629075083721 368.4664708635388, 85.36351274547793 364.7944202516222, 88.41166011910137 361.9884462771596 M82.20351245865659 379.4685186255408 C86.0688994304917 369.9154895491633, 92.37478192335536 363.22249486689367, 95.09661782049129 363.3240725267332 M80.50441232637469 380.87412622448727 C84.2841183128062 375.14929218643965, 87.27468682123467 370.6978612448114, 95.51667812319108 362.1240451407644 M81.33497511792159 387.9887807567454 C86.66814308878448 383.43296247993953, 93.86325973807091 374.8579363822187, 101.23039116731759 359.89769872651976 M80.19512128283714 390.03523638514577 C86.47416059292134 378.7861140468657, 96.27323735494147 371.40059275129005, 103.26789028407913 360.7972805389028 M77.78548543399184 399.48153000074353 C89.48891572693962 386.12267750056776, 94.81974634357324 377.86884137556524, 113.08325127736815 361.7568509058694 M80.98091809606704 397.16665336445794 C91.05053481429817 385.1379876364526, 101.98967135467385 372.1513387233428, 111.57888952414577 362.66879654186727 M80.34792492057571 405.73253279354253 C91.53441045791246 394.41371098105685, 100.64449161164703 385.9930218084666, 122.22577806751387 358.9518169338807 M79.83890740696744 407.25767105575386 C88.5662141279137 396.56059395583515, 97.86287537031095 387.2628921491243, 119.42981827256135 361.2131688918814 M80.1928323350831 416.73948102100604 C92.79340608499871 406.373998325095, 102.424004227963 391.7808491036875, 126.64266403863675 363.3217295240509 M79.60062491181506 417.64249567311174 C99.78647466669189 395.33117523513374, 118.11029813709888 374.3411226308064, 128.67504680536348 361.32021820150413 M80.09909313368155 426.7819773158404 C93.11252629538276 408.4667340963326, 112.58742092915281 387.5056734204429, 136.9924852755278 361.8083766251948 M79.88153855460364 426.7542944741615 C101.99151991698902 401.5214150064309, 120.8869287693225 378.8057287978273, 135.32837954594518 361.64019705247136 M79.29989105592668 435.6105690675647 C96.84990842464359 410.9194610491795, 119.8459953224465 388.30181025061876, 140.98936674352186 361.04208522635815 M78.61087932299394 434.31077591471933 C95.35693904131246 416.52605932686305, 112.18820915363062 396.21545062986996, 142.83503121921655 360.74925136443244 M87.33190062279297 434.34501218194885 C106.07161871430122 415.26503296212843, 119.3995355092885 394.6529614395373, 151.16447675111928 363.79038686383944 M87.62230391316288 435.01469153378775 C103.07556026715959 418.2077677603331, 118.95462832338221 400.63994178924713, 151.19031204215787 361.55597564227276 M95.99320103639992 433.1698765333468 C112.27990286077234 417.93070240031545, 132.5489164730061 397.13527337142443, 152.86640170467447 369.7831675257481 M94.1717712785684 436.40718555784986 C109.11056356104025 419.62669680447067, 124.31809011623645 403.50701934225856, 153.62049047036635 367.439936732143 M104.89826193485243 437.49667569528526 C115.31114691155055 424.3465187715181, 124.29326046054095 407.32773909064696, 153.03196031374236 379.1670952629276 M103.40569393911355 435.7734367498474 C118.32626397621291 418.3120162044278, 134.09762949126022 399.2192321240302, 153.73438266951047 376.6263447396405 M111.09735672010954 433.96131125826344 C125.03310094640288 420.57401146217103, 138.22644727228513 406.89765662077946, 151.46866748047768 387.1635116124175 M111.79482676730704 434.7962355233032 C128.26309006435133 416.5136283004539, 144.45038246380858 397.6240066182494, 154.18689769639616 386.2065738614955 M119.5637837941571 437.57400707693773 C130.09422001235632 420.777708737217, 143.04216852380895 407.69497843021924, 151.85297196645814 397.50529099076624 M118.64735707552519 435.8016867102847 C129.3297423197795 424.9914823503508, 137.40951737931908 411.9239486969161, 152.36810974810774 396.9159694721856 M126.27557253576802 432.87172841656246 C137.80640604940763 424.29961672721873, 144.2499574145975 413.6218933344113, 151.3000902354421 403.9721669813192 M126.3582529610118 435.5117716232821 C132.3901770253876 429.7559216379511, 139.53829687663958 422.13818684159844, 153.656970963215 404.7276346851165 M133.17383111189625 433.7260069332805 C140.97048782568956 430.930372369297, 148.02150321402624 421.3091174309776, 154.38300661266442 411.6486069665119 M134.20138544722707 435.0328560147569 C140.17310073233966 429.4690903154561, 146.0243819747533 423.6959542702813, 154.74320394485238 412.3459264288077 M144.05635867256836 433.8639795588539 C145.06693317401565 431.3404915955671, 146.21515252934807 428.6507259132315, 154.594688927985 423.2340675037557 M143.50817399460152 435.44084778733804 C146.36854770611012 431.34025767121346, 151.37337780160604 425.57647350799493, 153.5289523897954 422.4082068918442 M151.1739308580284 435.52576420795873 C152.1025357614259 434.7511746665127, 152.9462387081874 432.4844561265925, 153.95794183382773 432.1261283904486 M150.67027892022327 435.65423228797437 C151.9471249576624 434.6808436725867, 152.90745125679325 433.4433459737683, 153.9961705121728 431.7642639048518" stroke="none" stroke-width="0.75" fill="none"></path><path d="M81.79443052237689 361.5712688237538 C99.6394552847067 359.811822132027, 116.13595820823988 360.8287624722394, 152.6989074883315 362.1389636814486 M80.10336939093564 361.86027922936705 C103.10280527301059 361.2031380426576, 129.43194086576707 361.1457148658984, 153.71424450734415 362.81325812843346 M150.91299749579548 360.46984054373513 C151.6750754627764 380.3221750805352, 154.41443991181336 403.06815582272674, 151.03299648516096 436.21819006924125 M152.32751237156776 362.84250258669914 C151.97414994057235 379.94445356203175, 152.48342479917378 397.5933554561691, 153.3395337392271 436.10476042299905 M150.78386575820707 435.11898635400877 C132.96393229702588 437.2558679640306, 114.39548591524334 436.29459293937884, 81.67514972533121 436.9216491822845 M152.87187934900885 435.3016410488508 C131.7452021811704 436.3843971460253, 109.1981943810785 434.4751786934657, 79.79893762233785 436.013161047911 M78.11648186248425 437.1059729783276 C79.57754917355904 413.89947036569504, 80.9217704914553 396.38992447731323, 78.11655383150247 364.2216928543406 M78.88050685912201 435.7103630049562 C81.56945267752165 420.6669740935168, 80.80377475057553 403.8107730260049, 79.14177105482587 361.53142766772515" stroke="#D4CFC6" stroke-width="1.5" fill="none"></path></g><g><path d="M163.20014686341506 361.81988017392985 C163.20014686341506 361.81988017392985, 163.20014686341506 361.81988017392985, 163.20014686341506 361.81988017392985 M163.20014686341506 361.81988017392985 C163.20014686341506 361.81988017392985, 163.20014686341506 361.81988017392985, 163.20014686341506 361.81988017392985 M164.6410265309065 372.5661845314259 C166.37076851626048 366.4502066386775, 168.1873916961779 363.97019576549326, 170.18868283938326 363.161423149148 M163.76503475011177 371.766294169675 C165.570523862813 367.56446758969656, 168.7063335190617 364.97445740038853, 171.62745359381694 362.66736091533414 M162.00691982698257 382.258984720739 C166.52224901275548 372.157031425845, 173.58813642393767 370.0445606914687, 177.42921089887295 359.14465170690795 M162.43721975713768 380.66599799198326 C166.91130486091086 377.3799929296493, 168.7056870433988 372.157925719175, 180.21867803881855 360.3605260974024 M163.8414358885155 388.8917506799257 C170.53173995516892 384.7868945069333, 176.89828842766394 378.8419011220272, 187.61162967654673 360.23677528704053 M162.59434931709134 389.53376862702993 C172.86866652153847 378.0862184705455, 181.7591655007054 368.37611879732094, 188.39387911941216 360.72937528501456 M165.61187227153638 399.651540670025 C171.83802175972485 389.53865781133976, 182.08857931437444 375.28952931499254, 195.46133203082883 364.2138043812843 M162.5365534276797 397.2991312418433 C173.8877144471197 385.1282185071667, 187.05802487587547 371.53203639138053, 195.1973020005707 360.95739707563575 M164.1400304684779 407.65225700204303 C172.19199809389437 396.4176195404901, 182.97983520764635 386.7692737859461, 200.8160431371939 361.52355305220175 M162.6598981963119 405.8663853369249 C171.47551430761087 396.7322135435018, 181.07642172029477 385.41355019535996, 203.377624681839 361.9198552657096 M161.5921716601761 416.9079065332078 C183.2802559702318 398.5333737480984, 198.40913711906225 377.7576873787269, 209.1932098691739 364.55786070244585 M162.91996217561203 415.22586650153744 C178.1454071987282 399.306193224671, 191.65355509287338 382.724496136742, 211.32723656828756 362.52871089537007 M161.853613479318 425.995096749419 C178.98939482802226 405.8088462092142, 192.4625730050879 392.8600119382782, 219.57107650066422 360.2782008435076 M163.83214381863078 426.72471986635503 C178.82059901665716 407.1252714401756, 192.8613956875736 390.0328322991174, 219.42242266508404 361.03920266856755 M163.20662791424414 436.7077506870948 C187.56342042443447 408.062756611825, 212.3380900549626 382.2519423292871, 227.1544750906758 361.91387809680475 M164.18408836355113 435.55479117042876 C187.2241789018837 407.50661765771827, 210.01477814137886 378.55265180734835, 226.23144424417342 361.7948342867953 M166.78628020662615 436.43049289650565 C191.074143280278 410.2770318913425, 216.2885625288737 380.86932448405537, 237.36209140630285 363.1696926876885 M167.36318206257346 437.69504003675667 C186.60848503946997 417.0462561027663, 205.07078468335 397.29200280387727, 235.4951760401989 362.77843233909306 M173.4951839834108 438.04679817501994 C191.60527744576737 419.1852649629063, 206.37905273701594 401.91346621154446, 237.40354866204572 367.43035123494246 M176.1118185247297 439.38432982341345 C190.8382624628249 419.1962612259583, 206.92288095571277 402.65901770658934, 239.34231332374304 364.4975918529625 M181.71601712055406 440.89625937680995 C201.22582350151913 419.28142883584565, 219.77310575892182 399.20794254843827, 238.02730296482386 372.02724506639754 M183.33998498164587 439.3221068080126 C199.0104019271111 422.76477991794064, 214.2890738366711 404.80605728873047, 238.97874317757 373.2025342889928 M192.91379940619888 439.7390120767974 C202.4717115579588 427.96327124132745, 212.59345960420887 416.72929328067556, 238.28083471753274 384.098229811759 M191.76698316411847 439.0347350707566 C203.97718462782834 424.4544250486149, 217.90324841839472 409.75272106796155, 240.47002103684238 383.3118368063505 M200.95550732281322 436.6618219008985 C214.5961277751969 420.5363405972965, 229.21988642708973 405.7945394858053, 241.40629933292638 391.2011257062315 M199.58829898464185 439.161437763752 C213.09647530890774 423.4308459373662, 226.98902071469917 407.7961647601962, 239.51004276113957 392.4580879725679 M209.2371241390492 438.71990607426744 C220.90809585554837 421.92433841740706, 230.51314557614415 410.455632411223, 239.53608478189767 401.4957392029769 M206.4293309401977 439.7390663255057 C220.15630024791582 422.90985548419286, 232.76194429051662 408.034541612926, 239.83522685690295 400.34039485809797 M216.9356263045 439.25449083699255 C218.57653433550112 431.7499258011624, 229.4015885144101 423.53539435191607, 242.7461252513718 409.02075676260915 M215.954156445067 438.8692372186077 C223.2342234088481 428.6919333392625, 231.5418052754425 420.50828473314095, 240.04506960685794 410.33906114454754 M222.91378573931303 440.30805488823245 C226.69820607747766 431.21959707614747, 232.8656722118553 426.0212553299156, 241.56988750956336 421.906902970814 M223.83043826836476 439.07875135872837 C229.7260265393067 431.99505122877645, 232.84307048396548 427.9196835752834, 240.352830549233 419.19755935927327 M230.8580460213661 437.18763303299545 C234.40328886324517 435.0936580618148, 234.9480753511846 434.3690108521472, 240.03427100428803 430.1091928109265 M232.11101835860208 438.8019098314385 C233.7721442611904 436.9013424866044, 235.8505073909914 434.30019860194403, 239.50836975591943 428.0724287104044" stroke="none" stroke-width="0.75" fill="none"></path><path d="M161.04107462057786 361.7739108604322 C181.1340347541526 363.1127713868231, 201.95583832558916 360.3571641939902, 235.73391457906192 359.465610412133 M163.9966863084363 362.6808663507645 C182.731966312165 362.0751363622763, 198.43911996271925 361.28730681499314, 236.04556989455276 361.04420314009974 M239.01468965551865 360.9513033095994 C234.62237252472104 388.3401616437214, 235.41254181619925 415.90857632385115, 238.1660669597509 432.52269490095637 M236.22404227989662 361.1954607760294 C235.85482802304423 382.93752402747015, 237.63131231558143 405.8440750689816, 235.57937211622067 435.6383313627811 M235.69893970428657 433.49216197502466 C214.79652409768573 433.11997368842617, 198.0710200056616 435.21439900943847, 163.486086987563 433.1848496949102 M236.34454972244927 435.4216537154936 C215.67322100432557 434.7476904126004, 192.78224464874452 433.86537921717917, 163.79638461519906 434.25400774199954 M162.51197273976797 433.6402070314561 C164.46970696767227 418.6449762966751, 161.4996685411944 401.50388265829844, 161.11587969733088 360.4022158042237 M164.07055956807633 433.7841051997274 C164.34424896566185 407.19365091676895, 163.21720704677404 379.7136494707003, 164.51929402738912 360.9137377825343" stroke="#D4CFC6" stroke-width="1.5" fill="none"></path></g><g><path d="M248.321135315867 360.7135119037156 L317.9788256856448 359.9227854083377 L318.1493203837595 433.16271063760246 L246.39792823060813 434.45534823975123" stroke="none" stroke-width="0" fill="#B8860B"></path><path d="M248.81898784611158 363.3991446430952 C270.2867680530866 364.3583190617797, 291.66407213485365 361.3673820685515, 318.1457571970967 359.48202428180036 M245.55866431997623 362.0423048961786 C274.5826458871952 360.2085835756172, 301.5280230377698 360.50478748635265, 319.9285112191884 361.65379085816716 M319.4055815273742 362.3847278875598 C320.68542829074323 387.29467894244283, 318.65892815074 411.1879478977116, 321.1204466832634 436.1812526898542 M320.6314679427951 362.6134002036937 C321.1353085763892 384.698582082217, 320.3037449544762 405.46484535528464, 319.2500886036187 434.03226023520176 M317.7578454834261 435.3101190926274 C289.8665764997575 435.2533584201545, 261.6893539729386 433.889116508675, 248.61592228210617 436.81134399351 M320.46861502436286 434.2244474697883 C294.675435189339 435.24407623635034, 268.66309037518243 436.90017383810346, 246.7193209744075 435.2744650806816 M245.2158627987939 432.7781034125397 C247.6807159972982 407.3847901737287, 246.04855045739785 381.93212972878916, 249.04602964842186 361.67212115012416 M245.73454933423213 435.1476594310399 C245.6334938690066 411.6005198518207, 247.07942581510906 390.6232780416897, 245.5506343734986 361.6010905348878" stroke="#B8860B" stroke-width="2.5" fill="none"></path></g><text x="400" y="280" font-family="IBM Plex Sans, system-ui, sans-serif" font-size="38" font-weight="500" fill="#1f1d1a">Stories to navigate difficult bosses,</text><text x="400" y="330" font-family="IBM Plex Sans, system-ui, sans-serif" font-size="38" font-weight="500" fill="#1f1d1a">unfair promotions, and hard decisions.</text><text x="400" y="400" font-family="IBM Plex Sans, system-ui, sans-serif" font-size="22" font-weight="500" fill="#999">humandynamics.guide</text></svg>