<?xml version="1.0" encoding="UTF-8"?>
<svg width="64" height="64" viewBox="0 0 64 64" xmlns="http://www.w3.org/2000/svg"><rect width="64" height="64" fill="#FAF7F2"></rect><g><path d="M7.600512235428096 7.219926438621419 L22.1337844026489 7.914517841109536 L24.09410497300502 22.9622844735308 L7.063388741085169 21.687035656360827" stroke="none" stroke-width="0" fill="#B8860B"></path><path d="M6.760049483852655 7.232938465729488 C10.60009595358439 7.227027115449944, 13.402136162171677 7.242049460300942, 23.701718467389792 7.638645771294013 M7.837858484104049 7.331789772584828 C12.275437976891524 8.236961161865768, 16.944120813522133 8.342393697562573, 23.000558897423687 8.063129094820638 M23.568165620572884 7.7121818996320215 C22.975928602850686 12.469633196211834, 21.76556207624312 17.064892079460684, 23.05325569033687 21.734115782829903 M22.169683529641837 8.001083417546562 C23.06296381823379 11.06232799186007, 22.617228384956242 13.663872455017977, 22.24547769538064 23.01495518620116 M22.872475399170142 22.884115146871256 C17.06176789149846 23.001727052650907, 12.088942076026033 21.721518106683217, 6.810547259546027 21.712295355176664 M22.4155753527024 22.84626495752508 C18.407486648079946 22.866133974642743, 14.57265873638483 23.075858726297923, 7.943311896793835 22.072084224764893 M6.78170050318499 23.4650963758172 C6.883406354051428 18.71017125963171, 7.657129484013047 13.426963074797547, 8.511538242790435 6.5926511811299875 M8.085506531366256 22.59947841523777 C8.015912645176446 17.607112088706103, 7.362574940958051 11.39918149901045, 7.744543312498939 7.527732406142035" stroke="#B8860B" stroke-width="1.5" fill="none"></path></g><g><path d="M24.34193685088027 7.90999294374219 C24.34193685088027 7.90999294374219, 24.34193685088027 7.90999294374219, 24.34193685088027 7.90999294374219 M24.34193685088027 7.90999294374219 C24.34193685088027 7.90999294374219, 24.34193685088027 7.90999294374219, 24.34193685088027 7.90999294374219 M24.47590684389784 13.973582502033393 C25.75970018849608 11.518328544989055, 28.181359964120773 8.96982846136629, 29.591863062876225 7.834820011433918 M24.52723439018705 13.895846451982328 C25.824727318152036 12.121117473230786, 26.702455777815405 10.613953743635, 29.924109669616186 7.186717247428423 M24.524646184402577 20.000651474297616 C27.348409184373143 16.687024712847414, 29.966557101206632 13.30313791152038, 35.2900834251478 7.6143840839033885 M23.978681153310134 19.67565608276985 C27.626881401818768 15.037853299459927, 31.491225901284032 11.760779150623744, 34.8498961798202 8.419830999807674 M27.651661253481524 22.125920166787584 C32.89802641598542 17.420335443180374, 37.41210656770874 12.495250687032806, 39.03588127222662 9.730329590686605 M26.943919162418755 22.494017193963145 C31.338221662596315 17.595581155288937, 33.97410648369681 13.71936993322743, 40.09903635806835 8.02477037063583 M33.21977899751734 23.856715414667356 C35.131639429763084 20.863128787708707, 35.12908364800532 18.492916588734857, 39.0140456292697 15.058851215932444 M32.00020207635366 22.89606284448488 C34.990104219643015 19.66193337980453, 37.42942306000451 17.598925975297668, 39.75232109510221 14.685744516038067 M38.19204559328078 22.464542115636842 C38.83481637923474 21.990970378440473, 39.37894921122111 21.411595706213806, 40.241695631763065 20.07984597011242 M38.06512435425212 22.658801874932614 C38.7012177414329 21.7252186735575, 39.3705580976798 21.070120272935668, 40.15373443104105 20.252613424555367" stroke="none" stroke-width="0.44999999999999996" fill="none"></path><path d="M25.68924381247468 6.771468445996819 C30.213317948024127 6.685598050759975, 34.627486541468336 8.300130173914045, 39.48639852848161 6.416503926221679 M24.825038149461655 7.088444795529924 C29.604658828872378 8.03508883193512, 35.28485066296056 7.222716518038793, 39.40138355548493 8.329834308657428 M40.22020481417057 6.861387615445623 C39.3087163415539 12.677879708802182, 40.425909262066746 18.743144179529118, 39.204298479875014 22.98071438817623 M39.046953728752484 7.232581833397858 C39.38556374078384 13.272133067564287, 40.122388724449685 18.03165947067881, 38.916349125176346 22.238802010052623 M40.0118845770601 23.640761983129025 C36.49447558967346 23.72956922235315, 30.045441914969462 22.65451081438871, 24.017832702275868 22.729870838765503 M39.70031688877057 22.457841308424367 C36.03981790620101 22.54119048099675, 33.15085272424376 22.257342534925957, 24.089688434805964 22.075390792475254 M23.696812664386385 23.000395858059445 C24.319995822862676 19.99176652144162, 23.758139620943826 14.52144160974532, 25.510192808380378 7.2967442825535835 M24.7373076933534 23.06267229767707 C24.013246610974317 18.290839932129607, 24.03716242666045 13.294224981323712, 24.79412574136679 7.995816588623571" stroke="#D4CFC6" stroke-width="0.8999999999999999" fill="none"></path></g><g><path d="M41.16287863909676 7.957071630980625 C41.16287863909676 7.957071630980625, 41.16287863909676 7.957071630980625, 41.16287863909676 7.957071630980625 M41.16287863909676 7.957071630980625 C41.16287863909676 7.957071630980625, 41.16287863909676 7.957071630980625, 41.16287863909676 7.957071630980625 M41.206457342800356 12.992020434796075 C43.43729619259429 12.256890139095598, 45.05135798895315 9.29443033317517, 46.79461467665729 7.229647449750458 M41.64090138079584 13.518286579321177 C43.32535771001163 11.569365231779855, 45.354987802820794 9.37900847543937, 46.953570878307325 7.460253870197657 M41.24190348407298 21.208991214365504 C43.20399139993641 18.578121731332452, 47.22698897464389 14.91069841801414, 52.360490267615916 8.63530249295944 M40.916153637717805 20.05481784134375 C44.29547694300735 16.283836001704174, 46.33264567406451 13.560800547890803, 51.62543088738552 7.828417954707844 M45.588079890629245 20.97197767486861 C48.70238353975951 19.6226202750663, 52.894022940116685 13.720918358359315, 57.183849907289655 9.329017501381397 M44.7670491147699 22.001909209422205 C48.805928702858644 17.530415381751062, 51.831875291823145 13.010254958768682, 56.89607378800548 8.852734196277334 M49.350108485510034 21.994212335427633 C52.20771137254426 20.054499735806722, 55.49181182670996 15.465334851451164, 57.158424185987485 13.39737597248688 M48.963449243268066 22.99785135612136 C50.356341154329066 21.5936591616095, 52.47704144002326 19.11522454428586, 57.124687865058114 14.28704715829483 M54.98190174341627 22.56078963036514 C55.46146512758577 21.859730888624217, 56.24450122652367 21.29763569389766, 56.9264270835743 20.218330305975666 M54.95207375415937 22.652910710513847 C55.506325186852905 21.972191933413853, 55.73136745858745 21.617629139713387, 56.827494182912005 20.356272196892913" stroke="none" stroke-width="0.44999999999999996" fill="none"></path><path d="M41.12741546500549 6.903115396096368 C46.25343749308623 7.927064371627048, 52.088474007938245 7.388713409037494, 55.285630578603175 6.978884550750033 M41.57123284108679 7.046060788286444 C46.33420080474279 7.208852714045548, 51.645203578832245 7.48237688509858, 56.32592395627753 7.9914188639594395 M56.25187004671342 7.164732539362281 C57.05657178120235 12.174892372863127, 55.57530123595426 19.07140820294101, 56.610804076622266 23.362289112192226 M56.464528043944846 7.147676960340044 C55.749902575379544 12.250029603762794, 56.554926720869844 16.475905665667526, 56.706581393115755 22.932046421013474 M55.1440560109975 23.2782983523793 C50.6035935622115 23.506155859129507, 44.808614831095184 22.374715668367706, 41.70881126443511 21.695746585066615 M56.17219276169993 22.66987711388538 C51.31050915112252 23.02460670972132, 44.773446924881625 22.93031762215265, 41.37352151542534 22.642732003786495 M40.40123828422431 23.606258009194498 C40.355943645618 17.144253693590965, 42.25218211337197 13.369750039134972, 40.32171469248197 8.172783506865676 M41.64403915687277 22.255266280722036 C41.481430874190885 17.507120790718, 40.94692270681988 13.314515115810408, 40.83081989857023 7.723571583197231" stroke="#D4CFC6" stroke-width="0.8999999999999999" fill="none"></path></g><g><path d="M7.997170784466615 24.177003416522766 C7.997170784466615 24.177003416522766, 7.997170784466615 24.177003416522766, 7.997170784466615 24.177003416522766 M7.997170784466615 24.177003416522766 C7.997170784466615 24.177003416522766, 7.997170784466615 24.177003416522766, 7.997170784466615 24.177003416522766 M7.284535027077681 29.943785236611244 C9.934852561474639 28.993314874609275, 11.905137360100712 26.299321956165294, 13.415290990275675 24.49726907336165 M7.787377768633829 30.4786379668589 C9.817826546120491 28.71296439477282, 11.341284909610733 26.444717422107736, 13.095636654606182 24.864070237942094 M8.365448965164878 36.88208537342034 C10.084639486525434 32.4482949876096, 14.51622444399998 28.21526457039372, 19.137266234800308 23.993386461603684 M7.072420246323828 37.25049288548735 C9.952670271407529 33.77670638052956, 12.728528613352651 31.699937398104282, 17.636386016874216 24.359273180167015 M10.319228121792918 38.77337068477084 C13.273363939943849 35.288689387185826, 17.270128302127617 31.967267876791343, 22.559357476349827 25.669690154702415 M10.446091892459428 39.34887255612667 C13.197272214019527 35.78967700249582, 16.325538645593845 32.95272289816059, 22.57471728422131 24.79441729649971 M15.096964670688417 39.66969348558365 C17.761199102413826 36.02724795144988, 22.020806811500208 33.97267840184117, 22.915758330725932 30.905815896982034 M15.38951964833767 40.120332350875906 C16.932252626196707 38.34330554378264, 19.233384985860425 36.1867898850101, 23.57383400493057 30.936017153513063 M21.292452046076697 39.76278399405507 C21.64715713675798 38.92069173799561, 22.356723736237655 38.62241409155898, 23.195618806562308 37.4485761671018 M21.101588783644488 39.606150245302125 C21.527928531343875 38.93378454730628, 21.95568592235637 38.44525715941736, 23.19484699827084 37.192644699053716" stroke="none" stroke-width="0.44999999999999996" fill="none"></path><path d="M7.010449737020936 25.779492651613165 C9.770585531901025 23.745455869255114, 13.380456163405782 24.510036102446605, 23.108106264601183 24.030475062924893 M7.196697102847106 24.265367013150936 C13.323044967667137 25.226324021178154, 19.581274069623525 24.09330965728892, 23.004998677634468 24.525268057735182 M23.030870843707046 24.196860899989858 C22.121011432727855 30.65247816112212, 23.626618580656075 35.035545767751316, 21.33223520620173 39.01958478346519 M22.332792431952342 25.137165818600373 C22.641386976589267 29.59739103108668, 22.025200230982705 36.27598567629985, 21.947056410405594 39.46212657252361 M21.809296633588456 39.81129676140279 C18.03478066429787 40.19062893361318, 15.23326524511804 38.32900393281871, 7.840355944067337 38.2965316527062 M22.63229917073711 39.4363982699258 C17.55532712260986 40.19783634259787, 12.10217855358373 39.8547677847746, 8.062274313455012 39.47544939989311 M6.631455019967703 39.30708236101434 C7.068887124101459 32.82215552240104, 6.937603157159418 26.780306321611462, 6.591395733508123 23.386892897083932 M7.100361183591428 39.52327705402011 C7.282072449568287 34.401126405882785, 7.662949029013008 27.969065920773634, 8.011423669771021 25.083546449439048" stroke="#D4CFC6" stroke-width="0.8999999999999999" fill="none"></path></g><g><path d="M23.61386192129035 26.13337574909319 L39.61541340122084 23.20607506673077 L39.78150600630261 38.734098360703804 L24.061161331918044 40.120112101902436" stroke="none" stroke-width="0" fill="#B8860B"></path><path d="M23.653672481148252 23.650751617638708 C27.32281952137359 25.199309282640478, 31.698295970043954 24.334057033025562, 39.673013478077 25.729194186590245 M24.9353407823357 24.519441801351327 C27.92231720123429 24.01259378444577, 32.173981905207214 24.70407180917018, 39.423289230816906 24.651859050908126 M40.587678406746 24.753348146688584 C38.41963764977601 28.260459920153185, 39.34225891362859 32.93496499807011, 38.96634707135226 39.337320820698395 M39.123720033822856 24.485696681562715 C39.68144625423651 28.574364526663288, 39.97468987100368 31.876340291264327, 38.900621656155124 39.88131953471215 M39.27009634782117 40.031732077633485 C35.70302896686528 40.538895415186225, 29.360253300904123 40.31948396732571, 25.14072821648527 39.82836371402728 M39.65352418904692 39.95820379187394 C34.66391854674913 39.813321954061244, 29.267937148828388 39.403357392336915, 24.464290975461118 38.87337100628904 M25.232228705865253 39.91995420151761 C24.528248559153223 34.73591641134487, 24.533758623846428 32.13369293832151, 24.04086010770846 25.71908295063127 M25.072320743630414 39.568426942767914 C24.16976009731148 34.08328392158756, 24.814680472294643 29.606039413910445, 24.360205297110898 24.26343838468576" stroke="#B8860B" stroke-width="1.5" fill="none"></path></g><g><path d="M41.63905436089961 24.271160790999645 C41.63905436089961 24.271160790999645, 41.63905436089961 24.271160790999645, 41.63905436089961 24.271160790999645 M41.63905436089961 24.271160790999645 C41.63905436089961 24.271160790999645, 41.63905436089961 24.271160790999645, 41.63905436089961 24.271160790999645 M40.9823128502607 31.260181091556298 C43.56354737659719 28.397882613117474, 44.77900053404934 26.465445726589493, 46.2143581305773 24.12675313336964 M41.40383387155323 30.924548542758902 C43.17622899623544 28.942424696222712, 44.66956952545123 27.216770314958428, 46.87678545206424 24.88655706369125 M42.362588279003454 35.95557977834206 C44.732887247323646 34.38088400961438, 48.25932388848453 29.012987728934018, 53.464578303268624 25.724411987902258 M41.804692270883976 37.690938972791336 C43.65509004717951 35.0019510180476, 45.48808863557493 31.31180478609985, 52.000757815450086 24.269182433812563 M44.05619186294479 39.589550941140445 C48.949075172786465 36.931056262754176, 51.638859693627026 32.605646073138516, 56.10611991602141 26.388970159849077 M44.476685464959814 38.96892125896875 C46.943464474027415 36.265668447074574, 48.981435462033 33.53256915837809, 56.828719640235555 25.630221591125558 M50.603151950925195 38.65213728525054 C51.98609531996122 37.39326827035217, 54.170397853509506 35.619306870820296, 57.927661218306376 30.94904469551176 M50.04160518764939 39.56815263708544 C52.29640087413293 36.45211058404517, 54.89242665936975 32.8330862573383, 56.68666214526126 30.689712900622975 M54.74927405679531 39.750712137040914 C55.55670994214065 39.07665629618317, 55.66323200719863 38.466319448779096, 56.763981660795785 37.39870249607239 M54.76719847287359 39.775340929178576 C55.282659194273 38.862134412533905, 55.93882664699755 38.244155538374066, 56.66625490903462 37.32408642820515" stroke="none" stroke-width="0.44999999999999996" fill="none"></path><path d="M42.42063683936146 25.786313448386398 C45.92475423852047 25.282949558336508, 51.63647794418867 25.17228615269604, 56.35446204169615 24.846628648692032 M41.7336035394974 24.115778846093182 C44.77598378394621 24.23842329967291, 49.04023824953477 24.548534328181482, 55.939106243428 25.026981529729074 M55.36264674536461 23.93489634020128 C55.118227419409514 28.828900746401338, 56.816472264142696 34.13383201125877, 57.174190257686305 38.99200154552096 M56.1716971890874 24.664277306900395 C56.19601022020405 30.018669178996177, 55.935368121715605 34.66759796885761, 55.917734609811575 39.74230793850226 M55.68859921955796 39.42211650322419 C51.64554484932947 38.82543617982142, 45.68696362701016 38.80774398816549, 42.385201697103405 38.550518060511834 M56.80116372906999 40.08210883983867 C51.60219846341462 39.19634017141588, 47.64978909153904 40.14420591578173, 41.43179244245847 39.13541983605229 M42.42362643427275 38.879617926621286 C40.396383806797104 34.78614824056833, 40.55477889561247 30.490071722685872, 40.423620867995176 23.72582818403175 M41.539363837273875 39.75147129279956 C41.261251124981406 34.12539430825838, 41.71494471808547 27.325654288011908, 41.824442255085735 24.480531246446805" stroke="#D4CFC6" stroke-width="0.8999999999999999" fill="none"></path></g><g><path d="M7.817287477278953 41.245802156764555 C7.817287477278953 41.245802156764555, 7.817287477278953 41.245802156764555, 7.817287477278953 41.245802156764555 M7.817287477278953 41.245802156764555 C7.817287477278953 41.245802156764555, 7.817287477278953 41.245802156764555, 7.817287477278953 41.245802156764555 M6.900601747323181 47.20248801592639 C8.898803161807997 46.18499835972667, 10.572619680181504 43.50383176670292, 12.829064116063362 41.02813154602446 M7.383258896940626 47.84688054738222 C8.985583404987148 46.000619673369464, 10.724527925713092 44.2513154003631, 12.972890053291545 41.825652466370755 M9.069678709781689 53.67294475398208 C12.036830273808768 49.75676548990585, 15.487419614534632 43.5321401404665, 17.802312683071623 40.86436941103938 M7.350377002579167 53.60619390495865 C11.29482435496272 49.54899192442615, 12.937164268316325 46.673599560961925, 19.10904567260574 40.724630592234675 M10.492630639139124 55.53531079212742 C11.848518290988492 52.6752143349274, 17.56665635293177 49.733410420219336, 23.513066282269378 41.823870982936825 M10.920822932683011 55.9804521411222 C13.172542760446026 53.30209999964456, 16.36952937358887 49.400005305843024, 23.80345562027688 41.12680528333734 M15.320051959239947 55.37979133307181 C18.208371115244372 53.61211633214737, 20.8862457821478 50.68014694908863, 23.265614024448407 48.3565844135983 M15.975223921566286 56.5237809797135 C17.62100571506851 54.31830009631838, 19.864266080586304 51.75133856951132, 22.893988936444963 48.288949508014944 M21.13365171906449 56.44042855496994 C21.536925361070406 55.94253338263468, 22.07139799391016 55.63198786064293, 22.73966107719177 54.56057871615455 M21.071819161533142 56.685737495713234 C21.399017971903504 55.923572884043196, 22.140597562182247 55.34731464681003, 22.950091547779028 54.43797918600514" stroke="none" stroke-width="0.44999999999999996" fill="none"></path><path d="M8.631739355291373 40.65013605401647 C11.261193458201245 42.45101057279661, 14.159026682092023 42.126748617682566, 23.702811802789785 41.92930162218721 M8.274038179979826 41.03173966762382 C12.287347305588636 41.8893199327234, 17.287061455842956 40.958983889368, 22.855764827694525 41.021399840248705 M22.289137879225095 42.07468912281267 C23.159815346633263 47.38104692424479, 22.323352014239447 50.52803576912794, 21.786285446261456 56.220446125271266 M22.6291858000956 42.009449722281744 C22.972090876376075 44.157296350309394, 23.036656462884004 47.02587342552874, 22.833000383719295 56.19283322421324 M22.856824351507292 56.310144190721886 C17.779455237660876 55.652933196024414, 11.01427500492743 55.65220755621026, 8.775373571413553 56.486443639744955 M22.72096222811504 56.08289316392726 C17.399881029517484 56.24235536764002, 11.833761191257613 55.88395676879324, 7.797523069705168 56.31549861043117 M7.581681388399463 56.142387384796244 C8.84410303056237 53.139472225165676, 8.065132659261815 47.58187799855912, 8.347938800272718 41.792867173182195 M7.078243287313893 55.92016100479476 C8.16602975482127 53.417761708868596, 7.9313493124060255 49.042622006847, 7.736488017007245 41.06128563639477" stroke="#D4CFC6" stroke-width="0.8999999999999999" fill="none"></path></g><g><path d="M24.638229265495447 41.292880844002994 C24.638229265495447 41.292880844002994, 24.638229265495447 41.292880844002994, 24.638229265495447 41.292880844002994 M24.638229265495447 41.292880844002994 C24.638229265495447 41.292880844002994, 24.638229265495447 41.292880844002994, 24.638229265495447 41.292880844002994 M24.465419002727458 47.84689672969132 C25.951767966336593 46.31926486030691, 27.65316200195423 43.25078879773524, 29.81215975937501 41.32477902128093 M24.471608768928114 48.01373849057082 C26.52621260636738 45.21840298996914, 28.38256190880266 43.016432127279394, 29.867370552342166 41.399874723333404 M23.40719825646761 54.29205971182184 C26.93141059244783 50.24997153715011, 29.94116691550214 48.41296606929433, 34.67153566882723 41.457705303034146 M25.433681113253144 53.828876262793855 C27.633968446246726 50.158633060956845, 29.85820557196148 47.959392581958866, 35.44609477135106 41.44925620409795 M26.61104467367382 56.369388005933935 C32.99868971090094 53.055323926479204, 35.0272878580026 48.11102467170637, 41.65764084661239 40.418043320727755 M26.991888003451713 57.36922492831131 C30.89211513795522 52.24954121847541, 35.58144603787236 47.84848456862853, 40.15850375979914 42.0287875865025 M33.18963932546908 56.52546345190108 C35.61209551201353 55.08948319640666, 36.08656391715832 51.95970613312742, 39.95692340317755 47.69533334918947 M32.66778220318415 56.652494872748804 C35.21882236787592 52.92379393208332, 38.30744129684598 49.518758184503554, 39.70875431683406 47.89453768939508 M37.848873602234875 56.72237781326154 C38.4728321890467 55.813230595306806, 39.25272868686347 55.13979133293744, 39.63734089282108 54.55863527673054 M37.860331945319224 56.731478697207045 C38.492590593706616 55.77916595126336, 39.33366403112272 54.899611270807554, 39.674774560935965 54.50246082805335" stroke="none" stroke-width="0.44999999999999996" fill="none"></path><path d="M23.258942955005825 42.512117117976125 C27.468329130047266 40.39109579487526, 32.236758969014964 40.98468210121312, 39.097038826291865 41.50455552187122 M24.318225854423073 41.23922713215556 C28.242698317352755 41.11692465991414, 31.128296195491696 41.61645441498785, 38.85822905973041 41.96439999844157 M40.59682290636168 40.112999647263635 C38.82695025765583 45.13551351204503, 38.67662850733367 47.7233467844232, 40.54065805928771 57.59519015440477 M39.68338500475601 40.969849164256274 C39.74677020707114 44.50523025087067, 39.9364524171793 48.97133780331556, 38.86140334434437 55.80793990871615 M40.47596567284976 56.10607763019756 C34.710801930995785 56.787397246745, 26.816253645606437 56.939138235271976, 24.532375058828137 57.42195307637086 M39.62871444093426 56.924646958930055 C36.72323172673113 56.074745772791566, 33.57074275554373 56.10332930442803, 24.199987946115744 56.46548727811267 M25.768446462405713 56.63036615426415 C25.632698373334378 52.35537954147664, 24.792300881388698 47.9116876607111, 25.17289398189016 40.74525009620573 M23.92540395183065 55.90679474468016 C24.780364371151197 50.5150335412629, 25.13352239387621 46.29542704542239, 24.051202664844464 41.45138007130225" stroke="#D4CFC6" stroke-width="0.8999999999999999" fill="none"></path></g><g><path d="M42.588348360987375 40.47729337103213 L56.439700494174616 42.80391314354189 L55.30792542130864 56.20334242158572 L42.88513751692246 57.23095801140385" stroke="none" stroke-width="0" fill="#B8860B"></path><path d="M40.38847254781769 41.66610035000868 C46.368118522939426 40.45246583952268, 52.522060274145915 40.47912925160313, 56.370315364665736 41.1886160989374 M41.1270669450508 41.46134228597469 C46.376578848441014 41.09616222793639, 50.7616495667493 41.26753251214168, 56.68054661801809 41.06248395448428 M57.2992196568997 42.16304269309841 C55.35085508154267 47.602771979975586, 55.11293009079684 51.31892647545525, 57.14749151154563 55.9673068940744 M56.32990739497219 41.864861703409396 C56.483215358932206 45.0731611454532, 55.976906741498624 47.897764027892975, 56.53221775501689 56.587937094555365 M55.72692241499154 55.1416183250707 C51.186012623007095 55.10147405369842, 44.41552952557142 56.31306448696772, 41.66814926704058 57.35112394306251 M56.62695718096788 56.01203837068243 C52.75589213533024 56.075969756728625, 50.469307255163734 56.12524474824347, 41.80050463325767 56.66238562483084 M41.55152175290657 56.4760685137 C42.2860959529664 51.081820051686975, 40.74694200527022 47.205494552293494, 41.86342505279601 40.421325953467324 M41.21408637812623 55.950554859615885 C41.747246414695546 50.34797671668078, 41.18515811881394 45.048880973106456, 41.54237758868329 41.18748426598604" stroke="#B8860B" stroke-width="1.5" fill="none"></path></g></svg>