<?xml version="1.0" encoding="UTF-8"?>
<svg width="800" height="600" viewBox="0 0 800 600" xmlns="http://www.w3.org/2000/svg"><rect width="800" height="600" fill="#FFFFFF"></rect><g><path d="M370.13177959743473 100.04325866689594 C369.8852211874021 229.0419533265779, 370.64562193845865 357.44364496769464, 370.8346830612458 460.27744905915364 M370.1022026661235 100.20192283138265 C370.9371911095494 241.94307667288038, 370.1516291503312 384.0975885947637, 369.5139826203209 460.47687336039854" stroke="#000000" stroke-width="2" fill="none"></path></g><g><path d="M430.68019019953783 99.57853924605503 C431.7646264446724 188.02955686257914, 431.1504620916081 275.2277745158337, 430.7859062141572 459.25171357677374 M429.5127663133966 99.5662970667281 C429.2179933560948 194.24739126241144, 428.9116142813338 289.1807432609771, 430.4737639474943 459.8131599027344" stroke="#000000" stroke-width="2" fill="none"></path></g><g><path d="M369.1759868612206 140.27053099347017 C390.32785433330673 141.1410129428601, 413.5248036671496 138.86576885365187, 429.9443050766276 139.44393997651858 M369.74199532665847 140.02623792883287 C392.2952692620468 139.34708894096642, 413.01173897803244 139.850419733495, 429.9989879070147 140.1830535452096" stroke="#000000" stroke-width="2" fill="none"></path></g><g><path d="M368.5411389698351 190.16844127651063 C388.2674856756758 188.86093942668217, 408.4699374338412 190.83238318531232, 431.0733795383415 191.25096165828032 M369.23246462405547 189.81213457642252 C392.04126985153465 190.79776724669054, 415.10463288771285 189.4136279184012, 430.6843408112204 189.46105067619294" stroke="#000000" stroke-width="2" fill="none"></path></g><g><path d="M369.6443158151071 238.5302078098454 C392.8297187371801 241.1508674804912, 416.9640108460874 241.2778585256245, 428.42660067415255 238.52938161343192 M369.3208765115126 240.63058466725474 C387.3064359194559 239.4701179260268, 405.513934934848 240.28731830824256, 429.43624255286244 239.8596183956237" stroke="#000000" stroke-width="2" fill="none"></path></g><g><path d="M369.1826283905108 288.531897875419 C386.06284772817673 291.2672368628911, 400.99709585629626 289.63272861021983, 430.9403036954794 289.3935047127454 M369.99080443299493 289.4822529416323 C392.1127997374604 290.3640672330593, 412.69474746228354 290.4104982458339, 430.16595076005905 290.4979343864706" stroke="#000000" stroke-width="2" fill="none"></path></g><g><path d="M368.5473636670352 339.4621190609845 C392.66470752650605 339.3768273342101, 418.0278340990656 339.04447616422135, 431.5691625845079 339.9850773996521 M369.6847340372976 340.05500726794435 C390.4203802098188 339.6680934249567, 412.4908977430524 340.2312893140832, 430.3994535498877 340.36950083313786" stroke="#000000" stroke-width="2" fill="none"></path></g><g><path d="M370.8875283835875 389.34334589897463 C392.14453743280825 391.396544324351, 411.17587558057124 388.83948451174695, 429.5309869471182 391.5850107598616 M369.29982276810756 390.23641119799106 C386.2419526497872 389.72283466508, 403.5025631098643 389.18018525998633, 429.75211064479817 390.1332490045466" stroke="#000000" stroke-width="2" fill="none"></path></g><g><path d="M370.90827907910557 440.2519362737512 C385.34294912011063 440.8803031512792, 398.55169097059553 440.35902256788637, 428.6682434706808 440.896569538773 M370.52702625992015 439.37470890174563 C393.36589728293023 439.86016799596115, 417.4369088544216 440.28017202047016, 430.63136898845255 439.33638389382065" stroke="#000000" stroke-width="2" fill="none"></path></g><g><path d="M400.302034035111 56.97719668410619 L405.1028474428557 69.77405363639905 L418.4009236560692 70.94977909876602 L406.6442183019218 78.60676591889893 L411.1024206540317 89.1477476859358 L400.90201918950845 82.62029875570578 L390.0626725222542 88.2651237298235 L391.58009763582 77.17622960270107 L383.5383425516417 69.31366291096234 L394.8730248551891 69.01716086399848 L400.04113169552437 58.10009044946665" stroke="none" stroke-width="0" fill="#DAA520" fill-rule="evenodd"></path><path d="M400.1590954013963 56.281584319257945 C400.7686301591918 60.517565417422375, 404.3094332520502 65.75268276016273, 405.21508633910554 68.34622776825628 M399.6796708648174 56.76740714464018 C401.7692678021309 60.57830412241807, 402.807303413783 63.77714324421865, 405.0766627986904 68.10677806654145 M404.440726888592 69.03934436335976 C409.5842953735333 68.6153190261184, 413.34898384674517 68.94075681390929, 417.71050359508746 70.33723109671696 M404.5007786305915 68.97794480121125 C409.2032806825809 69.12005510784488, 412.5178089131361 69.2094158252329, 416.74878570293447 69.57053271409576 M417.0810578978238 69.40635612140782 C415.41383424888505 70.37403550893133, 412.711040959662 72.30755268584369, 408.1020098595856 77.37283522772044 M417.1316902568656 68.95910070220401 C414.82733793788196 70.96773640220385, 412.37599005774035 73.27699327600041, 407.43140000364275 77.83871716375627 M408.125791268959 77.84620360210761 C407.66025549203124 82.20363853538838, 409.02304214015675 84.84378188498707, 410.99245866866556 90.39781557872736 M407.51398895407146 77.71483223128529 C408.4944955583538 80.47460442959688, 408.65316319369515 83.19005578106598, 410.16540295294965 89.41260557406244 M410.269508327593 89.99835542253021 C406.713978489954 87.66817454867304, 402.4672190334746 85.39203878458066, 399.78679761764147 82.66590978702341 M410.8394596309467 89.65219212439872 C407.26177502790966 86.99988657898426, 403.51895290363 85.08067087844546, 400.4780119475443 82.53635604175712 M400.7225778107888 83.38627575433152 C396.6032269916492 85.41771588688103, 392.6151069562114 86.65632479477969, 389.26548953712876 89.75484512699337 M399.5139597152809 83.05581315509845 C395.6416710028754 85.31927323787052, 392.208337168955 87.78268513249863, 389.18134806115376 89.81976337204777 M389.7775687379738 89.55800247542618 C389.6129063195438 85.92371767913889, 391.90276117061336 80.50547360611577, 393.30815140064516 77.11942491092476 M389.429272483052 89.71225383893581 C389.9938469046409 85.46531643870628, 391.52732654351416 81.6816766944199, 392.11600576232524 77.01567825489636 M393.2849471547265 77.66082423524716 C388.9726614665196 74.51621164393246, 384.46622714184645 71.83236600548285, 382.6470976759408 68.90738014422261 M392.5592832308677 77.4344583732185 C389.2061179339794 74.33040510612389, 385.8316350408383 71.68136703914732, 382.7636240408099 69.20770222278134 M382.18765972389065 68.62199502435124 C385.7261342507995 68.4639776597802, 389.5620801962131 69.41589796249926, 395.2611175055917 67.61398109480788 M382.7786194803914 69.80073351628538 C385.895129139887 68.92490405399965, 388.8285505807199 69.25104034591511, 395.05829170934857 68.30232546128157 M394.66388934744583 68.32673828078383 C396.98633444506896 65.47037770959614, 396.8134204479101 64.17159113940707, 399.83298703401465 57.7681509985993 M395.49407206749936 68.19079961978048 C396.83020929393393 65.10174496823822, 398.7072646622266 61.02964871683748, 399.77205927215846 57.1564201343052 M400 57 C400 57, 400 57, 400 57 M400 57 C400 57, 400 57, 400 57" stroke="#B8860B" stroke-width="2" fill="none"></path></g><g><path d="M389.1872716886729 167.3886576638473 C389.1872716886729 167.3886576638473, 389.1872716886729 167.3886576638473, 389.1872716886729 167.3886576638473 M389.1872716886729 167.3886576638473 C389.1872716886729 167.3886576638473, 389.1872716886729 167.3886576638473, 389.1872716886729 167.3886576638473 M390.87408207926893 177.8557093469293 C394.5271860181413 174.61535361836079, 399.66207268144774 168.79540212230162, 401.33404458429175 165.4773981545437 M389.7556652346997 179.69253413473805 C392.87897038086606 175.2373915432324, 396.4137674544242 172.41452682817462, 402.619562143196 164.4587997227457 M392.6408507238071 186.7945956257925 C399.75523229409845 181.7719304205837, 403.3093130795438 175.89823511373152, 410.45934227031944 169.06119242725873 M394.49828235777636 185.3985399449942 C400.05384030855987 179.24899962369886, 405.5916859728186 172.6758085242521, 409.9510972705373 168.12813338038524 M403.77798975651706 185.58435860930777 C407.7027987444999 183.4332451789452, 409.68837108079214 179.97349677901178, 412.38573309467716 176.54928768021531 M405.04375879596427 186.45749002931413 C406.4878670545005 184.0887647922308, 408.89617568873194 181.29214385477883, 413.31608038722214 176.85858206732067" stroke="none" stroke-width="1" fill="none"></path><path d="M404.4584465277365 163.72335754341844 C406.82116211690754 164.44734613900465, 409.9366139045127 166.26302592405895, 411.3878002078117 168.66610525586648 C412.83898651111076 171.06918458767402, 413.6563718553104 175.41775069156472, 413.16556434753085 178.14183353426358 C412.6747568397513 180.86591637696245, 410.81667371433116 183.53193222644668, 408.4429551611343 185.01060231205972 C406.06923660793746 186.48927239767275, 401.72254724073275 187.01241011585728, 398.9232530283496 187.0138540479418 C396.1239588159665 187.01529798002633, 393.56391770715925 186.66388766191528, 391.64718988683546 185.0192659045669 C389.7304620665117 183.37464414721853, 387.84017577263035 180.07615672520723, 387.4228861064069 177.1461235038515 C387.00559644018347 174.21609028249577, 387.7951302869074 169.7443725788612, 389.1434518894948 167.4390665764326 C390.49177349208225 165.133760574004, 392.4298997132672 163.76328523988258, 395.5128157219313 163.31428748927993 C398.5957317305954 162.8652897386773, 405.35199700923647 164.4358803043358, 407.6409479414793 164.74508007281665 C409.9298988737221 165.0542798412975, 409.37636097651557 165.01047705618387, 409.24652131538824 165.16948610016513 M397.8238401440249 163.09201588472507 C400.68053184384956 162.82667836338862, 405.231697251712 163.032439460511, 407.78330395530025 164.68351358919372 C410.33491065888853 166.33458771787645, 412.41203628266294 170.38293230848885, 413.1334803655546 172.9984606568215 C413.85492444844624 175.61398900515414, 413.31031534926285 177.93095840064774, 412.11196845265 180.37668367918965 C410.9136215560371 182.82240895773157, 408.441072149581 186.50794639692117, 405.9433989858776 187.67281232807292 C403.4457258221742 188.83767825922467, 400.10124304355304 188.43484132533206, 397.1259294704298 187.3658792661002 C394.1506158973066 186.29691720686833, 389.64875415748776 183.64338387248293, 388.0915175471381 181.25903997268168 C386.53428093678843 178.87469607288043, 387.31057570785487 175.82642314697216, 387.7825098083319 173.05981586729266 C388.2544439088089 170.29320858761315, 389.01845312837986 166.37519294624735, 390.9231221500002 164.65939629460462 C392.82779117162056 162.94359964296189, 397.7771237449852 162.97548890399867, 399.21052393805417 162.76503595743634 C400.64392413112313 162.554583010874, 399.4284824071704 163.21143052245515, 399.5235233084141 163.39667861523063" stroke="#000000" stroke-width="2" fill="none"></path></g><g><path d="M401.5965195336515 187.39896051990235 C401.0163209581833 197.81273643437873, 399.0104978604068 206.9320433299167, 401.42566451539614 229.28398493312207 M399.6594605710148 188.5040241712969 C400.4566376668592 199.16005101509057, 399.17015379470456 211.7507314626511, 399.2514804246449 229.45402110959702" stroke="#000000" stroke-width="2" fill="none"></path></g><g><path d="M400.09755750454946 231.39107476169755 C397.8960438991755 237.85666981182928, 395.0996780863998 246.19407392968913, 383.59569334737813 271.04747050275336 M400.071433905558 229.50019399557277 C396.13034998411405 240.69996863264004, 392.3990987077129 251.33759073822787, 385.5883899797498 269.4262037037419" stroke="#000000" stroke-width="2" fill="none"></path></g><g><path d="M399.79597991359327 229.04924897536094 C407.2764076642725 244.75596817058874, 411.0115422265494 258.0877580519737, 413.8616227565715 270.136198277306 M399.40573959525557 230.4316141552297 C406.12018706246835 244.3991706443035, 412.0042640302663 259.8694806538815, 415.34518530134034 270.3781637737438" stroke="#000000" stroke-width="2" fill="none"></path></g><g><path d="M400.7716259147665 204.8602797752408 C395.67365407386626 194.14277034590518, 388.9296706381012 183.7626348628177, 381.4133580876287 169.9472687085465 M399.7581373719314 204.63174222545618 C393.7815933300648 191.65543346857038, 385.6272407232947 178.54044004939647, 381.66167562902206 170.2808595726338" stroke="#000000" stroke-width="2" fill="none"></path></g><g><path d="M399.0422428568923 204.77898979399023 C408.6113534684874 190.5164441411099, 414.60958672189184 176.9866139986705, 417.1793848705878 171.2855606033487 M400.272829434263 205.79382320493713 C406.4202894646058 191.40577879936907, 413.9247873944311 177.37984842674553, 418.50043435635644 169.36029654191165" stroke="#000000" stroke-width="2" fill="none"></path></g><g><path d="M172.61832093441916 332.90661017453164 C172.61832093441916 332.90661017453164, 172.61832093441916 332.90661017453164, 172.61832093441916 332.90661017453164 M172.61832093441916 332.90661017453164 C172.61832093441916 332.90661017453164, 172.61832093441916 332.90661017453164, 172.61832093441916 332.90661017453164 M167.94105855233823 349.0823423879381 C171.4539364634062 346.37973129688294, 176.90086186956955 339.3845842065084, 182.06054900006487 334.3981997304418 M168.9360357755394 350.09997022046855 C173.8975879374612 343.4874006024255, 179.16318800734 338.14198640963474, 183.66295445053987 333.21090712828334 M173.37955255705685 355.02997730727327 C179.16881735282277 350.44913934193755, 183.22134750583356 345.64862157391434, 190.51130827216184 335.81702508396364 M173.13415871460975 355.94159768865757 C178.47048688966765 349.01093009113805, 184.5137092819208 343.17152778258145, 190.28346909413207 336.2827400503683 M182.85231391789384 358.13135672943974 C184.80126651895608 355.0016776149073, 186.3347007823946 352.81427747046934, 193.8112990642082 346.2889225716511 M182.58031775833095 358.7967787143783 C186.2691979784615 353.6576180197894, 190.10715392567397 350.49440817884573, 192.85050548605741 346.6002083159563" stroke="none" stroke-width="1" fill="none"></path><path d="M182.51344374456596 332.11626468907326 C185.3153550309202 332.43855281842787, 188.17607246476055 334.70697324099945, 189.97343809012207 336.6965081734492 C191.7708037154836 338.686043105899, 193.09100153809854 341.234370990887, 193.29763749673506 344.0534742837719 C193.5042734553716 346.8725775766568, 192.93956071678284 351.2562065131949, 191.21325384194125 353.61112793075876 C189.48694696709967 355.9660493483226, 185.90729787882077 357.6594833746366, 182.9397962476855 358.18300278915507 C179.97229461655024 358.70652220367356, 175.90563299916164 358.02272737151225, 173.40824405512964 356.7522444178695 C170.91085511109765 355.4817614642268, 168.92218219285468 353.1099258169886, 167.95546258349358 350.5601050672987 C166.9887429741325 348.0102843176088, 166.81352875270417 344.4154182011764, 167.60792639896314 341.4533199197301 C168.40232404522212 338.49122163828383, 170.1567901574137 334.3768068581132, 172.7218484610474 332.7875153786208 C175.28690676468108 331.19822389912844, 181.02116754745597 331.8420990814457, 182.99827622076538 331.9175710427759 C184.97538489407478 331.993043004106, 184.45328862825556 332.9536449052025, 184.58450050090377 333.2403471466016 M183.34268248967683 333.0448533030081 C185.9542409306778 333.46696895740354, 189.44685691959097 334.1254621482599, 191.22895028088206 336.5742707030763 C193.01104364217315 339.02307925789273, 194.34703192356704 344.8007489787912, 194.0352426574233 347.7377046319068 C193.72345339127958 350.6746602850224, 191.78628449601973 352.22009194123206, 189.35821468401974 354.1960046217698 C186.93014487201975 356.1719173023076, 182.45394494698195 359.2077748065134, 179.46682378542346 359.5931807151335 C176.47970262386497 359.9785866237536, 173.42242094743835 358.3730598516902, 171.43548771466877 356.50844007349053 C169.44855448189918 354.6438202952909, 168.11527799490668 351.48725845030447, 167.5452243888059 348.40546204593574 C166.97517078270513 345.323665641567, 166.7772378553742 340.7495277772047, 168.0151660780641 338.01766164727826 C169.25309430075401 335.2857955173518, 172.50463269598595 333.11180023777314, 174.9727937249454 332.0142652663769 C177.44095475390486 330.9167302949807, 181.16188695824331 331.26410319440794, 182.82413225182088 331.432451818901 C184.48637754539845 331.600800443394, 184.9021871246027 332.59110974185694, 184.9462654864109 333.02435701333525" stroke="#000000" stroke-width="2" fill="none"></path></g><g><path d="M179.42952572727938 358.38472264066684 C179.3120792206751 368.0505595833883, 180.5651994196347 376.48835567612343, 180.2791544817875 400.93912000969726 M179.37904344070316 357.7618063759586 C180.22902855542426 370.61476257911926, 180.41995568413972 383.4454515890032, 179.50032295114795 400.5245143269768" stroke="#000000" stroke-width="2" fill="none"></path></g><g><path d="M178.65158093463074 398.55074213979293 C175.98623122895174 412.03099680083614, 169.24414346481447 425.68722463266454, 164.9863574107268 441.20227173748077 M179.2480143519046 399.65979244739617 C175.2485363451396 413.77827408538724, 170.421230686199 427.735919268491, 165.69606777661184 439.69089722813226" stroke="#000000" stroke-width="2" fill="none"></path></g><g><path d="M179.99203020292893 398.7173374722404 C186.74736612006117 414.4509986430746, 190.12351425171343 429.4707935182706, 196.31347653660677 438.6285429702271 M179.4883513818067 399.903418126844 C185.12107962618518 413.98919237994346, 189.3484648648847 426.0848339549333, 194.38840104048165 439.3073984016127" stroke="#000000" stroke-width="2" fill="none"></path></g><g><path d="M179.07752511911028 376.59584065641496 C191.3997134663786 372.029952023196, 203.16057871095612 366.705274374029, 229.8624084742017 359.8314906427993 M179.57554186269897 375.10013090467874 C193.6114634115851 370.2417765606889, 208.08170204075674 366.10998997832417, 229.71351996905474 360.2770130816581" stroke="#000000" stroke-width="2" fill="none"></path></g><g><path d="M180.55321452195577 379.4989585659665 C192.04622537835536 378.59682130553426, 202.67735428216432 376.74447275207865, 223.9048227221058 375.2124481772458 M180.47171874860808 379.8204830921046 C194.1938233194921 378.96896983632587, 208.05796776251447 376.3641446324059, 225.3260382698253 375.16704102480264" stroke="#000000" stroke-width="2" fill="none"></path></g><g><path d="M268.8938167558909 347.6969462146804 C268.8938167558909 347.6969462146804, 268.8938167558909 347.6969462146804, 268.8938167558909 347.6969462146804 M268.8938167558909 347.6969462146804 C268.8938167558909 347.6969462146804, 268.8938167558909 347.6969462146804, 268.8938167558909 347.6969462146804 M268.68411677825725 359.343942049145 C272.4722861809611 355.45954410899066, 274.06470039031774 354.42249252338553, 281.67409907890357 344.61938012969216 M268.8878092905417 359.6546624001199 C273.9442130066523 352.75473096122954, 279.29794426810076 347.25168101457416, 282.2293974991539 344.60400087449386 M274.221707054654 364.3491965724622 C280.03874085657327 358.66317438496435, 284.92468869148263 353.75685603855936, 291.55774827784376 346.5476218414998 M275.1282260700669 365.70312477876826 C279.6486199254228 359.7167443687065, 284.99579548836687 353.298076735928, 290.52970188546476 348.41149919724944 M284.6146142812374 366.55338764006984 C287.81980778729206 363.1707724175699, 290.03901971437085 360.10907062058243, 291.6469766221792 357.5159792684872 M285.3212215649691 365.74753943087825 C287.6807401986142 362.49300420604163, 290.5868228018834 359.53688807395594, 292.29302380107254 357.1143016684778" stroke="none" stroke-width="1" fill="none"></path><path d="M277.00626558254686 343.13083930895675 C279.46154011224655 342.26333375417465, 282.51398123884167 341.88615651478324, 284.9246964843625 342.9532503721452 C287.3354117298834 344.02034422950715, 290.2887210502942 346.9290802671709, 291.4705570556722 349.53340245312836 C292.6523930610502 352.13772463908583, 292.7826451385654 356.11459978363274, 292.01571251663034 358.5791834878901 C291.2487798946953 361.0437671921474, 288.92752735126163 362.7855194937637, 286.8689613240619 364.32090467867243 C284.81039529686217 365.8562898635812, 282.1507700657429 367.85490922870815, 279.66431635343196 367.7914945973428 C277.177862641121 367.7280799659775, 273.9207769851033 365.83146474354464, 271.9502390501964 363.9404168904806 C269.97970111528946 362.04936903741657, 268.3448301105125 359.1589663792171, 267.8410887439902 356.44520747895876 C267.33734737746795 353.73144857870045, 267.487991610774 349.85088768960776, 268.92779085106275 347.6578634889308 C270.36759009135153 345.4648392882538, 275.0513649649732 344.15186598330683, 276.4798841857228 343.28706227489687 C277.9084034064725 342.4222585664869, 277.3523682066699 342.47873005844224, 277.49890617556076 342.46904123847094 M283.0272950051848 343.35521657162394 C285.45161628465104 343.9071355503968, 288.5699629475914 346.52228506876605, 290.3200710493675 348.69062838948867 C292.07017915114363 350.8589717102113, 293.66797649047425 353.9812443901122, 293.52794361584154 356.3652764959597 C293.3879107412088 358.7493086018072, 291.4007139792946 361.08134369988574, 289.47987380157133 362.9948210245736 C287.55903362384805 364.90829834926143, 284.6116225451905 367.57230073402286, 282.00290254950175 367.8461404440867 C279.394182553813 368.11998015415054, 276.058548959144 366.3570605047418, 273.8275538274387 364.6378592849568 C271.5965586957334 362.91865806517177, 269.6267627180092 359.84750872163426, 268.6169317592698 357.53093312537663 C267.60710080053036 355.214357529119, 266.77576860718966 352.9107813638378, 267.76856807500224 350.73840570741095 C268.7613675428148 348.56603005098407, 272.2070350437815 345.75498740269046, 274.5737285661451 344.49667918681524 C276.94042208850874 343.23837097094, 280.47429210996484 343.2501489320951, 281.968729209184 343.1885564121595 C283.4631663084032 343.12696389222396, 283.22230649265236 343.8312572218122, 283.5403511614603 344.12712406720186" stroke="#000000" stroke-width="2" fill="none"></path></g><g><path d="M279.78316792309926 366.423120890843 C280.3468778131262 376.5704153267195, 281.4743587072621 389.0074236461125, 279.92852078803645 411.3815004594824 M279.4775688089138 367.5674113134475 C279.4481172082814 380.03791934332287, 280.8200666648622 392.2055878483678, 279.88209410416016 410.68638602044643" stroke="#000000" stroke-width="2" fill="none"></path></g><g><path d="M278.92464440593784 409.4501787407128 C274.87687489888026 419.24675400367215, 272.8968435851676 427.8058002101182, 264.8476132617988 448.74112355667876 M280.18358232015413 410.26391451450854 C276.64845161310785 418.2093228058916, 274.05059222353407 427.15993327926975, 264.8024728118354 449.65296360904443" stroke="#000000" stroke-width="2" fill="none"></path></g><g><path d="M279.34323250490394 408.7429230776634 C284.54626968969046 425.768044581541, 292.2174999096979 438.9749383730115, 296.12913903733477 449.7930072675291 M279.3338905715201 409.6531261479125 C285.43166036332036 422.59771323428987, 290.3134832528767 436.6767459895239, 295.06317116814716 449.3971207524333" stroke="#000000" stroke-width="2" fill="none"></path></g><g><path d="M279.98538810695777 385.2507209388839 C293.9504585534427 382.31518900243407, 306.8588836732419 375.9072520642643, 330.3471720250511 370.76858255413526 M280.4577597531632 385.6493902294193 C290.9812260624639 381.9010186997413, 300.79087496547584 378.77917783286654, 329.4742981193632 369.57304301008054" stroke="#000000" stroke-width="2" fill="none"></path></g><g><path d="M279.5911996123446 388.4623206893171 C293.1074604995563 387.72923104665085, 305.0945379466533 386.85445730942996, 325.44630093898706 386.45354397180523 M279.391506633004 389.64236079170513 C293.63521758581356 388.3120183890992, 307.1468234982111 388.007666227177, 324.393058560661 384.9978754957035" stroke="#000000" stroke-width="2" fill="none"></path></g><g><path d="M512.2079928538191 343.229614703435 C512.2079928538191 343.229614703435, 512.2079928538191 343.229614703435, 512.2079928538191 343.229614703435 M512.2079928538191 343.229614703435 C512.2079928538191 343.229614703435, 512.2079928538191 343.229614703435, 512.2079928538191 343.229614703435 M506.7502269763618 359.59124365199216 C511.3214785825204 353.89617180095684, 517.5108574313907 351.0898733315492, 524.6399805590149 342.7402666753082 M507.803534468118 360.8770383951475 C512.1838024126722 356.4284960146502, 515.8615602763632 352.1908061785822, 523.6516175366304 341.9021645270899 M512.9430410033129 364.9916014651534 C518.4530116778043 358.2173537621609, 526.0503394121017 351.61994871462815, 531.1080412085178 347.14133898202937 M513.2539052667629 366.3036299398244 C518.9884934342608 358.5700888936579, 524.5624459406098 352.66603113370985, 529.2707027170366 347.21013048925676 M522.8597865033665 368.1959924327911 C526.6356786476534 362.83516143076287, 528.8081055535524 358.53242823868305, 532.5044943600168 357.0589775819126 M523.3842982008986 367.83072011910343 C525.2580058298195 365.2120636294765, 527.722523746821 363.2672345851776, 532.5534191802598 355.37782653315577" stroke="none" stroke-width="1" fill="none"></path><path d="M522.0146631761064 341.0383067739462 C524.570101427432 340.9562060079304, 526.5990721815908 343.22761812107154, 528.4512492736557 345.2575895964299 C530.3034263657205 347.2875610717883, 532.6770412558982 350.2148123171814, 533.1277257284958 353.21813562609634 C533.5784102010933 356.2214589350113, 532.8615783415205 360.8968736383003, 531.1553561092409 363.27752944991965 C529.4491338769612 365.658185261539, 525.6250432660256 366.8900544168433, 522.8903923348176 367.5020704958124 C520.1557414036097 368.1140865747815, 517.322353094273 368.2066928791129, 514.747450521993 366.949625923734 C512.1725479497129 365.6925589683551, 508.70445169378013 362.4565702618893, 507.4409769011375 359.95966876353896 C506.1775021084949 357.46276726518863, 506.3739150294056 354.75447029762756, 507.16660176613703 351.9682169336319 C507.95928850286845 349.1819635696362, 509.7609348649934 344.81984916454263, 512.1970973215259 343.24214857956486 C514.6332597780585 341.6644479945871, 519.9008806478797 342.70406460997464, 521.7835765053325 342.5020134237652 C523.6662723627852 342.2999622375558, 523.4437621532055 341.8438097040797, 523.4932724662423 342.0298414623084 M516.5440337140931 342.15334136162977 C519.051795389714 341.1320281643476, 522.8538238991487 340.94990323980517, 525.4093892395904 342.11921829415246 C527.9649545800321 343.28853334849975, 530.7640083609391 346.85025658068616, 531.8774257567434 349.16923168771365 C532.9908431525477 351.48820679474113, 532.4795589051702 353.2749261917736, 532.0898936144162 356.0330689363172 C531.7002283236621 358.7912116808608, 531.6272435701158 363.7567149908864, 529.5394340122195 365.71808815497513 C527.4516244543233 367.6794613190639, 522.5435177181249 367.6854967769917, 519.5630362670386 367.80130792084975 C516.5825548159522 367.9171190647078, 513.8685498876644 368.2886596773745, 511.6565453057012 366.41295501812345 C509.44454072373804 364.5372503588724, 506.6508711464752 359.64759792534414, 506.2910087752597 356.5470799653437 C505.93114640404417 353.44656200534325, 508.0323477816855 350.0081922476154, 509.49737107840804 347.80984725812095 C510.9623943751306 345.6115022686265, 514.1120697210125 344.1336192011956, 515.081148555595 343.35701002837715 C516.0502273901774 342.5804008555587, 515.1639771770926 343.11308419265396, 515.3118440859025 343.1501922212102" stroke="#000000" stroke-width="2" fill="none"></path></g><g><path d="M520.803561512403 368.20496007964334 C520.7715350380635 378.4953803121325, 520.4800633441218 384.982526963769, 518.5367379992864 408.69715221013445 M520.2406491217374 367.46278340873886 C520.4036268068794 376.18665235313676, 520.8111800360247 384.9899652402294, 519.3445092190442 410.1885270419582" stroke="#000000" stroke-width="2" fill="none"></path></g><g><path d="M520.4188584170827 410.6606056780764 C513.1439600650875 425.39952652560083, 507.6506585828867 439.1482673247509, 506.5080889911176 448.54270051724535 M519.8648792406739 409.69120050935305 C515.6714748892489 420.59103015071804, 512.5875255335424 430.0307933358133, 504.81334411027785 450.5100547891543" stroke="#000000" stroke-width="2" fill="none"></path></g><g><path d="M521.190468820998 411.1939556470574 C524.9385153187927 419.34340713734906, 529.189909435898 429.866136043094, 534.377322047167 449.676173655037 M519.8407109601831 410.6066849467262 C523.5713566906977 418.52688372194024, 526.4145416807264 427.38890893143844, 534.378849591634 450.74339593269957" stroke="#000000" stroke-width="2" fill="none"></path></g><g><path d="M520.9685792014233 385.71512789941295 C504.5091729277645 381.4948653224766, 488.44395709098694 377.2758176661045, 469.9539821743598 369.79545143074915 M519.7554034973654 384.3892970732743 C500.45462503297944 380.12777791584915, 481.8651656178751 374.09478593888326, 470.6370306959856 369.2023635362125" stroke="#000000" stroke-width="2" fill="none"></path></g><g><path d="M518.92153124911 389.9696730758141 C508.86277346291297 389.46899213475996, 494.810590923862 386.8753204132062, 473.7793638740453 385.3197507383242 M519.4983464071423 390.7932412869832 C505.6378153875528 388.4542428145891, 490.1826919186892 385.9950141241893, 474.67206297301146 384.64477354233793" stroke="#000000" stroke-width="2" fill="none"></path></g><g><path d="M608.9543631294791 338.5540807615539 C608.9543631294791 338.5540807615539, 608.9543631294791 338.5540807615539, 608.9543631294791 338.5540807615539 M608.9543631294791 338.5540807615539 C608.9543631294791 338.5540807615539, 608.9543631294791 338.5540807615539, 608.9543631294791 338.5540807615539 M609.406425269873 349.8174147003922 C613.8182439178202 345.36915937478665, 621.3375398171551 338.49065513403923, 623.7069192644773 333.9679003598011 M609.3338510776248 350.79982939889646 C612.8884953524905 346.0350400301019, 618.7846606275818 339.41263005145623, 624.1618542159933 332.4178310941808 M613.6021701036575 354.78737259742815 C619.8427745784107 350.935474799887, 624.4768206706565 342.7245719070657, 630.323630123094 336.38690061636083 M615.8491230440811 356.6243897413121 C621.7056695163263 348.5056597429605, 627.1198912727306 341.93016525351356, 632.2054754219628 337.21769970418393 M625.0819541631525 357.0620151964787 C626.8742111616533 354.0704911294443, 629.3274364582669 352.19907663500834, 633.8548214087025 346.5967468141575 M624.8075139658507 357.26620084369785 C626.5552651921442 355.0648048578977, 628.3269851259028 353.0514088297369, 633.5766187406671 346.68240287569387" stroke="none" stroke-width="1" fill="none"></path><path d="M624.1309058106485 332.0802889364985 C626.7394652498344 332.5386667398695, 629.9407599857233 334.98385914457515, 631.5201627518362 337.48178083332664 C633.0995655179491 339.9797025220781, 633.9865782370697 344.2716718362469, 633.6073224073261 347.06781906900756 C633.2280665775826 349.8639663017682, 631.2361541998778 352.4318122505838, 629.2446277733748 354.25866422989054 C627.2531013468717 356.0855162091973, 624.3855836625773 357.8811404744995, 621.6581638483077 358.0289309448482 C618.9307440340381 358.1767214151969, 615.3082877744886 356.74410353287664, 612.880108887757 355.1454070519828 C610.4519300010255 353.5467105710889, 607.7550518874095 351.1885478486854, 607.0890905279184 348.43675205948506 C606.4231291684273 345.6849562702847, 607.664082778598 341.17959577005786, 608.88434073081 338.6346323167807 C610.104598683022 336.08966886350356, 611.6206434419468 334.1972317797846, 614.4106382411904 333.1669713398222 C617.2006330404341 332.13671089985985, 623.5322515401275 332.422286913207, 625.6243095262721 332.4530696770066 C627.7163675124167 332.48385244080623, 627.1741016814561 333.10999535514287, 626.9629861580581 333.35166792262 M622.8741992534012 332.9046379458073 C625.6561116627614 333.58001799612595, 629.7154445445447 335.0737774991897, 631.2094080238445 337.28477665141645 C632.7033715031444 339.4957758036432, 632.0411088379651 343.3242404194676, 631.8379801292002 346.1706328591678 C631.6348514204353 349.017025298868, 631.9710488469652 352.2592886356886, 629.9906357712548 354.3631312896178 C628.0102226955444 356.466973943547, 622.9752211274449 358.5428046902639, 619.9555016749374 358.7936887827429 C616.9357822224299 359.0445728752219, 614.0021389813937 357.41930172964123, 611.8723190562101 355.86843584449196 C609.7424991310265 354.3175699593427, 607.6129155168582 352.32832644470955, 607.176582123836 349.48849347184733 C606.740248730814 346.6486604989851, 608.1514876187921 341.3892801197334, 609.2543186980774 338.8294380073186 C610.3571497773628 336.2695958949037, 611.2234094997955 335.1839673944254, 613.7935685995485 334.1294407973583 C616.3637276993015 333.07491420029123, 623.0564614400773 332.6349359309252, 624.6752732965956 332.5022784249161 C626.2940851531139 332.36962091890695, 623.5825158592274 333.29782820329996, 623.5064397386578 333.3334957613034" stroke="#000000" stroke-width="2" fill="none"></path></g><g><path d="M619.176055911892 359.34616154430853 C620.2939333113984 368.1054014709825, 620.4872601542178 377.882287751495, 620.2498754049682 399.17497695498497 M620.5584252279999 358.056619380635 C619.5485484427061 374.20017540616254, 619.6795615811642 390.2968914737278, 619.3829371808081 400.5440390826729" stroke="#000000" stroke-width="2" fill="none"></path></g><g><path d="M621.5285644184587 400.91014352283133 C614.9727100589132 411.2883636167523, 613.0889681085728 420.8702335154332, 605.7210081351352 441.57603383025184 M620.1233767134291 399.8877009659692 C616.5201500695532 410.41674255820635, 613.6710172062941 419.47238494901535, 605.194353507459 440.6329959795192" stroke="#000000" stroke-width="2" fill="none"></path></g><g><path d="M621.3460410707743 401.58664627838795 C623.716043339842 409.8031279968153, 626.9279349106348 416.83046279207065, 635.5488330740692 439.2516804009215 M620.346360867759 400.3085102473284 C624.0378376468659 408.80333741812836, 626.8888227438383 419.19676611708985, 635.531652922844 440.588335121548" stroke="#000000" stroke-width="2" fill="none"></path></g><g><path d="M621.1275699990224 374.14507071965687 C602.47096867223 369.59038120951544, 581.1594281338457 362.5670701823681, 571.1209663706992 359.3416061792872 M620.5770172477837 374.88617330725714 C606.8284753004255 370.5381931636672, 593.7933447939049 367.94158261095606, 569.4089301792012 359.3772702868966" stroke="#000000" stroke-width="2" fill="none"></path></g><g><path d="M620.5886347634652 378.99464584119914 C601.358030578061 377.85397432306365, 584.7453571724867 377.50546678150164, 576.3663778803026 374.25899979235055 M619.4044508772952 379.384757070765 C605.7084326513403 377.34190201297264, 590.6904688789477 376.24348223681034, 575.2962686842368 374.6823266852853" stroke="#000000" stroke-width="2" fill="none"></path></g><g><path d="M229.08854327257913 358.6944614626031 C239.45117658289112 352.94680320974726, 273.4405069362466 337.00844729494895, 291.4835680307969 326.87527450637197 C309.5266291253472 316.742101717795, 321.3846194796403 307.0090560543587, 337.3469098398808 297.8954247311412 C353.3092002001213 288.78179340792366, 379.34232856360165 277.1636811166701, 387.25731019223997 272.1934865670668 M234.595995015856 361.7816796432636 C246.40305145345283 356.33369982792505, 277.8664356075458 341.77268158303576, 295.0568996268629 332.4036625679047 C312.24736364618 323.0346435527736, 323.5558580807643 316.3160246496196, 337.7387791317587 305.5675655524771 C351.92170018275306 294.81910645533463, 372.097276224207 273.19988080180553, 380.1544259328292 267.9129079850498" stroke="#000000" stroke-width="1.8" fill="none"></path></g><g><path d="M321.4429504699205 384.7803305595921 C325.30395760066034 378.81425036115024, 338.72703067061155 360.8963962070821, 346.91534042905045 350.44445829845364 C355.10365018748934 339.9925203898252, 363.4947939203845 335.7862416608657, 370.57280902055396 322.0687031078213 C377.6508241207234 308.3511645547769, 386.3684020709715 276.56448801702106, 389.3834310300674 268.13922698018746 M324.9543598448421 390.25787387823055 C330.0692755551876 386.0885059793655, 345.7085121797425 367.74613036450796, 353.9714996552871 355.6492173019468 C362.2344871308317 343.55230423938565, 367.8086683463112 331.3359456888742, 374.5322846981098 317.67639550286344 C381.25590104990835 304.0168453168527, 391.56587906380065 281.47887926319095, 394.3131977660784 273.6919161858823" stroke="#000000" stroke-width="1.8" fill="none"></path></g><g><path d="M474.5266684974076 381.6973966855206 C470.40669469486375 375.1377214904279, 455.5152227334666 357.12710655585073, 448.27684901219357 346.3724435753241 C441.03847529092053 335.61778059479747, 437.6937704513138 330.0217113033264, 431.0964261697694 317.16941880236084 C424.499081888225 304.31712630139526, 412.11908059250806 277.0201046963956, 408.69278332292726 269.25868856953065 M472.2210797011622 385.52111134419744 C467.25437076441665 379.4822396715606, 456.951001557377 363.76063990559214, 449.4829760202618 353.7325171791199 C442.01495048314655 343.70439445264765, 434.2132256495719 339.5356118744671, 427.41292647847075 325.3523749853639 C420.6126273073696 311.16913809626067, 412.3443979147037 278.18640348429403, 408.6811809936552 268.6330958445007" stroke="#000000" stroke-width="1.8" fill="none"></path></g><g><path d="M572.4584981506567 359.28163697958615 C563.0721057074308 354.65581021641736, 531.0688071053291 342.7734221934687, 512.9281034900905 333.07957675502365 C494.7873998748518 323.3857313165786, 480.2467167376911 312.0857595063927, 463.61427645922464 301.11856434891564 C446.9818361807582 290.15136919143856, 420.7689653498818 271.84451708144286, 413.13346181929194 267.2764058101613 M573.6088929298737 360.65945713086455 C563.9334635914729 356.9879231683694, 532.7632018052459 341.74671616040325, 513.0178214199775 332.51045143472857 C493.2724410347091 323.2741867090539, 471.68939136201027 315.4037950468629, 455.13661061826355 305.24186877681626 C438.5838298745168 295.0799425067696, 420.7356042512805 277.6258654581964, 413.7011369574971 271.53889381444867" stroke="#000000" stroke-width="1.8" fill="none"></path></g><text x="400" y="545" text-anchor="middle" font-family="sans-serif" font-size="16" fill="#222" font-style="italic">"That's how it's always been done here."</text></svg>